<svg width="18" height="18" viewBox="0 0 18 18" xmlns="http://www.w3.org/2000/svg">
  <g fill="none" fill-rule="evenodd">
    <path d="M14.977 10.525l-.011-.157c-.183-2.386-1.294-3.882-2.275-5.2C11.784 3.944 11 2.89 11 1.333a.334.334 0 0 0-.527-.271C9 2.116 7.773 3.89 7.343 5.585c-.297 1.18-.337 2.505-.342 3.381-1.36-.29-1.668-2.324-1.67-2.346a.335.335 0 0 0-.477-.253c-.07.035-1.75.888-1.847 4.293A6.007 6.007 0 0 0 9 17c3.308 0 6-2.692 6-6 0-.166-.011-.32-.023-.475z" stroke="#1E1E1E" stroke-width="2" fill="#FFC826" stroke-linecap="round" stroke-linejoin="round"/>
    <path d="M7 13.36c0-.05 0-.1.003-.16.013-.615.107-1.034.21-1.312.194.514.54.987 1.1.987.185 0 .334-.184.334-.413 0-.588.01-1.266.128-1.878.105-.544.357-1.121.675-1.584.141.601.418 1.087.687 1.562.386.68.785 1.382.855 2.58.004.07.008.141.008.218 0 1.456-.897 2.64-2 2.64s-2-1.184-2-2.64z" fill="#FF8F00"/>
  </g>
</svg>
