<svg width="18" height="18" viewBox="0 0 18 18" xmlns="http://www.w3.org/2000/svg">
  <path d="M14.977 10.525l-.011-.157c-.183-2.386-1.294-3.882-2.275-5.2C11.784 3.944 11 2.89 11 1.333a.334.334 0 0 0-.527-.271C9 2.116 7.773 3.89 7.343 5.585c-.297 1.18-.337 2.505-.342 3.381-1.36-.29-1.668-2.324-1.67-2.346a.335.335 0 0 0-.477-.253c-.07.035-1.75.888-1.847 4.293A6.007 6.007 0 0 0 9 17c3.308 0 6-2.692 6-6 0-.166-.011-.32-.023-.475z" stroke="#9EA0A3" stroke-width="2" fill="none" fill-rule="evenodd" stroke-linecap="round" stroke-linejoin="round"/>
</svg>
