<svg width="18" height="18" viewBox="0 0 18 18" xmlns="http://www.w3.org/2000/svg">
  <g transform="translate(1 1)" fill="none" fill-rule="evenodd">
    <path d="M8 0L.857 6.349a2 2 0 0 0-.632 1.887L1.778 16h12.444l1.553-7.764a2 2 0 0 0-.632-1.887L8 0z" fill="#5140B7"/>
    <path d="M8 4L1.566 6.502A2 2 0 0 0 .329 8.758L1.778 16h12.444l1.449-7.242a2 2 0 0 0-1.237-2.256L8 4z" fill="#7764E6"/>
    <path d="M8 0L.857 6.349a2 2 0 0 0-.632 1.887L1.778 16h12.444l1.553-7.764a2 2 0 0 0-.632-1.887L8 0z" stroke="#1E1E1E" stroke-width="2" stroke-linecap="round" stroke-linejoin="round"/>
    <circle fill="#1E1E1E" cx="8" cy="14" r="3"/>
  </g>
</svg>
