<svg width="18" height="19" viewBox="0 0 18 19" xmlns="http://www.w3.org/2000/svg">
  <g fill="none" fill-rule="evenodd">
    <path d="M4 11.443l-.628 2.505L1.075 14A10.117 10.117 0 0 1 0 9.432C0 7.834.364 6.327 1.009 5l2.045.4.895 2.17a6.083 6.083 0 0 0-.29 1.862c0 .708.12 1.386.341 2.011z" fill="#FBBB00"/>
    <path d="M17.84 8c.105.563.16 1.145.16 1.74A9.325 9.325 0 0 1 14.559 17l-2.626-.136-.372-2.347a5.533 5.533 0 0 0 2.36-2.834H9V8h8.839z" fill="#518EF8"/>
    <path d="M15 16.774C13.408 18.167 11.385 19 9.184 19 5.645 19 2.569 16.848 1 13.682L4.01 11c.785 2.278 2.805 3.9 5.174 3.9 1.017 0 1.971-.3 2.79-.822l3.025 2.696z" fill="#28B446"/>
    <path d="M15 2.283l-2.971 2.63a5.125 5.125 0 0 0-2.883-.892c-2.39 0-4.422 1.664-5.158 3.979L1.001 5.355H1C2.526 2.174 5.601 0 9.146 0 11.37 0 13.412.857 15 2.283z" fill="#F14336"/>
  </g>
</svg>
