<?xml version="1.0" encoding="UTF-8"?>
<svg xmlns="http://www.w3.org/2000/svg" xmlns:xlink="http://www.w3.org/1999/xlink" width="19px" height="19px" viewBox="0 0 19 19" version="1.1">
<g id="surface1">
<path style=" stroke:none;fill-rule:nonzero;fill:rgb(23.529412%,35.294118%,60%);fill-opacity:1;" d="M 17.652344 18.667969 C 18.210938 18.667969 18.664062 18.210938 18.664062 17.652344 L 18.664062 1.339844 C 18.664062 0.78125 18.210938 0.328125 17.652344 0.328125 L 1.339844 0.328125 C 0.78125 0.328125 0.328125 0.78125 0.328125 1.339844 L 0.328125 17.652344 C 0.328125 18.210938 0.78125 18.667969 1.339844 18.667969 Z M 17.652344 18.667969 "/>
<path style=" stroke:none;fill-rule:nonzero;fill:rgb(100%,100%,100%);fill-opacity:1;" d="M 12.980469 18.667969 L 12.980469 11.5625 L 15.363281 11.5625 L 15.722656 8.796875 L 12.980469 8.796875 L 12.980469 7.027344 C 12.980469 6.226562 13.203125 5.679688 14.351562 5.679688 L 15.816406 5.679688 L 15.816406 3.207031 C 15.5625 3.171875 14.695312 3.097656 13.683594 3.097656 C 11.570312 3.097656 10.121094 4.386719 10.121094 6.753906 L 10.121094 8.796875 L 7.730469 8.796875 L 7.730469 11.5625 L 10.121094 11.5625 L 10.121094 18.667969 Z M 12.980469 18.667969 "/>
</g>
</svg>
