<?xml version="1.0" encoding="UTF-8"?>
<svg width="86px" height="86px" viewBox="0 0 86 86" version="1.1" xmlns="http://www.w3.org/2000/svg" xmlns:xlink="http://www.w3.org/1999/xlink">
    <!-- Generator: Sketch 52.2 (67145) - http://www.bohemiancoding.com/sketch -->
    <title>Film &amp; Animation_gray_icon</title>
    <desc>Created with Sketch.</desc>
    <g id="Film-&amp;-Animation_gray_icon" stroke="none" stroke-width="1" fill="none" fill-rule="evenodd" stroke-linecap="round" stroke-linejoin="round">
        <g id="214279" transform="translate(0.000000, 7.000000)" stroke="#1D1D1D" stroke-width="2">
            <path d="M38,53 L38,73.2940974 C38,74.7823954 38.9691992,76 40.1538672,76 L49.8461328,76 C51.0308008,76 52,74.7823954 52,73.2940974 L52,53 L38,53 Z" id="Shape"></path>
            <path d="M65,46 L65,50.2 C65,51.7400533 63.7914666,53 62.3142565,53 L20.6857435,53 C19.2085334,53 18,51.7400533 18,50.2 L18,46 L65,46 Z" id="Path"></path>
            <path d="M1.2,8 L4.8,8 C5.46002285,8 6,9.19994922 6,10.6666667 L6,17.3333333 C6,18.8000508 5.46002285,20 4.8,20 L1.2,20 C0.539977149,20 0,18.7998815 0,17.3333333 L0,10.6666667 C0,9.19994922 0.539977149,8 1.2,8 Z" id="Path"></path>
            <path d="M10.0213092,0 L64.9786908,0 C67.1904024,0 69,1.82649282 69,4.05885384 L69,46 L10.0213092,46 C7.80959764,46 6,44.1735072 6,41.9411462 L6,4.05868208 C6.00017017,1.82649282 7.80976781,0 10.0213092,0 Z" id="Path"></path>
            <path d="M60,32 C61.6800731,32 63,33.3200792 63,35 C63,36.6799208 61.6799208,38 60,38 C58.3200792,38 57,36.6799208 57,35 C57,33.3200792 58.3199269,32 60,32 Z" id="Path"></path>
            <path d="M50,32 C51.6800731,32 53,33.3200792 53,35 C53,36.6799208 51.6799208,38 50,38 C48.3200792,38 47,36.6799208 47,35 C47,33.3200792 48.3199269,32 50,32 Z" id="Path"></path>
            <path d="M56.5,7 C59.0071638,7 61,8.99283616 61,11.5 C61,14.0071638 59.0071638,16 56.5,16 C53.9928362,16 52,14.0073271 52,11.5001632 C52,8.99299938 53.9928362,7 56.5,7 Z" id="Path"></path>
            <polygon id="Path" points="69 14 74 14 74 32 69 32"></polygon>
            <rect id="Rectangle" x="74" y="11" width="10" height="24" rx="2"></rect>
            <path d="M6,37 L36.0000635,37 C37.1333326,37 38,36.1333051 38,35 C38,33.8666949 37.1333326,33 36.0000635,33 L6,33 L6,37 Z" id="Path"></path>
        </g>
    </g>
</svg>