<?xml version="1.0" encoding="UTF-8"?>
<svg width="86px" height="86px" viewBox="0 0 86 86" version="1.1" xmlns="http://www.w3.org/2000/svg" xmlns:xlink="http://www.w3.org/1999/xlink">
    <!-- Generator: Sketch 52.2 (67145) - http://www.bohemiancoding.com/sketch -->
    <title>category-news-and-politics-hover</title>
    <desc>Created with Sketch.</desc>
    <g id="category-news-and-politics-hover" stroke="none" stroke-width="1" fill="none" fill-rule="evenodd" stroke-linecap="round" stroke-linejoin="round">
        <g id="world" transform="translate(5.000000, 13.000000)" stroke="#1D1D1D" stroke-width="2">
            <circle id="Oval" fill="#6E87F5" cx="34" cy="34" r="34"></circle>
            <path d="M48.3286629,3.04744512 L47.9728272,3 C47.9728272,3 51.5669295,11.5297376 47.9728272,13.6944884 L44.2584882,15.1672565 C42.0662447,16.036487 40.5502875,18.0318676 40.2729848,20.3556043 C40.2637775,20.4273986 40.2560145,20.4977606 40.2451823,20.569555 C39.9138996,22.9545227 36.6664256,23.5274449 35.4171194,21.4633136 L33.8872609,18.9347572 C33.309547,17.9799465 31.8921622,18.0426099 31.4162704,19.0523853 C30.2099317,21.6069022 28.4336421,25.8128675 28.0285203,29.1863051 C27.933017,29.9746103 28.0794313,30.7691818 28.4367112,31.4796053 L30.2130008,35.0027189 C30.7197642,36.0080183 31.4931786,36.8482445 32.4529057,37.4487386 C33.8255177,38.3074058 35.889942,39.7526021 37.2809687,41.4194477 C38.7306694,43.1550439 40.8135083,44.2503996 43.0859097,44.2503996 C43.2276301,44.2503996 43.3417286,44.3619404 43.3323407,44.5024854 C43.2276301,46.1174099 42.8161895,54.9448879 46.4319561,54.9448879 C46.4319561,54.9448879 54.1348676,56.4085252 54.1348676,44.2503996 L56.6982923,32.8087848 C56.8847855,31.9760782 58.0001343,31.7973981 58.442266,32.5276949 L60.0398253,35.1692244 C61.0011772,36.7581883 63.1363715,37.1721246 64.6322893,36.0613717 L68,33.5557322 C68.0001805,20.0319033 59.9414334,8.37938154 48.3286629,3.04744512 Z" id="Path" fill="#35A66B"></path>
            <path d="M12.1599815,44.0334336 L12.1599815,41.7491727 C12.1599815,39.8308492 10.2174906,38.5034362 8.3968453,39.1778218 L1,41.913275 C4.31636874,54.0910163 13.6768846,64.5213794 26.3372829,67 L27.6546007,64.0528429 C28.5495798,60.9651572 27.6760817,57.6419972 25.3732885,55.3712632 L24.4398603,54.4509021 C23.4510149,53.4758997 22.2818379,52.695079 20.9955085,52.1515125 L16.2449709,50.1436625 C13.76672,49.0956861 12.1599815,46.6928871 12.1599815,44.0334336 Z" id="Path" fill="#259359"></path>
            <path d="M0,32 L4.60226972,30.1854066 L9.31734017,28.2747538 C10.8152986,27.6684015 11.5869261,25.9832561 11.0754453,24.432201 C10.7099004,23.3230546 10.9957798,22.0994584 11.8109413,21.2736693 L14.9919218,18.052824 L16.1454855,16.8842209 C17.3335944,15.6806221 18,14.0502913 18,12.3483623 L18,10.3661114 C18,8.38386049 17.3082143,6.50070428 16.1049478,5 C6.90939712,10.5626938 0.600135126,20.5134077 0,32 Z" id="Path" fill="#35A66B"></path>
        </g>
        <g id="Group" transform="translate(47.000000, 6.000000)" stroke="#1D1D1D" stroke-width="2">
            <path d="M2,4.79616347e-14 L32,4.79616347e-14 C33.1045695,4.77587285e-14 34,0.8954305 34,2 L34,22 C34,23.1045695 33.1045695,24 32,24 L10,24 L7,29 L4,24 L2,24 C0.8954305,24 3.3700298e-14,23.1045695 3.55271368e-14,22 L0,2 C-1.3527075e-16,0.8954305 0.8954305,4.81645408e-14 2,4.79616347e-14 Z" id="Rectangle" fill="#FF5050"></path>
            <path d="M28.2553711,7 L6.25537109,7" id="Path-14"></path>
            <path d="M19.7586212,12 L5.75862125,12" id="Path-14-Copy"></path>
        </g>
    </g>
</svg>