<?xml version="1.0" encoding="UTF-8"?>
<svg width="86px" height="86px" viewBox="0 0 86 86" version="1.1" xmlns="http://www.w3.org/2000/svg" xmlns:xlink="http://www.w3.org/1999/xlink">
    <!-- Generator: Sketch 52.2 (67145) - http://www.bohemiancoding.com/sketch -->
    <title>category-family-entertainment</title>
    <desc>Created with Sketch.</desc>
    <g id="category-family-entertainment" stroke="none" stroke-width="1" fill="none" fill-rule="evenodd">
        <g id="family-(1)-copy" transform="translate(16.000000, 4.000000)">
            <path d="M32.7890161,14.9083958 C33.9883462,21.0915493 30.1708007,29.3452906 18.8619118,33.9270467 C18.6294835,34.0243178 18.3677336,34.0243178 18.1353051,33.9270467 C6.86288982,29.4540054 3.00887092,21.1630722 4.21034649,14.9083958 C5.00989978,10.6914063 7.95423022,8 11.7732059,8 C13.9172678,8 16.2072229,8.87329441 18.4993238,10.5819761 C20.7535208,8.9448173 23.0799493,8.07295344 25.1896831,8.07295344 C29.0065136,8.07295344 31.9522741,10.7629292 32.7890161,14.9083958 Z" id="Path-Copy" fill="#FFFFFF"></path>
            <path d="M42.7890161,6.90839576 C43.9883462,13.0915493 40.1708007,21.3452906 28.8619118,25.9270467 C28.6294835,26.0243178 28.3677336,26.0243178 28.1353051,25.9270467 C16.8628898,21.4540054 13.0088709,13.1630722 14.2103465,6.90839576 C15.0098998,2.69140631 17.9542302,0 21.7732059,0 C23.9172678,0 26.2072229,0.873294412 28.4993238,2.58197615 C30.7535208,0.944817299 33.0799493,0.0729534369 35.1896831,0.0729534369 C39.0065136,0.0729534369 41.9522741,2.76292919 42.7890161,6.90839576 Z" id="Path-Copy-2" stroke="#1D1D1D" stroke-width="2" stroke-linecap="round" stroke-linejoin="round"></path>
            <path d="M46.64085,33.0441843 C45.5802925,35.9687395 42.4603145,37.597736 39.454912,36.7964578 C36.4487748,35.9951795 34.5538731,33.0294954 35.0907618,29.9646613 C35.6269163,26.9005615 38.4163881,24.7545167 41.5158013,25.0225886 C44.6152145,25.2899262 46.9963278,27.8817784 47,30.9928827 C47,31.6920732 46.8788145,32.3861226 46.64085,33.0441843 Z" id="Path" stroke="#1D1D1D" stroke-width="2" fill="#FFFFFF" stroke-linecap="round" stroke-linejoin="round"></path>
            <path d="M16.9999819,26.9853487 C17.0080386,30.3002863 14.3266474,32.9933987 11.01098,32.9999904 C7.69604517,33.0058498 5.0044,30.3229914 5.00000539,27.0073212 C4.99561096,23.6923836 7.68066439,21.0022011 10.9963316,21.0000038 C14.3061396,20.9963417 16.9926578,23.6748055 16.9999819,26.9853487 Z" id="Path" stroke="#1D1D1D" stroke-width="2" fill="#FFFFFF" stroke-linecap="round" stroke-linejoin="round"></path>
            <path d="M19.2413023,67.6519429 L18.0037187,67.6541017 L18,61.7571128 C18.0141309,57.4806265 21.59524,54.0179895 26.015288,54.0057567 L27.9690935,54 C32.3891413,54.0064762 35.9747129,57.4640761 35.9962813,61.7405623 L36,67.6375512 L34.1681679,67.6389905 L31.7220064,67.6411491 L30.3966615,80 L23.6985372,80 L22.2817122,67.6505038 L19.2413023,67.6519429 Z" id="Path" stroke="#1D1D1D" stroke-width="2" fill="#FFFFFF" stroke-linecap="round" stroke-linejoin="round"></path>
            <path d="M53,56.7766665 L48.7487295,56.7802741 L47.4311566,80 L34.8080074,80 L33.9240292,68.6260718 L33.9240292,67.6058527 L35.7219138,67.6044096 L35.718264,61.6916119 C35.6970953,57.4036611 32.1779717,53.936792 27.8398364,53.9302985 L25.9222389,53.9360706 C21.5841034,53.9483363 18.0693596,57.420256 18.0554905,61.7082068 L18.0591403,67.6210044 L19.273789,67.6188399 L19.0248737,69.0618655 L18.2868869,80 L5.6637377,80 L4.25711019,54.8704297 L0.00364973911,54.8740373 L0,44.8781984 C0.0138692329,40.5354129 3.57241046,37.0180378 7.96602251,37.0057721 L15.8729185,37 C18.5219332,37.0021646 20.9972178,38.3023306 22.4819508,40.4704766 C22.6637101,40.736715 22.8301403,41.0130543 22.9790516,41.2980519 L23.0841654,41.6083025 C22.1425208,43.1934661 22.3067611,45.1913351 23.4944013,46.6055002 C24.6827717,48.0189439 26.6397868,48.5456482 28.3887642,47.9215396 C30.1377416,47.2974311 31.3034831,45.6574323 31.304213,43.8197393 C31.304213,43.6826517 31.2983734,43.5462858 31.2859641,43.4135275 L31.4815927,43.1617196 C31.6867106,42.9582528 31.9035078,42.767052 32.1305245,42.5873953 C33.5400719,41.4611137 35.1875163,41.0007217 37,41 L45,41 C49.394342,41.0064938 52.9751814,44.3579877 52.9963501,48.701495 L53,56.7766665 Z" id="Path" fill="#FFFFFF"></path>
            <path d="M53,56.7766665 L48.7487295,56.7802741 L47.4311566,80 L34.8080074,80 L33.9240292,68.6260718 L33.9240292,67.6058527 L35.7219138,67.6044096 L35.718264,61.6916119 C35.6970953,57.4036611 32.1779717,53.936792 27.8398364,53.9302985 L25.9222389,53.9360706 C21.5841034,53.9483363 18.0693596,57.420256 18.0554905,61.7082068 L18.0591403,67.6210044 L19.273789,67.6188399 L19.0248737,69.0618655 L18.2868869,80 L5.6637377,80 L4.25711019,54.8704297 L0.00364973911,54.8740373 L0,44.8781984 C0.0138692329,40.5354129 3.57241046,37.0180378 7.96602251,37.0057721 L15.8729185,37 C18.5219332,37.0021646 20.9972178,38.3023306 22.4819508,40.4704766 C22.6637101,40.736715 22.8301403,41.0130543 22.9790516,41.2980519 L23.0841654,41.6083025 C22.1425208,43.1934661 22.3067611,45.1913351 23.4944013,46.6055002 C24.6827717,48.0189439 26.6397868,48.5456482 28.3887642,47.9215396 C30.1377416,47.2974311 31.3034831,45.6574323 31.304213,43.8197393 C31.304213,43.6826517 31.2983734,43.5462858 31.2859641,43.4135275 L31.4815927,43.1617196 C31.6867106,42.9582528 31.9035078,42.767052 32.1305245,42.5873953 C33.5400719,41.4611137 35.1875163,41.0007217 37,41 L45,41 C49.394342,41.0064938 52.9751814,44.3579877 52.9963501,48.701495 L53,56.7766665 Z" id="Path-Copy-3" stroke="#1D1D1D" stroke-width="2" stroke-linecap="round" stroke-linejoin="round"></path>
            <path d="M23.5552719,43.9652785 C23.587005,43.9130388 23.6193992,43.8607991 23.6531156,43.8078981 C24.5846147,42.3875078 26.3107638,41.7097146 27.9595635,42.1170518 C29.6083631,42.5243891 30.8201713,43.9282479 30.9834646,45.6197554 C30.9947034,45.7414276 30.9999923,45.866406 30.9999923,45.9920458 C31.0032978,47.6795859 29.9468496,49.1872627 28.3608551,49.7612379 C26.7741994,50.3352132 24.9978064,49.8518308 23.9208637,48.5531126 C22.8439213,47.2543945 22.6978168,45.4187318 23.5552719,43.9652785 Z" id="Path" stroke="#1D1D1D" stroke-width="2" fill="#FFFFFF" stroke-linecap="round" stroke-linejoin="round"></path>
            <path d="M47.9505967,26 C49.6346062,26 51,27.3427264 51,28.9996478 C51,30.6565692 49.6346062,32 47.9505967,32 L46.3324583,32 C47.100716,29.9140543 46.5823389,27.5801339 45,26 L47.9505967,26 Z" id="Path" stroke="#1D1D1D" stroke-width="2" fill="#FFFFFF" stroke-linecap="round" stroke-linejoin="round"></path>
        </g>
    </g>
</svg>