<?xml version="1.0" encoding="UTF-8"?>
<svg width="86px" height="86px" viewBox="0 0 86 86" version="1.1" xmlns="http://www.w3.org/2000/svg" xmlns:xlink="http://www.w3.org/1999/xlink">
    <!-- Generator: Sketch 52.2 (67145) - http://www.bohemiancoding.com/sketch -->
    <title>category-entertainment</title>
    <desc>Created with Sketch.</desc>
    <g id="category-entertainment" stroke="none" stroke-width="1" fill="none" fill-rule="evenodd">
        <g id="balloons" transform="translate(3.000000, 3.000000)">
            <path d="M65.7623107,12.9048694 C62.858774,11.9780658 59.8967308,11.7864849 57.0765968,12.2237621 C57.7537775,14.09914 58.1234883,16.1213139 58.1234883,18.229948 C58.1234883,26.4181659 52.557287,38.8945616 45,42.7243139 C46.7259395,44.9324704 48.9535403,46.7761256 51.5819724,48.0643207 L48.0404668,53.3191114 L55.147752,56 L55.9792901,49.5913699 C65.4417702,51.6365583 75.0884832,46.1970288 78.0934726,36.7915257 C81.288919,26.7919974 75.7675312,16.0976774 65.7623107,12.9048694 Z" id="Path" stroke="#1D1D1D" stroke-width="2" stroke-linecap="round" stroke-linejoin="round"></path>
            <path d="M58,18.6823924 C58,8.91658 49.9413657,1 40.0003164,1 C30.0586343,1 22,8.91658 22,18.6830141 C22,27.6413802 28.7811232,41.7347076 37.5762722,44.0047571 L36.1348801,50 L43.8581599,50 L42.4174006,44.0066219 C51.2157132,41.7415452 58,27.6432449 58,18.6823924 Z" id="Path" stroke="#1D1D1D" stroke-width="2" stroke-linecap="round" stroke-linejoin="round"></path>
            <path d="M35,43.7247482 C27.4427859,39.8949418 21.8766383,27.4183697 21.8766383,19.2300361 C21.8766383,17.1213722 22.2463456,15.0991697 22.9235197,13.2237653 C20.1034129,12.7864818 17.1413983,12.9780655 14.2378896,13.9048822 C4.23276576,17.0977353 -1.28856892,27.7922065 1.90622427,37.7912542 C4.69645576,46.5226154 13.2084355,51.8359507 21.9836917,50.9178421 L22.7728982,57 L29.8807376,54.3196955 L26.80918,49.7614982 C30.1433914,48.4913236 32.932378,46.3702193 35,43.7247482 Z" id="Path" stroke="#1D1D1D" stroke-width="2" stroke-linecap="round" stroke-linejoin="round"></path>
            <path d="M41.0116641,7.90660429 C43.6037836,7.90660429 45.9295518,9.27131597 47.0812563,11.468827 C47.2573854,11.80483 47.6163124,12 47.9889689,12 C48.1392081,12 48.2921935,11.968211 48.4361564,11.9013061 C48.9370852,11.6680631 49.1426346,11.0965994 48.8951123,10.6245688 C47.4001717,7.77205525 44.3793012,6 41.0116641,6 C40.4530718,6 40,6.42656486 40,6.95330214 C40,7.47966981 40.4530718,7.90660429 41.0116641,7.90660429 Z" id="Path" fill="#000000"></path>
            <path d="M50.212707,13.0288424 C49.500158,13.1725979 48.9768434,13.8215346 49.0007896,14.5484601 C49.0247359,15.2713118 49.5889346,15.8940582 50.3096603,15.9877613 C50.9427777,16.0704061 51.5875761,15.7281865 51.8609144,15.1520005 C52.0676705,14.717242 52.0384676,14.1975106 51.8095174,13.7773021 C51.5005516,13.2110102 50.8504967,12.9002189 50.212707,13.0288424 Z" id="Path" fill="#000000"></path>
            <path d="M40,50 L40,77" id="Path-37" stroke="#1D1D1D" stroke-width="2" stroke-linecap="round" stroke-linejoin="round"></path>
            <path d="M27,55.8 C28.2039457,60.1884485 28.3830864,63.9217818 27.537422,67 C26.6917577,70.0782182 24.8459504,72.4115515 22,74" id="Path-38" stroke="#1D1D1D" stroke-width="2" stroke-linecap="round" stroke-linejoin="round"></path>
            <path d="M55,55.8 C56.2039457,60.1884485 56.3830864,63.9217818 55.537422,67 C54.6917577,70.0782182 52.8459504,72.4115515 50,74" id="Path-38-Copy" stroke="#1D1D1D" stroke-width="2" stroke-linecap="round" stroke-linejoin="round" transform="translate(53.030400, 64.900000) scale(-1, 1) translate(-53.030400, -64.900000) "></path>
        </g>
    </g>
</svg>