<?xml version="1.0" encoding="UTF-8"?>
<svg width="86px" height="86px" viewBox="0 0 86 86" version="1.1" xmlns="http://www.w3.org/2000/svg" xmlns:xlink="http://www.w3.org/1999/xlink">
    <!-- Generator: Sketch 52.2 (67145) - http://www.bohemiancoding.com/sketch -->
    <title>category-auto&amp;vehicles</title>
    <desc>Created with Sketch.</desc>
    <g id="category-auto&amp;vehicles" stroke="none" stroke-width="1" fill="none" fill-rule="evenodd">
        <g id="Group-2" transform="translate(3.000000, 4.000000)">
            <g id="1198131">
                <g id="Group" transform="translate(0.000000, 52.000000)" fill="#FFFFFF" stroke="#1D1D1D" stroke-linecap="round" stroke-linejoin="round" stroke-width="2">
                    <path d="M79.251181,0.328625216 C78.7792141,0.00302842003 78.1707987,-0.0909059499 77.6276412,0.0931545586 L72.5085144,1.73573665 L63.8001978,1.73573665 C62.806167,1.73573665 62,2.51259928 62,3.46907969 L62,20.8006057 C62,23.6668734 64.4224558,26 67.3999341,26 L74.6000659,26 C77.5768851,26 80,23.6668734 80,20.8006057 L80,1.73573665 C80,1.17784278 79.7224888,0.654222012 79.251181,0.328625216 Z" id="Path"></path>
                    <path d="M17.251181,0.328625216 C16.7792141,0.00302842003 16.1707987,-0.0909059499 15.6276412,0.0931545586 L10.5085144,1.73573665 L1.80019779,1.73573665 C0.806166957,1.73573665 0,2.51259928 0,3.46907969 L0,20.8006057 C0,23.6668734 2.42245582,26 5.39993407,26 L12.6000659,26 C15.5768851,26 18,23.6668734 18,20.8006057 L18,1.73573665 C18,1.17784278 17.7224888,0.654222012 17.251181,0.328625216 Z" id="Path-Copy" transform="translate(9.000000, 13.000000) scale(-1, 1) translate(-9.000000, -13.000000) "></path>
                </g>
                <path d="M73.9927914,26.5856583 C73.9927914,26.5856583 73.8459981,25.0943673 73.5563437,22.857751 C73.4953983,22.3956879 73.252272,21.9759218 72.8728377,21.6926597 C72.4966799,21.408757 72.0209126,21.2863519 71.548422,21.3427479 L70.4422301,21.4856607 C67.7868453,21.0767892 47.3583385,18 39.9996723,18 C32.6416614,18 12.2131547,21.0767892 9.55711464,21.4824563 L8.45157804,21.3427479 C7.98629583,21.2863519 7.50266463,21.408757 7.12716234,21.6926597 C6.747728,21.9727175 6.50460166,22.3924837 6.4436563,22.8545467 C6.15400187,25.0911629 6.00720864,26.5856583 6,26.7497196 L6,31.9996795 C6,32.9661028 6.80146472,33.7498798 7.78904247,33.7498798 L9.81465808,33.7498798 L11.3828554,44.498455 C11.5112995,45.3591357 12.2662361,46 13.1574808,46 L66.8418638,46 C67.7331084,46 68.4887005,45.3591357 68.6138678,44.498455 L70.1814099,33.7498798 L72.2103021,33.7498798 C73.1985351,33.7498798 74,32.9661028 74,31.9996795 L74,26.7497196 C74,26.6939645 73.9967234,26.6382093 73.9927914,26.5856583 Z" id="Path" stroke="#1D1D1D" stroke-width="2" fill="#FFFFFF" stroke-linecap="round" stroke-linejoin="round"></path>
                <path d="M28,33.5 C28,36.5373535 25.5373535,39 22.5,39 C19.4619751,39 17,36.5373535 17,33.5 C17,30.4626465 19.4619751,28 22.5,28 C25.5373535,28 28,30.4626465 28,33.5 Z" id="Path" fill="#FAFAFA"></path>
                <path d="M62,33.5 C62,36.5373535 59.5373535,39 56.5,39 C53.4626465,39 51,36.5373535 51,33.5 C51,30.4626465 53.4626465,28 56.5,28 C59.5373535,28 62,30.4626465 62,33.5 Z" id="Path" fill="#FAFAFA"></path>
                <path d="M14.2036804,31.5253905 C14.0793381,30.6503905 13.3293775,30 12.4440074,30 L8.88820464,30 C8.74237897,30 8.59720444,30.0175782 8.45853973,30.0533853 L1.3475855,31.8307292 C0.554658346,32.0299478 0,32.7408853 0,33.5553385 L0,44.2220052 C0,45.203125 0.79618215,46 1.77790138,46 L14.2212577,46 C14.7368556,46 15.2277153,45.7760417 15.5655882,45.3880208 C15.9034609,45.000651 16.0557967,44.4817708 15.9815818,43.9733072 L14.2036804,31.5253905 Z" id="Path" stroke="#1D1D1D" stroke-width="2" fill="#FFFFFF" stroke-linecap="round" stroke-linejoin="round"></path>
                <path d="M78.6524335,31.8307292 L71.5415796,30.0533853 C71.402917,30.0175782 71.2570934,30 71.1112698,30 L67.5561683,30 C66.6708107,30 65.9208607,30.6503905 65.79652,31.5253905 L64.0186439,43.969401 C63.9437791,44.4817708 64.0967637,44.9973958 64.4346317,45.3847655 C64.7724998,45.7760417 65.2627015,46 65.7782921,46 L78.2221237,46 C79.2031781,46 80,45.203125 80,44.2220052 L80,33.5553385 C80,32.7408853 79.4453495,32.0299478 78.6524335,31.8307292 Z" id="Path" stroke="#1D1D1D" stroke-width="2" fill="#FFFFFF" stroke-linecap="round" stroke-linejoin="round"></path>
                <path d="M78.2606618,42 L1.73933816,42 C0.778912715,42 0,42.7844238 0,43.7502137 L0,52.5 C0,53.2530213 0.480212638,53.9246521 1.18970472,54.1624146 L6.40708218,55.9126281 C6.58413665,55.9690246 6.76883394,56.0004273 6.95671561,56.0004273 L17.7704183,56.0004273 L19.1823965,61.673401 C19.3772838,62.4539795 20.0727643,63 20.8695098,63 L59.1304902,63 C59.9265987,63 60.6227161,62.4539795 60.8169667,61.673401 L62.2295817,56.0004273 L73.0432844,56.0004273 C73.2311661,56.0004273 73.4152263,55.9690246 73.5929178,55.9094238 L78.8102953,54.1592102 C79.5197872,53.9214478 80,53.2530213 80,52.5 L80,43.7502137 C80,42.7844238 79.2204504,42 78.2606618,42 Z" id="Path" stroke="#1D1D1D" stroke-width="2" fill="#FFFFFF" stroke-linecap="round" stroke-linejoin="round"></path>
                <path d="M30,51.5003205 C30,53.4331228 28.4329793,55 26.5,55 C24.5670207,55 23,53.4331228 23,51.5003205 C23,49.5668772 24.5670207,48 26.5,48 C28.4329793,48 30,49.5668772 30,51.5003205 Z" id="Path" fill="#1D1D1D"></path>
                <path d="M58,51.5003205 C58,53.4331228 56.4331228,55 54.5003205,55 C52.5668772,55 51,53.4331228 51,51.5003205 C51,49.5668772 52.5668772,48 54.5003205,48 C56.4331228,48 58,49.5668772 58,51.5003205 Z" id="Path" fill="#1D1D1D"></path>
                <path d="M10,22 L13.4581212,5.57181872 C13.7893751,3.99816009 15.0308308,2.77588976 16.6094573,2.46918314 C25.0820882,0.823061046 33.2122691,4.29642386e-16 41,1.52655666e-16 C48.8009714,1.52655666e-16 56.6019428,0.825862108 64.4029142,2.47758633 L64.4029127,2.47759341 C65.8447897,2.78288658 67.0019672,3.85634864 67.414476,5.27128677 L72,21" id="Path-2" stroke="#1D1D1D" stroke-width="2" stroke-linecap="round" stroke-linejoin="round"></path>
            </g>
            <rect id="Rectangle" stroke="#1D1D1D" stroke-width="2" fill="#FFFFFF" x="2" y="19" width="8" height="7" rx="2"></rect>
            <rect id="Rectangle-Copy" stroke="#1D1D1D" stroke-width="2" fill="#FFFFFF" x="72" y="19" width="8" height="7" rx="2"></rect>
            <circle id="Oval" stroke="#1D1D1D" stroke-width="2" fill="#FFFFFF" stroke-linecap="round" stroke-linejoin="round" cx="23.5" cy="32.5" r="4.5"></circle>
            <circle id="Oval-Copy" stroke="#1D1D1D" stroke-width="2" fill="#FFFFFF" stroke-linecap="round" stroke-linejoin="round" cx="56.5" cy="32.5" r="4.5"></circle>
            <path d="M35,30 L35,36" id="Line-10" stroke="#1D1D1D" stroke-width="2" stroke-linecap="round"></path>
            <path d="M40,30 L40,36" id="Line-10-Copy" stroke="#1D1D1D" stroke-width="2" stroke-linecap="round"></path>
            <path d="M45,30 L45,36" id="Line-10-Copy-2" stroke="#1D1D1D" stroke-width="2" stroke-linecap="round"></path>
        </g>
    </g>
</svg>