<?xml version="1.0" encoding="UTF-8"?>
<svg width="86px" height="86px" viewBox="0 0 86 86" version="1.1" xmlns="http://www.w3.org/2000/svg" xmlns:xlink="http://www.w3.org/1999/xlink">
    <!-- Generator: Sketch 52.2 (67145) - http://www.bohemiancoding.com/sketch -->
    <title>category-comedy</title>
    <desc>Created with Sketch.</desc>
    <g id="category-comedy" stroke="none" stroke-width="1" fill="none" fill-rule="evenodd">
        <g id="Group" transform="translate(10.000000, 10.000000)">
            <circle id="Oval-Copy-3" fill="#FFFFFF" cx="33" cy="33" r="33"></circle>
            <circle id="Oval" stroke="#1D1D1D" stroke-width="2" stroke-linecap="round" stroke-linejoin="round" cx="33" cy="33" r="33"></circle>
            <path d="M33,56 C42.9411255,56 51,47.9411255 51,38 C51,38 15,38 15,38 C15,47.9411255 23.0588745,56 33,56 Z" id="Oval-Copy" stroke="#1D1D1D" stroke-width="2" fill="#FFFFFF" stroke-linecap="round" stroke-linejoin="round"></path>
            <polyline id="Path-6" stroke="#1D1D1D" stroke-width="2" stroke-linecap="round" stroke-linejoin="round" points="23.0010297 19 28.0005148 23.9994852 23 29"></polyline>
            <polyline id="Path-6-Copy" stroke="#1D1D1D" stroke-width="2" stroke-linecap="round" stroke-linejoin="round" transform="translate(40.500257, 24.000000) scale(-1, 1) translate(-40.500257, -24.000000) " points="38.0010297 19 43.0005148 23.9994852 38 29"></polyline>
            <path d="M51.0710678,44.0710678 C53.2802068,44.0710678 55.0710678,42.2802068 55.0710678,40.0710678 C55.0710678,38.5983085 53.7377345,35.9316418 51.0710678,32.0710678 C48.4044011,35.9316418 47.0710678,38.5983085 47.0710678,40.0710678 C47.0710678,42.2802068 48.8619288,44.0710678 51.0710678,44.0710678 Z" id="Oval" stroke="#1D1D1D" stroke-width="2" fill="#FFFFFF" transform="translate(51.071068, 38.071068) rotate(-45.000000) translate(-51.071068, -38.071068) "></path>
            <path d="M15.0710678,44.0710678 C17.2802068,44.0710678 19.0710678,42.2802068 19.0710678,40.0710678 C19.0710678,38.5983085 17.7377345,35.9316418 15.0710678,32.0710678 C12.4044011,35.9316418 11.0710678,38.5983085 11.0710678,40.0710678 C11.0710678,42.2802068 12.8619288,44.0710678 15.0710678,44.0710678 Z" id="Oval-Copy-2" stroke="#1D1D1D" stroke-width="2" fill="#FFFFFF" transform="translate(15.071068, 38.071068) scale(-1, 1) rotate(-45.000000) translate(-15.071068, -38.071068) "></path>
        </g>
    </g>
</svg>