<?xml version="1.0" encoding="UTF-8"?>
<svg width="86px" height="86px" viewBox="0 0 86 86" version="1.1" xmlns="http://www.w3.org/2000/svg" xmlns:xlink="http://www.w3.org/1999/xlink">
    <!-- Generator: Sketch 52.2 (67145) - http://www.bohemiancoding.com/sketch -->
    <title>category-pets-and-animals</title>
    <desc>Created with Sketch.</desc>
    <g id="category-pets-and-animals" stroke="none" stroke-width="1" fill="none" fill-rule="evenodd">
        <g id="dog" transform="translate(5.000000, 5.000000)">
            <g id="Group" stroke="#1D1D1D" stroke-linecap="round" stroke-linejoin="round" stroke-width="2">
                <path d="M25.537422,2.96910751 C18.3533264,7.28048276 12.9230769,16.8669047 9.40680873,35.3878256 C9.39651767,35.4431156 9.38591476,35.4985619 9.37546778,35.5541643 C8.78529106,38.6825822 8.36070686,43.2905558 8.54407484,47.6609696 C11.3845634,42.6284807 17.6998441,39.2159594 27.7557692,41.1800061 C27.7557692,39.2971765 29.2783784,37.7709209 31.156341,37.7709209 L43.6974012,37.7809168 C44.5559252,37.7807606 45.4149168,38.1053164 46.0752599,38.7564584 C46.7575884,39.4293103 47.0959459,40.320355 47.0883056,41.2095254 C57.1442308,39.2453225 63.4596674,42.658 66.3,47.6904888 C66.3079522,47.5033773 66.3148129,47.2864341 66.3204262,47.0985416 C66.4467256,42.8988398 66.0338358,38.5487302 65.468763,35.5543205 C65.458316,35.4987181 65.447869,35.443428 65.4372661,35.3879817 C61.9213098,16.8669047 56.4910603,7.28048276 49.3069647,2.96910751 C45.7651247,0.843563895 41.7969854,0 37.4221933,0 C33.0470894,0 29.079106,0.843407708 25.537422,2.96910751 Z" id="Path"></path>
                <g id="Path">
                    <path d="M3.41803534,12.1221116 C-4.16569647,20.9725822 2.23238046,31.7663266 9.40680873,35.3878256 C12.9230769,16.8669047 18.3533264,7.28048276 25.537422,2.96910751 C24.1468815,2.00731034 22.960447,1.20888438 22.6336279,1.05800811 C14.5839917,-2.66017039 10.3827443,3.99400406 3.41803534,12.1221116 Z"></path>
                    <path d="M49.3069647,2.96910751 C56.4910603,7.28048276 61.9213098,16.8669047 65.4372661,35.3878256 C72.6120062,31.7663266 79.0100832,20.9725822 71.4263514,12.1219554 C64.4616424,3.99400406 60.260395,-2.66032657 52.2107588,1.05785193 C51.8837838,1.20888438 50.6975052,2.00731034 49.3069647,2.96910751 Z"></path>
                </g>
                <path d="M44,37 L31.4589397,36.9892483 C29.5808212,36.9892483 27.7557692,38.4125845 27.7557692,40.4376019 C27.7557692,41.5351163 28.2031185,42.5200737 28.9117983,43.1920556 L35.0092516,49.9036427 C36.3469335,51.3702432 38.5008836,51.3526037 39.8444906,49.9036427 L46.1150208,43.0015488 C46.7572765,42.2974797 47.0809771,41.3842564 47.0883056,40.469185 C47.0959459,39.5127868 46.7575884,38.5543726 46.0752599,37.8306481 C45.4149168,37.130443 44.8585239,36.999832 44,37 Z" id="Path" fill="#FFFFFF"></path>
                <path d="M39.8444906,49.980497 C38.5008836,51.3276065 36.3469335,51.3440061 35.0092516,49.980497 L28.9117983,43.7406856 C28.2031185,43.1159391 27.7557692,42.200217 27.7557692,41.1798499 C17.6998441,39.2158032 11.3845634,42.6284807 8.54407484,47.6608134 C2.98861746,57.5035375 10.7256237,73.5426531 29.7676715,67.6722231 C32.1442827,66.9395517 34.6970894,65.8654564 37.4221933,64.3955842 L37.4218815,64.4249473 C40.1471414,65.8949757 42.699948,66.969071 45.0767152,67.7017424 C64.1182952,73.5720162 71.8553015,57.5330568 66.3,47.6903327 C63.4596674,42.6578438 57.1442308,39.2451663 47.0883056,41.2093692 C47.0809771,42.0601176 46.7572765,42.9091481 46.1150208,43.5637262 L39.8444906,49.980497 Z" id="Path" fill="#FFFFFF"></path>
                <path d="M45.0767152,67.7015862 C42.699948,66.9689148 40.1471414,65.8948195 37.4218815,64.4247911 L37.4221933,64.395428 C34.6970894,65.8654564 32.1442827,66.9395517 29.7676715,67.6720669 L29.7676715,69.1703651 C29.7676715,73.3908398 33.2122141,76.8439696 37.4221933,76.8439696 C41.6321726,76.8439696 45.0767152,73.3908398 45.0767152,69.1703651 L45.0767152,67.7015862 Z" id="Path"></path>
            </g>
            <path d="M41.7853943,29.7958976 C42.5245505,30.2280106 43.458036,29.9512208 43.8707558,29.1776536 C44.5187244,27.9634691 45.7178034,27.2091568 47.0001007,27.2091568 C48.282398,27.2091568 49.4813238,27.9634691 50.1292924,29.1776536 C50.4100583,29.7036344 50.9312837,30 51.4686011,30 C51.7214744,30 51.978179,29.9342123 52.2146538,29.7958976 C52.9535035,29.3636242 53.217871,28.386115 52.8051512,27.6125478 C51.6161871,25.3842698 49.3916687,24 46.9999475,24 C44.6082262,24 42.3837078,25.3842698 41.1947437,27.6125478 C40.7821771,28.386115 41.0465446,29.3636242 41.7853943,29.7958976 Z" id="Path" fill="#000000"></path>
            <path d="M26.9999944,24 C24.608185,24 22.3838803,25.3842698 21.1949486,27.6125478 C20.7820867,28.3862755 21.046447,29.3636242 21.7852766,29.7958976 C22.5242595,30.2280106 23.4580261,29.9512208 23.8705814,29.1776536 C24.5185324,27.9634691 25.7175788,27.2091568 26.9999944,27.2091568 C28.2824101,27.2091568 29.4813033,27.9634691 30.129101,29.1776536 C30.4098593,29.7036344 30.9310705,30 31.4685265,30 C31.7213929,30 31.9779374,29.9342123 32.214559,29.7960581 C32.9533886,29.3639451 33.2179022,28.3862755 32.8051936,27.6127083 C31.6161086,25.3841093 29.3916507,24 26.9999944,24 Z" id="Path" fill="#000000"></path>
            <path d="M19.5,48 C18.6738,48 18,48.6738 18,49.5 C18,50.3262 18.6738,51 19.5,51 C20.3262,51 21,50.3262 21,49.5 C21,48.67395 20.3262,48 19.5,48 Z" id="Path" fill="#000000"></path>
            <path d="M16.5,57 C15.6738,57 15,57.6738 15,58.5 C15,59.3262 15.6738,60 16.5,60 C17.3262,60 18,59.3262 18,58.5 C18,57.67395 17.3262,57 16.5,57 Z" id="Path" fill="#000000"></path>
            <path d="M25.5,55 C24.6738,55 24,55.6738 24,56.5 C24,57.3262 24.6738,58 25.5,58 C26.3262,58 27,57.3262 27,56.5 C27,55.67395 26.3262,55 25.5,55 Z" id="Path" fill="#000000"></path>
            <path d="M54.5,48 C53.6738,48 53,48.6738 53,49.5 C53,50.3262 53.6738,51 54.5,51 C55.3262,51 56,50.3262 56,49.5 C56,48.67395 55.3262,48 54.5,48 Z" id="Path" fill="#000000"></path>
            <path d="M57.5,57 C56.6738,57 56,57.6738 56,58.5 C56,59.3262 56.6738,60 57.5,60 C58.3262,60 59,59.3262 59,58.5 C59,57.67395 58.3262,57 57.5,57 Z" id="Path" fill="#000000"></path>
            <path d="M48.5,55 C47.6738,55 47,55.6738 47,56.5 C47,57.3262 47.6738,58 48.5,58 C49.3262,58 50,57.3262 50,56.5 C50,55.67395 49.3262,55 48.5,55 Z" id="Path" fill="#000000"></path>
            <path d="M23.8277643,16.1820647 C23.8286606,16.1802791 23.8361299,16.1655483 23.8383707,16.1609356 C24.2106372,15.4293024 23.9181421,14.5350344 23.1839164,14.1624475 C22.4489439,13.7894143 21.5493495,14.0806094 21.1746927,14.8129866 C21.1739458,14.8146233 21.1613975,14.8396212 21.1605012,14.8412579 C20.7888321,15.5749743 21.0846138,16.4698375 21.8210802,16.8400436 C22.036941,16.9485164 22.2665452,17 22.492863,17 C23.0387146,16.9998512 23.5648473,16.7006211 23.8277643,16.1820647 Z" id="Path" fill="#000000"></path>
            <path d="M24.4689586,12.7768284 C24.6565394,12.9276747 24.8704378,13 25.0822784,13 C25.4265736,13 25.765237,12.808692 25.9752365,12.4525025 C27.1876884,10.3966684 29.4633508,7.97971359 31.17313,7.493288 C31.7542838,7.32790077 32.1106006,6.64397146 31.9689403,5.9654792 C31.82728,5.28711337 31.2417941,4.87061067 30.6602071,5.03637723 C28.0674336,5.77404474 25.3710142,9.01793573 24.1911614,11.0183879 C23.8518482,11.5934499 23.9762883,12.3808094 24.4689586,12.7768284 Z" id="Path" fill="#000000"></path>
        </g>
    </g>
</svg>