<?xml version="1.0" encoding="UTF-8"?>
<svg width="86px" height="86px" viewBox="0 0 86 86" version="1.1" xmlns="http://www.w3.org/2000/svg" xmlns:xlink="http://www.w3.org/1999/xlink">
    <!-- Generator: Sketch 52.2 (67145) - http://www.bohemiancoding.com/sketch -->
    <title>category-beauty&amp;fashion</title>
    <desc>Created with Sketch.</desc>
    <g id="category-beauty&amp;fashion" stroke="none" stroke-width="1" fill="none" fill-rule="evenodd" stroke-linecap="round" stroke-linejoin="round">
        <g id="Group" transform="translate(8.000000, 10.000000)" fill="#FFFFFF" stroke="#1D1D1D" stroke-width="2">
            <circle id="Oval" cx="38.5" cy="31.5" r="31.5"></circle>
            <circle id="Oval-Copy" cx="38.5" cy="31.5" r="24.5"></circle>
            <rect id="Rectangle" x="0" y="30" width="19" height="40" rx="2"></rect>
            <path d="M4,23 L15,23 C16.1045695,23 17,23.8954305 17,25 L17,30 L2,30 L2,25 C2,23.8954305 2.8954305,23 4,23 Z" id="Rectangle-Copy"></path>
            <path d="M5.47885213,2.80664662 L13.9577043,7.43147505 C14.6002259,7.78194139 15,8.45537776 15,9.1872662 L15,23 L4,23 L4,3.68454219 C4,3.13225744 4.44771525,2.68454219 5,2.68454219 C5.16731899,2.68454219 5.33196353,2.72652556 5.47885213,2.80664662 Z" id="Rectangle-Copy-2"></path>
            <path d="M19,56 L65,56 C66.1045695,56 67,56.8954305 67,58 L67,61 C67,63.7614237 64.7614237,66 62,66 L19,66 L19,56 Z" id="Rectangle"></path>
            <path d="M54.2670273,28 L35,47" id="Path-11"></path>
            <path d="M53,37 L44,46" id="Path-11-Copy"></path>
        </g>
    </g>
</svg>