<?xml version="1.0" encoding="UTF-8"?>
<svg width="86px" height="86px" viewBox="0 0 86 86" version="1.1" xmlns="http://www.w3.org/2000/svg" xmlns:xlink="http://www.w3.org/1999/xlink">
    <!-- Generator: Sketch 52.2 (67145) - http://www.bohemiancoding.com/sketch -->
    <title>category-sports-hover</title>
    <desc>Created with Sketch.</desc>
    <g id="category-sports-hover" stroke="none" stroke-width="1" fill="none" fill-rule="evenodd">
        <ellipse id="Oval" fill="#61A465" cx="43" cy="69.5" rx="38" ry="9.5"></ellipse>
        <ellipse id="Oval-Copy" fill="#356D38" cx="43" cy="69.5" rx="24" ry="5.5"></ellipse>
        <polygon id="Path-29" fill="#FFFFFF" points="33 49 23 59 29 68 35 71 39 72 44 72 49 72 55 65 48 55"></polygon>
        <polygon id="Path-30" fill="#607D8B" points="55 65 49 71 56 69 62 65"></polygon>
        <polygon id="Path-31" fill="#FFFFFF" points="58 40 48 54 55 64 63 64 69 57 72 52 73 47 67 40"></polygon>
        <polygon id="Path-32" fill="#607D8B" points="47 26 32 33 32 49 48 54 58 40"></polygon>
        <polygon id="Path-33" fill="#607D8B" points="23 59 15 55 20.9994852 63 27 67"></polygon>
        <polygon id="Path-34" fill="#607D8B" points="72 31 67 40 73 47 74 39"></polygon>
        <polygon id="Path-35" fill="#607D8B" points="49 17 58 15 56 13 50 11 44 11 43 11 43 12"></polygon>
        <polygon id="Path-36" fill="#607D8B" points="22 27 13 34 16 26 20 21 22 19"></polygon>
        <g id="Group" transform="translate(12.000000, 10.000000)" stroke="#1D1D1D" stroke-linecap="round" stroke-linejoin="round" stroke-width="2">
            <circle id="Oval" cx="31" cy="31" r="31"></circle>
            <polyline id="Path-18" points="20 40 11 49 17 59"></polyline>
            <polyline id="Path-20" points="3 45 11 49 20 40 20 23 10 17 1 24"></polyline>
            <polygon id="Path-21" points="20 39 36 44 46 30 35 16 20 23"></polygon>
            <polyline id="Path-22" points="36 44 43 55 52 53.83"></polyline>
            <path d="M60,20 L55,30" id="Path-23"></path>
            <polyline id="Path-24" points="46 5 37 7 35 16"></polyline>
            <path d="M29,1 L37,7" id="Path-25"></path>
            <path d="M10,9 L10,17" id="Path-26"></path>
            <path d="M43,55 L37,61" id="Path-27"></path>
            <polyline id="Path-28" points="46 30 55 30 61.0598871 38"></polyline>
        </g>
    </g>
</svg>