<?xml version="1.0" encoding="UTF-8"?>
<svg width="86px" height="86px" viewBox="0 0 86 86" version="1.1" xmlns="http://www.w3.org/2000/svg" xmlns:xlink="http://www.w3.org/1999/xlink">
    <!-- Generator: Sketch 52.2 (67145) - http://www.bohemiancoding.com/sketch -->
    <title>howto_color_icon</title>
    <desc>Created with Sketch.</desc>
    <g id="howto_color_icon" stroke="none" stroke-width="1" fill="none" fill-rule="evenodd">
        <g id="Group" transform="translate(43.589358, 42.589358) rotate(-315.000000) translate(-43.589358, -42.589358) translate(-4.910642, -5.910642)">
            <path d="M50.3681037,1.8858096 L55,14 L42,14 L46.6318963,1.8858096 C47.0263795,0.85408443 48.1825498,0.337497708 49.2142749,0.73198086 C49.7454273,0.93506853 50.165016,1.35465723 50.3681037,1.8858096 Z" id="Triangle" stroke="#1D1D1D" stroke-width="2" stroke-linecap="round" stroke-linejoin="round"></path>
            <path d="M50.3681037,1.8858096 L52.3242299,7.00183212 L44.6719617,7.01179258 L46.6318963,1.8858096 C47.0263795,0.85408443 48.1825498,0.337497708 49.2142749,0.73198086 C49.7454273,0.93506853 50.165016,1.35465723 50.3681037,1.8858096 Z" id="Triangle-Copy" stroke="#1D1D1D" stroke-width="2" fill="#54586A" stroke-linecap="round" stroke-linejoin="round"></path>
            <path d="M2,38 L42,38 L42,60 L2,60 C0.8954305,60 3.63811408e-12,59.1045695 3.63797881e-12,58 L3.63775676e-12,40 C3.63762149e-12,38.8954305 0.8954305,38 2,38 Z" id="Rectangle-Copy-7" fill="#33B8E1"></path>
            <path d="M57,38 L97,38 L97,60 L57,60 C55.8954305,60 55,59.1045695 55,58 L55,40 C55,38.8954305 55.8954305,38 57,38 Z" id="Rectangle-Copy-6" fill="#33B8E1" transform="translate(76.000000, 49.000000) scale(-1, 1) translate(-76.000000, -49.000000) "></path>
            <path d="M2,54 L42,54 L42,60 L2,60 C0.8954305,60 2.48348213e-12,59.1045695 2.48334686e-12,58 L2.48290277e-12,56 C2.4827675e-12,54.8954305 0.8954305,54 2,54 Z" id="Rectangle-Copy-9" fill="#058CC4"></path>
            <path d="M2,38 L42,38 L42,60 L2,60 C0.8954305,60 3.63811408e-12,59.1045695 3.63797881e-12,58 L3.63775676e-12,40 C3.63762149e-12,38.8954305 0.8954305,38 2,38 Z" id="Rectangle" stroke="#1D1D1D" stroke-width="2" stroke-linecap="round" stroke-linejoin="round"></path>
            <path d="M57,54 L97,54 L97,60 L57,60 C55.8954305,60 55,59.1045695 55,58 L55,56 C55,54.8954305 55.8954305,54 57,54 Z" id="Rectangle-Copy-8" fill="#058CC4" transform="translate(76.000000, 57.000000) scale(-1, 1) translate(-76.000000, -57.000000) "></path>
            <path d="M43,14 L54,14 C54.5522847,14 55,14.4477153 55,15 L55,79 C55,80.1045695 54.1045695,81 53,81 L44,81 C42.8954305,81 42,80.1045695 42,79 L42,15 C42,14.4477153 42.4477153,14 43,14 Z" id="Rectangle-Copy" fill="#AD7B64"></path>
            <path d="M57,38 L97,38 L97,60 L57,60 C55.8954305,60 55,59.1045695 55,58 L55,40 C55,38.8954305 55.8954305,38 57,38 Z" id="Rectangle-Copy-3" stroke="#1D1D1D" stroke-width="2" stroke-linecap="round" stroke-linejoin="round" transform="translate(76.000000, 49.000000) scale(-1, 1) translate(-76.000000, -49.000000) "></path>
            <path d="M43,14 L46,14 C46.5522847,14 47,14.4477153 47,15 L47,79 C47,80.1045695 46.1045695,81 45,81 L44,81 C42.8954305,81 42,80.1045695 42,79 L42,15 C42,14.4477153 42.4477153,14 43,14 Z" id="Rectangle-Copy-5" fill="#8C5A4B"></path>
            <path d="M43,87 L54,87 C54.5522847,87 55,87.4477153 55,88 L55,95 C55,96.1045695 54.1045695,97 53,97 L44,97 C42.8954305,97 42,96.1045695 42,95 L42,88 C42,87.4477153 42.4477153,87 43,87 Z" id="Rectangle-Copy-2" fill="#FF5050"></path>
            <path d="M43,87 L46,87 C46.5522847,87 47,87.4477153 47,88 L47,95 C47,96.1045695 46.1045695,97 45,97 L44,97 C42.8954305,97 42,96.1045695 42,95 L42,88 C42,87.4477153 42.4477153,87 43,87 Z" id="Rectangle-Copy-10" fill="#DC3939"></path>
            <path d="M43,81 L54,81 C54.5522847,81 55,81.4477153 55,82 L55,85 C55,86.1045695 54.1045695,87 53,87 L44,87 C42.8954305,87 42,86.1045695 42,85 L42,82 C42,81.4477153 42.4477153,81 43,81 Z" id="Rectangle-Copy-4" fill="#E4EAF8"></path>
            <path d="M43,14 L54,14 C54.5522847,14 55,14.4477153 55,15 L55,95 C55,96.1045695 54.1045695,97 53,97 L44,97 C42.8954305,97 42,96.1045695 42,95 L42,15 C42,14.4477153 42.4477153,14 43,14 Z" id="Rectangle" stroke="#1D1D1D" stroke-width="2" stroke-linecap="round" stroke-linejoin="round"></path>
            <path d="M43.2034894,87 L53.6101595,87" id="Line-8" stroke="#1D1D1D" stroke-width="2" stroke-linecap="round" stroke-linejoin="round"></path>
            <path d="M43.2034894,81 L53.6101595,81" id="Line-8-Copy-3" stroke="#1D1D1D" stroke-width="2" stroke-linecap="round" stroke-linejoin="round"></path>
            <path d="M6,54 L42.3298038,54" id="Line-8-Copy" stroke="#1D1D1D" stroke-width="2" stroke-linecap="round" stroke-linejoin="round"></path>
            <path d="M55.8720703,54 L91,54" id="Line-8-Copy-2" stroke="#1D1D1D" stroke-width="2" stroke-linecap="round" stroke-linejoin="round"></path>
            <path d="M11,40 L11,44" id="Line-9" stroke="#1D1D1D" stroke-width="2" stroke-linecap="round" stroke-linejoin="round"></path>
            <path d="M21,40 L21,44" id="Line-9-Copy" stroke="#1D1D1D" stroke-width="2" stroke-linecap="round" stroke-linejoin="round"></path>
            <path d="M31,40 L31,44" id="Line-9-Copy-2" stroke="#1D1D1D" stroke-width="2" stroke-linecap="round" stroke-linejoin="round"></path>
            <path d="M65,40 L65,44" id="Line-9-Copy-5" stroke="#1D1D1D" stroke-width="2" stroke-linecap="round" stroke-linejoin="round"></path>
            <path d="M75,40 L75,44" id="Line-9-Copy-4" stroke="#1D1D1D" stroke-width="2" stroke-linecap="round" stroke-linejoin="round"></path>
            <path d="M85,40 L85,44" id="Line-9-Copy-3" stroke="#1D1D1D" stroke-width="2" stroke-linecap="round" stroke-linejoin="round"></path>
        </g>
        <path d="M20.9619408,65.0056676 L63,22.7903679" id="Path-5" stroke="#1D1D1D" stroke-width="2" stroke-linecap="round"></path>
    </g>
</svg>