<svg width="479" height="423" viewBox="0 0 479 423" xmlns="http://www.w3.org/2000/svg">
  <g fill="none" fill-rule="evenodd">
    <path d="M276.677 0c28.716 22.492 95.773 21.837 138.346 57.294 45.97 38.285 68.515 176.895-22.78 246.22-113.733 86.36-242.995 38.823-260.08-29.993-17.086-68.815-20.665-168.093-79.733-184.254C32.473 83.807 14.996 76.664 0 67.84V0h276.677z" fill="#1C1A59"/>
    <path d="M0 264.598c34.054-12.301 78.196 25.501 114.846 3.257 43.822-26.596-2.343-102.515 46.858-108.977 49.202-6.462 118.318 21.003 110.118 140.616-8.2 119.612-196.806 125.382-243.665 96.087C18.03 389.25 8.445 382.198 0 374.6v-110z" fill-opacity=".3" fill="#2F2D73"/>
    <path d="M88.457 422.958c13.275 0 19.403-11.144 19.403-23.946 0-12.802-9.267-18.782-18.245-19.009C80.638 379.777 65 390.608 65 403.41c0 12.801 10.182 19.548 23.457 19.548zM46.574 376.573c4.506-2.51 9.318-2.168 11.892 2.136 2.575 4.304-.555 10.903-3.647 12.525-3.093 1.622-7.44 1.364-10.014-2.94-2.575-4.304-2.736-9.21 1.77-11.72z" fill="#5F6CFF"/>
    <path d="M446.064 165.48c-10.99 0-16.064-9.983-16.064-21.45 0-11.467 7.672-16.824 15.105-17.027 7.433-.203 20.38 9.499 20.38 20.966s-8.43 17.51-19.42 17.51zM475.634 120.41c-3.73-2.25-7.714-1.943-9.846 1.912-2.131 3.855.46 9.767 3.02 11.22 2.56 1.452 6.16 1.221 8.291-2.634 2.132-3.855 2.265-8.25-1.465-10.499z" fill="#F946A0"/>
  </g>
</svg>
