<svg width="548" height="450" viewBox="0 0 548 450" xmlns="http://www.w3.org/2000/svg">
  <g fill="none" fill-rule="evenodd">
    <path d="M0 449.792V333.688c14.772-15.424 34.5-25.978 59.183-31.664 90.786-20.91 105.013 25.306 178.91 4.289 73.895-21.017 97.64-125.276 181.442-153.45 49.364-16.597 92.186-14.176 128.465 7.263v289.666H0z" fill="#F5D9DF"/>
    <path d="M443 171.824c48.67 0 86-33.186 86-82.006s-48.84-80.94-81.753-81.805C414.333 7.15 357 48.453 357 97.273c0 48.82 37.33 74.551 86 74.551z" fill-opacity=".5" fill="#171550"/>
    <g transform="translate(75)">
      <path d="M78.299 242c-4.065 0-8.121-.398-12.109-1.19-24.539-4.86-44.198-24.807-53.838-54.723-4.702-14.535 3.253-30.136 17.766-34.845 14.514-4.708 30.091 3.258 34.792 17.794 3.27 10.144 8.674 16.83 11.97 17.522 5.102.996 21.796-5.349 48.351-36.694a27.6 27.6 0 0 1 26.054-9.423 27.635 27.635 0 0 1 21.117 17.954 27.699 27.699 0 0 1-5.054 27.277C135.342 223.445 106.07 242 78.298 242z" fill="#FFCE00"/>
      <path d="M78.263 243a63.433 63.433 0 0 1-12.29-1.21c-24.879-4.94-44.78-25.139-54.575-55.412-4.862-15.047 3.365-31.195 18.377-36.069 15.012-4.873 31.123 3.373 35.985 18.42 3.455 10.685 8.79 16.402 11.315 16.9 2.331.463 7.62-.923 15.452-6.095 9.462-6.27 20.547-16.762 32.055-30.338a28.527 28.527 0 0 1 26.937-9.738 28.582 28.582 0 0 1 21.829 18.578 28.681 28.681 0 0 1-5.221 28.222C135.731 224.437 106.375 243 78.263 243zm-39.666-92.252a26.7 26.7 0 0 0-21.662 11.036 26.834 26.834 0 0 0-3.786 24.058c9.573 29.627 28.959 49.382 53.173 54.184A61.53 61.53 0 0 0 78.3 241.2c27.532 0 56.463-18.35 88.454-56.105a26.83 26.83 0 0 0 4.96-26.445 26.738 26.738 0 0 0-20.464-17.417 26.687 26.687 0 0 0-25.23 9.193c-26.786 31.621-43.564 38.179-49.268 37.052-4.174-.831-9.637-8.626-12.715-18.138-3.561-11.044-13.814-18.531-25.393-18.545l-.047-.046z" fill="#373535" fill-rule="nonzero"/>
      <ellipse fill="#E03493" transform="rotate(-81.59 168.209 48.709)" cx="168.209" cy="48.709" rx="15.818" ry="18.421"/>
      <path d="M166.03 65.758c-10.671-1.583-18.231-10.383-16.872-19.621 1.36-9.238 11.173-15.468 21.815-13.894 10.642 1.574 18.221 10.42 16.871 19.621-1.35 9.2-11.154 15.468-21.815 13.894zm4.655-31.662c-9.628-1.434-18.464 4.098-19.665 12.292-1.2 8.195 5.643 16.073 15.298 17.498 9.655 1.425 18.491-4.097 19.701-12.32 1.21-8.223-5.66-16.054-15.307-17.479l-.027.01z" fill="#373535" fill-rule="nonzero"/>
      <path d="M202.222 107s60.327 20.86 70.768 50.329c10.44 29.468-9.191 98.199-14.705 117.218-5.515 19.02-129.285 0-129.285 0s6.433-67.765 6.13-86.535c-.469-29.901 5.974-48.488 15.165-55.236 9.19-6.747 51.927-25.776 51.927-25.776z" fill="#FFBC00"/>
      <path d="M222.7 284c-8.79 0-19.192-.451-31.203-1.354-31.342-2.359-62.407-7.104-62.72-7.15a.921.921 0 0 1-.773-.995c.064-.682 6.441-67.976 6.128-86.504-.432-28.026 5.236-48.452 15.56-56.035 9.203-6.735 50.436-25.115 52.184-25.898a.92.92 0 0 1 .672 0 238.438 238.438 0 0 1 31.645 14.188c21.974 11.931 35.354 24.296 39.752 36.743 7.003 19.8 1.914 60.559-14.723 117.884-1.757 6.09-13.775 9.121-36.522 9.121zm-92.782-10.19c34.866 5.298 123.25 15.386 127.556.525 20.86-71.946 19.526-103.189 14.723-116.75-5.291-14.954-24.063-27.64-38.878-35.73a238.374 238.374 0 0 0-31.029-13.958c-4.02 1.843-42.917 19.237-51.53 25.548-9.837 7.224-15.238 27.097-14.806 54.525.295 17.468-5.29 77.861-6.036 85.84z" fill="#373535" fill-rule="nonzero"/>
      <path d="M110 350.87s-18.078 8.49-37.505 5.487c-19.428-3.005-31.364-12.791-30.446-20.03.919-7.586 6.73-10.823 27.544-12.13 20.814-1.305 40.398 4.283 40.398 4.283l.009 22.39z" fill="#BEC0C2"/>
      <path d="M81.025 357a58.344 58.344 0 0 1-8.678-.628c-20.578-3.094-32.266-13.077-31.29-20.548 1.086-8.299 7.997-11.375 28.464-12.63 20.772-1.275 40.613 4.158 40.807 4.213.41.113.687.49.671.91v21.84a.91.91 0 0 1-.533.828A79.583 79.583 0 0 1 81.026 357zm-4.988-32.178c-2.107 0-4.252.055-6.442.191-21.572 1.33-25.934 4.76-26.753 11.048-.414 3.167 2.282 7.07 7.224 10.447 5.651 3.867 13.648 6.734 22.52 8.071 17.136 2.576 33.416-3.74 36.536-5.05V328.98a143.933 143.933 0 0 0-33.085-4.159z" fill="#373535" fill-rule="nonzero"/>
      <circle fill="#EFBDC0" cx="167" cy="98" r="52"/>
      <path d="M167 151c-29.271 0-53-23.729-53-53s23.729-53 53-53 53 23.729 53 53c-.03 29.258-23.742 52.97-53 53zm0-104.153c-28.256 0-51.162 22.906-51.162 51.162s22.906 51.162 51.162 51.162 51.162-22.906 51.162-51.162c-.025-28.247-22.915-51.14-51.162-51.171v.01z" fill="#373535" fill-rule="nonzero"/>
      <path d="M115.62 108.39s12.73 1.075 30.442-2.861c17.712-3.937 32.657-15.663 38.19-13.19 5.534 2.473 4.43 25.934 0 29.64-4.43 3.704-19.504 6.177-32.445 0-12.942-6.179-6.434 4.464-12.39 7.103-5.956 2.64-14.394 2.473-19.376 0-4.982-2.473-12.638-20.747-4.421-20.691z" fill="#1C1C1C"/>
      <path d="M160 46.87c-12.378-6.88-18.47-24.767-28.423-36.855-9.953-12.087-49.588-14.996-55.8 10.223C66.841 56.51 137.964 67 137.964 67L160 46.87z" fill="#F946A0"/>
      <path d="M137.172 67.991a161.664 161.664 0 0 1-24.053-5.96C95.914 56.3 84.2 48.914 78.286 40.074a24.501 24.501 0 0 1-3.474-20.103c2.347-9.654 9.753-16.374 20.836-18.91 13.365-3.064 29.855.74 36.006 8.33 3.6 4.695 6.863 9.644 9.762 14.81 5.409 9.08 10.514 17.66 18.113 21.936a.93.93 0 0 1 .174 1.49L137.916 67.76a.91.91 0 0 1-.743.231zM112.597 2.358a45.345 45.345 0 0 0-16.5.518c-10.377 2.379-17.288 8.608-19.47 17.586a22.71 22.71 0 0 0 3.218 18.623c12.796 19.169 52.57 26.25 57.153 27.009l20.579-19.04c-7.443-4.71-12.66-13.467-17.7-21.954a123.034 123.034 0 0 0-9.616-14.56c-3.346-4.119-10.093-7.053-17.664-8.182z" fill="#373535" fill-rule="nonzero"/>
      <path d="M167.117 45c-25.732.009-47.726 18.532-52.117 43.892 1.363-2.344 2.904-3.97 4.342-3.073 3.734 2.335 9.168 13.075 22.323 1.401 13.156-11.673 25.76-22.413 33.696-18.21 7.937 4.202 4.202 16.81 11.671 17.276 7.47.467 6.937-3.39 11.792-5.603 6.536-2.96 15.817 19.518 21.176 18.267v-1a52.928 52.928 0 0 0-15.477-37.43A52.905 52.905 0 0 0 167.117 45z" fill="#373535"/>
      <path d="M218.66 98.982c-2.824 0-5.878-4.116-9.382-8.828-3.503-4.713-7.842-10.547-10.602-9.28a11.676 11.676 0 0 0-3.476 2.555c-1.789 1.727-3.467 3.362-8.557 3.04-4.393-.275-5.439-4.207-6.42-8.001-.918-3.565-1.917-7.258-5.393-9.095-6.97-3.675-18.646 5.87-32.1 17.786-11.162 9.921-17.28 4.042-20.93.532a15.214 15.214 0 0 0-2.1-1.837.577.577 0 0 0-.487-.083c-.311.074-1.174.497-2.503 2.756a.916.916 0 0 1-1.697-.615c4.696-27.09 29.303-46.078 56.651-43.713 27.348 2.364 48.343 25.294 48.336 52.79v1.074a.918.918 0 0 1-.707.92c-.21.023-.422.023-.632 0zM199.484 78.89c3.669 0 7.502 5.182 11.235 10.207 2.486 3.353 5.503 7.432 7.457 8.011v-.046c-.011-25.812-19.222-47.57-44.797-50.736-25.575-3.165-49.496 13.255-55.779 38.288.35-.27.748-.466 1.174-.579a2.409 2.409 0 0 1 1.899.312 16.25 16.25 0 0 1 2.393 2.05c3.605 3.472 8.54 8.221 18.444-.58 14.437-12.861 26.112-22.296 34.137-18.043 4.182 2.214 5.31 6.486 6.31 10.253 1.064 3.996 1.834 6.43 4.788 6.642 4.274.276 5.503-.965 7.163-2.526a13.382 13.382 0 0 1 3.99-2.903 3.81 3.81 0 0 1 1.586-.35z" fill="#373535" fill-rule="nonzero"/>
      <path d="M290.73 283.213c-6.942-6.97-23.84-13.363-30.94-13.94-18.417-1.495-35.388 4.512-69.12 6.74-12.891.578-22.717.202-30.148-.715-10.562-1.926-23.353-8.933-30.6-14.188-5.792-4.2-60.353 3.595-79.194 22.112-21.18 20.81-4.153 41.171 16.575 46.6 6.898 1.835 20.48 3.944 35.27 6.494-.286 7.658 4.226 13.638 8.287 14.289 6.556 1.046 21.98-2.201 49.837-5.347 51.32 7.181 107.003 13.335 110.392 9.63 6.142-6.723 4.853-20.792 4.853-20.792-.69-.752-3.785-2.146-8.675-3.998a42.25 42.25 0 0 0 3.205-.917c25.176-7.925 38.068-28.102 20.259-45.968z" fill="#5F6CFF"/>
      <path d="M231 316.625L267.101 330a42.274 42.274 0 0 0 3.222-.928c25.317-8.041 38.276-28.447 20.346-46.487-4.554-4.638-13.376-8.95-20.939-11.585.565 4.508 2.777 5.806 9.701 12.141C310.84 311.941 231 316.625 231 316.625zM45 292.894s3.375 1.521 15.486-6.976c12.11-8.496 37.556-17.913 56.251-13.05 18.696 4.863 79.388 11.23 106.057 5.765 13.747-2.814 24.277-6.921 33.206-9.653-16.553-.164-33.344 4.926-63.847 6.92-12.874.575-22.686.201-30.108-.71-10.547-1.912-23.32-8.87-30.558-14.088-5.784-4.17-60.27 3.57-79.084 21.957A35.9 35.9 0 0 0 45 292.894z" fill="#3543A5" opacity=".3"/>
      <path d="M113.399 284.091c-25.928 2.588-9.928 9.012 36.207 18.189 46.134 9.177 87.158 26.485 91.771 35.662 3.165 6.305 2.14 10.682-5.49 16.326 20.189 1.881 34.472 2.441 36.142.615 4.881-5.341 5.075-15.308 4.946-19.19l-.415-.752s-137.233-53.438-163.161-50.85z" fill="#3543A5" opacity=".3"/>
      <path d="M262.932 357c-5.455 0-14.356-.46-29.043-1.838-19.276-1.837-45.25-4.998-73.14-8.904-10.22 1.158-18.862 2.344-25.8 3.29-12.42 1.7-19.921 2.757-24.187 2.04-4.266-.717-9.085-6.745-9.113-14.454l-8.292-1.406c-11.186-1.902-20.843-3.537-26.343-4.98-13.241-3.501-23.533-12.313-26.297-22.457-1.604-6.019-1.3-15.382 9.297-25.793 11.637-11.43 35.336-17.688 44.992-19.848 16.585-3.675 32.194-4.768 35.474-2.389 7.565 5.514 20.27 12.24 30.24 14.06a184.842 184.842 0 0 0 29.955.707c15.102-1.002 26.721-2.757 36.857-4.264 12.374-1.838 22.113-3.317 32.387-2.49 7.472.606 24.574 7.231 31.54 14.233 7.14 7.177 9.877 15.143 7.933 23.055-2.598 10.54-13.278 19.719-28.564 24.552l-.562.174c4.792 1.912 5.971 2.757 6.45 3.235.136.147.22.334.24.533.055.588 1.253 14.573-5.086 21.529-.443.505-1.272 1.415-8.938 1.415zm-102.175-12.607h.13c72.053 10.108 107.343 12.23 109.646 9.933 5.27-5.789 4.783-17.569 4.607-19.765-.58-.422-2.404-1.415-8.108-3.583a.919.919 0 0 1 .101-1.746c1.235-.313 2.295-.607 3.16-.92 14.679-4.64 24.879-13.332 27.348-23.237 1.788-7.25-.792-14.629-7.454-21.318-6.708-6.735-23.183-13.112-30.406-13.7-10.025-.818-19.71.634-31.964 2.471-10.246 1.535-21.865 3.28-37.068 4.282-10.117.582-20.265.34-30.342-.726-10.375-1.893-23.035-8.582-31.051-14.39-4.81-3.49-58.767 3.097-78.08 22.054-7.795 7.81-10.873 16.108-8.716 24.11 2.543 9.53 12.346 17.827 24.979 21.135 5.427 1.424 15.046 3.06 26.186 4.953l9.03 1.543a.92.92 0 0 1 .765.92c-.286 7.497 4.21 12.863 7.555 13.378 4 .643 11.813-.432 23.653-2.05 6.984-.918 15.664-2.15 25.965-3.307l.064-.037z" fill="#373535" fill-rule="nonzero"/>
      <path fill="#E7E8E9" d="M95 248h110v5H95z"/>
      <path d="M205.078 254H94.922c-.51 0-.922-.388-.922-.867v-4.266c0-.479.413-.867.922-.867h110.156c.51 0 .922.388.922.867v4.283c-.01.472-.42.85-.922.85zm-109.225-1.734h108.303v-2.532H95.844l.009 2.532z" fill="#373535" fill-rule="nonzero"/>
      <path d="M306.232 220c-16.851 0-33.546-5.318-49.062-15.75-15.516-10.433-25.94-23.174-31.004-29.329l-.994-1.196c-9.529-11.736-7.84-28.945 3.79-38.607 11.63-9.662 28.875-8.184 38.687 3.317l1.197 1.454c20.94 25.455 34.07 26.33 43.279 24.25 12.523-2.852 24.568-9.2 27.827-35.879a27.603 27.603 0 0 1 16.606-22.056 27.646 27.646 0 0 1 27.422 3.34 27.588 27.588 0 0 1 10.817 25.395c-2.34 19.182-8.187 35.557-17.376 48.676-12.34 17.617-30.176 29.181-53.012 34.388A81.565 81.565 0 0 1 306.232 220z" fill="#FFCE00"/>
      <path d="M306.25 221c-17.197 0-33.887-5.342-49.583-15.87-15.52-10.4-26.123-23.268-31.216-29.446l-.995-1.193c-9.93-12.094-8.215-29.906 3.842-39.897 12.058-9.991 29.945-8.423 40.067 3.513l1.198 1.45c20.623 25.012 33.463 25.893 42.37 23.865 12.205-2.754 23.95-8.94 27.127-35.063 1.12-10.188 7.65-18.99 17.097-23.041a28.637 28.637 0 0 1 28.545 3.467 28.408 28.408 0 0 1 11.043 26.458c-2.358 19.275-8.29 35.797-17.5 48.978-12.482 17.77-30.508 29.436-53.582 34.677A82.975 82.975 0 0 1 306.25 221zm-59.872-91.32c-10.35.018-19.76 5.993-24.148 15.335a26.544 26.544 0 0 0 3.654 28.301l.994 1.203c5.039 6.113 15.53 18.835 30.82 29.087 15.291 10.253 31.733 15.558 48.562 15.558a81.164 81.164 0 0 0 17.952-2.028c22.613-5.14 40.27-16.522 52.503-33.962 9.1-12.96 14.894-29.151 17.225-48.142 1.554-14.47-8.84-27.5-23.336-29.257-14.497-1.756-27.722 8.413-29.692 22.832-3.335 27.242-15.66 33.704-28.555 36.623-9.395 2.139-22.908 1.285-44.213-24.507l-1.197-1.441a26.566 26.566 0 0 0-18.091-9.491 28.487 28.487 0 0 0-2.496-.11h.018z" fill="#373535" fill-rule="nonzero"/>
      <path d="M19.305 109.145a10.397 10.397 0 0 1 8.204-6.599c9.88-1.647 15.424 4.36 17.716 8.95 1.842 3.702-.083 11.644-7.918 7.405-7.836-4.24-12.32-1.38-12.57 3.563-.22 4.258.47 11.153 3.933 11.7 0 0 .782-5.554 4.603-8.562 6.685-5.202 15.479-7.516 18.867-3.453 3.113 3.703 1.713 7.312.166 8.275-2.339 1.462-7.836 2.916-7.762 9.71.064 6.062.801 17.427-3.784 21.824-3.159 3.036-17.634 10.68-27.504 2.092-9.871-8.59-12.661-16.66-12.21-24.389.506-8.608 5.865-10.107 5.865-10.107s-2.007-15.253-2.31-18.132c-.305-2.878-.415-13.624 6.362-14.392 10.009-1.13 9.014 30.367 9.014 30.367" fill="#EFBDC0"/>
      <path d="M24.15 168.996a17.252 17.252 0 0 1-11.539-4.107c-8.99-7.711-13.1-15.834-12.565-24.844.425-7.19 4.158-9.742 5.802-10.52-.406-3.036-1.958-14.736-2.226-17.242a25.8 25.8 0 0 1 .545-8.233c1.062-4.226 3.363-6.65 6.643-7.016 1.586-.18 3.17.361 4.305 1.473 2.014 1.83 3.335 5.305 4.204 9.239a11.343 11.343 0 0 1 8.047-5.26c12.01-1.957 17.388 6.65 18.755 9.34a7.92 7.92 0 0 1-.822 8.077c3.15-.375 5.922.256 7.64 2.286a7.653 7.653 0 0 1 2.006 6.138 4.95 4.95 0 0 1-2.051 3.412c-.416.256-.924.513-1.45.778-2.653 1.335-5.96 2.991-5.905 8.031v1.912c.13 6.403.324 16.127-4.111 20.325-2.07 1.976-9.48 6.202-17.277 6.211zm-12.73-70.15h-.416c-6.717.75-5.544 13.09-5.544 13.217.305 2.8 2.3 17.746 2.32 17.902a.915.915 0 0 1-.666.997c-.185.055-4.758 1.472-5.21 9.147-.509 8.516 3.288 15.944 11.936 23.353 5.035 4.318 11.216 4.062 15.513 3.074 5.22-1.19 9.423-3.769 10.837-5.114 3.853-3.659 3.696-12.86 3.538-18.962v-1.93c-.064-6.175 4.306-8.37 6.911-9.687.518-.256.924-.485 1.312-.695a3.166 3.166 0 0 0 1.201-2.15 5.719 5.719 0 0 0-1.589-4.674c-2.772-3.275-10.865-1.656-17.656 3.549-3.492 2.67-4.268 7.82-4.277 7.867a.913.913 0 0 1-.37.603.931.931 0 0 1-.693.165c-5.183-.796-4.786-11.315-4.72-12.514a6.454 6.454 0 0 1 3.177-5.561c2.633-1.473 6.468-1.016 10.8 1.28 1.793.915 4.27 1.757 5.877.202 1.607-1.555 1.7-4.574.813-6.321-3.022-6.254-9.936-9.69-16.806-8.352-3.396.468-6.269 2.724-7.502 5.891a.914.914 0 0 1-.296.43 103.377 103.377 0 0 1 1.035 17.38.92.92 0 0 1-.952.887.92.92 0 0 1-.896-.942c0-.228.656-22.758-5.183-28.091a3.493 3.493 0 0 0-2.494-.952zm19.106 19.602a5.374 5.374 0 0 0-2.652.622 4.69 4.69 0 0 0-2.236 4.07c-.221 4.263.536 8.92 2.338 10.255.462-1.83 1.71-5.598 4.749-7.93a31.171 31.171 0 0 1 6.92-4.017 11.73 11.73 0 0 1-2.772-1.079 14.164 14.164 0 0 0-6.347-1.92z" fill="#373535" fill-rule="nonzero"/>
      <path d="M32.776 166s3.278-4.882 1.875-10.376C33.433 150.853 29 149 29 149" fill="#EFBDC0"/>
      <path d="M32.717 166.998a.912.912 0 0 1-.809-.502.952.952 0 0 1 .06-.966s3.109-4.674 1.829-9.694c-1.116-4.282-5.24-6.039-5.277-6.058a.943.943 0 0 1-.453-1.194.909.909 0 0 1 1.139-.535c3.08 1.356 5.422 4.03 6.401 7.31 1.537 5.89-1.92 11.031-2.067 11.218a.908.908 0 0 1-.823.421z" fill="#373535"/>
      <path d="M7 130.003s7.102-2.08 11.238-.249c4.806 2.136 6.925 9.453 1.785 11.966-6.767 3.285-10.56 3.552-6.6 7.28" fill="#EFBDC0"/>
      <path d="M13.398 150a.942.942 0 0 1-.646-.26c-1.059-1-2.118-2.196-1.874-3.513.281-1.576 2.09-2.354 5.087-3.661 1.087-.473 2.324-1.01 3.682-1.669a4.176 4.176 0 0 0 2.483-4.05 7.414 7.414 0 0 0-4.244-6.304c-3.813-1.687-10.606.269-10.68.287a.945.945 0 0 1-.913-.216.922.922 0 0 1-.267-.89.933.933 0 0 1 .645-.674c.31-.092 7.495-2.178 11.974-.203 3.129 1.477 5.184 4.536 5.35 7.962a6.055 6.055 0 0 1-3.533 5.747c-1.386.677-2.642 1.215-3.747 1.697-1.874.825-3.888 1.687-3.991 2.28 0 .12 0 .612 1.32 1.854a.92.92 0 0 1 .22 1.013.937.937 0 0 1-.866.581V150zM276.095 335a.92.92 0 0 1-.332-.065c-1.271-.488-127.977-48.646-162.904-51.089a.921.921 0 0 1-.857-.986.922.922 0 0 1 .986-.858c35.203 2.453 162.149 50.703 163.43 51.2a.922.922 0 0 1-.332 1.78l.009.018z" fill="#373535"/>
      <path d="M179.94 301a.927.927 0 0 1-.925-.751.91.91 0 0 1 .599-1.02c5.16-1.89 38.847-7.95 40.272-8.214a.957.957 0 0 1 .89.314.913.913 0 0 1 .168.912.941.941 0 0 1-.723.6c-.344.063-34.954 6.287-39.955 8.113a.949.949 0 0 1-.326.045z" fill="#373535"/>
      <path d="M102 336l58 9" fill="#3AACE2"/>
      <path d="M159.99 346h-.138l-58.06-9.12a.933.933 0 0 1-.727-.59.957.957 0 0 1 .137-.934.923.923 0 0 1 .866-.346l58.079 9.112a.932.932 0 0 1 .85 1.004.927.927 0 0 1-.988.865l-.019.009z" fill="#373535"/>
      <path fill="#E7E8E9" d="M96 248h109.257L253 217H144.055z"/>
      <path d="M205.284 249H95.917a.916.916 0 1 1-.496-1.687l48.093-31.166a.92.92 0 0 1 .497-.147h109.063a.916.916 0 1 1 .505 1.687l-47.79 31.166a.92.92 0 0 1-.505.147zm-106.27-1.833h105.994l44.978-29.334h-105.69l-45.282 29.334z" fill="#373535" fill-rule="nonzero"/>
      <path d="M205 249H95.092L73.23 177.743A5.216 5.216 0 0 1 78.214 171h98.999a5.215 5.215 0 0 1 4.985 3.68L205 249z" fill="#E7E8E9"/>
      <path d="M205 249s-56.802-19.603-40.014-29.723c14.543-8.766-91.757-41.534-91.757-41.534A5.216 5.216 0 0 1 78.214 171h98.997a5.216 5.216 0 0 1 4.985 3.68L205 249z" fill="#C6C6C6" opacity=".3"/>
      <path d="M266.256 330.204s5.81-10.726 16.86-3.971c11.049 6.754 26.582 8.053 34.989 14.246 19.032 14.024 19.64 37.66-5.22 28.446-24.862-9.215-36.288-12.901-44.419-11.823-8.13 1.078 6.446-9.961 6.446-16.42 0-6.46-8.656-10.478-8.656-10.478z" fill="#BEC0C2"/>
      <path d="M322.731 372a29.817 29.817 0 0 1-10.148-2.118c-24.438-9.072-35.978-12.947-44.06-11.819-1.107.157-2.666.231-3.293-.86-.867-1.498.82-3.7 3.376-7.001 2.38-3.08 5.342-6.918 5.342-9.535 0-5.826-8.072-9.636-8.146-9.673a.924.924 0 0 1-.425-1.277c.111-.203 2.768-4.957 7.86-6.344 3.248-.879 6.716-.203 10.323 2.007 5.333 3.274 11.763 5.244 17.971 7.158 6.55 2.016 12.74 3.921 17.16 7.186 11.07 8.166 16.965 20.596 13.146 27.698-1.642 3.015-4.797 4.578-9.106 4.578zm-51.376-15.972c8.303 0 19.992 3.996 41.883 12.116 8.534 3.172 14.761 2.58 16.984-1.61 3.69-6.862-3.542-18.635-12.61-25.33-4.161-3.07-10.204-4.939-16.606-6.909-6.403-1.97-12.833-3.967-18.368-7.352-3.155-1.933-6.135-2.543-8.866-1.85a11.783 11.783 0 0 0-6.217 4.624c2.352 1.304 8.302 5.142 8.302 10.867 0 3.255-3.044 7.195-5.72 10.663-1.346 1.748-3.182 4.116-3.228 4.91.472.094.958.094 1.43 0a22.455 22.455 0 0 1 3.016-.147v.018z" fill="#373535" fill-rule="nonzero"/>
      <path d="M184.177 92.34c-1.652-.729-4.134-.225-7.26.934L172 124c5.552-.43 10.059-1.868 12.177-3.67 4.498-3.708 5.664-25.497 0-27.99zM146.2 105.39c-17.785 3.94-30.567 2.871-30.567 2.871-8.251-.055-.554 17.35 4.448 19.822 5.002 2.472 13.447 2.639 19.455 0 6.008-2.64-.554-14.246 12.441-8.057 2.077.986 4.24 1.78 6.46 2.37L162 100a87.384 87.384 0 0 1-15.8 5.39zM171.512 96.136L167 123.953c.774.037 1.535.052 2.284.046L174 95l-2.488 1.136z"/>
      <path d="M161.497 100.397L158 122.661a40.704 40.704 0 0 0 8.615 1.339L171 96c-2.854 1.349-6.052 2.91-9.503 4.397zM173.746 95.29L169 124c1.041 0 2.063 0 3.057-.118L177 94c-1.022.381-2.1.836-3.254 1.29z" fill="#FFF"/>
      <ellipse fill="#DCAAB6" cx="185.5" cy="417" rx="117.5" ry="11"/>
      <path fill="#BEC0C2" d="M95 248h110v5H95z"/>
      <path d="M205.078 254H94.922c-.51 0-.922-.388-.922-.867v-4.266c0-.479.413-.867.922-.867h110.156c.51 0 .922.388.922.867v4.283c-.01.472-.42.85-.922.85zm-109.225-1.734h108.303v-2.532H95.844l.009 2.532z" fill="#373535" fill-rule="nonzero"/>
      <path fill="#E7E8E9" d="M253 221.567L205 253v-4.567L253 217z"/>
      <path d="M204.926 254a.927.927 0 0 1-.926-.93v-4.567a.93.93 0 0 1 .417-.78l48.148-31.57a.924.924 0 0 1 1.435.78v4.587a.93.93 0 0 1-.417.78l-48.148 31.57a.924.924 0 0 1-.51.13zm.926-5.015v2.368L252.148 221v-2.368l-46.296 30.353z" fill="#373535" fill-rule="nonzero"/>
      <path fill="#BEC0C2" d="M253 221.567L205 253v-4.567L253 217z"/>
      <path d="M204.926 254a.927.927 0 0 1-.926-.93v-4.567a.93.93 0 0 1 .417-.78l48.148-31.57a.924.924 0 0 1 1.435.78v4.587a.93.93 0 0 1-.417.78l-48.148 31.57a.924.924 0 0 1-.51.13zm.926-5.015v2.368L252.148 221v-2.368l-46.296 30.353z" fill="#373535" fill-rule="nonzero"/>
      <path d="M323.37 371a.922.922 0 1 1-.362-1.772 5.399 5.399 0 0 0 3.09-4.727c.445-4.422-2.412-11.483-9.741-16.514-8.554-5.88-36.442-15.094-36.72-15.186a.923.923 0 0 1-.59-1.168.93.93 0 0 1 1.174-.586c1.16.379 28.417 9.398 37.193 15.426 7.988 5.483 11.05 13.099 10.53 18.213-.306 3-1.79 5.215-4.203 6.24a.932.932 0 0 1-.37.074zM286.056 361a.958.958 0 0 1-.89-.58c-.115-.266-2.72-6.63-2.059-11.558.728-5.416 4.682-5.84 4.845-5.858.526-.048.993.323 1.044.828.05.502-.33.949-.853 1.002-.134 0-2.623.377-3.14 4.258-.594 4.45 1.915 10.584 1.915 10.648.094.227.09.48-.01.705a.94.94 0 0 1-.526.49.992.992 0 0 1-.326.065z" fill="#373535"/>
      <path d="M293.05 362.98c-.378.018-.717-.264-.822-.682-.066-.246-1.544-6.155-1.166-10.72.41-5.038 2.726-5.53 2.989-5.568.454-.076.875.287.94.81.066.523-.248 1.008-.702 1.084-.074 0-1.314.455-1.593 3.873-.345 4.195 1.092 9.953 1.109 10.01.074.293.021.609-.141.849a.783.783 0 0 1-.68.363l.065-.019zM79.805 357c-.314 0-.6-.203-.731-.52a.971.971 0 0 1 .12-.954s1.232-1.787 1.16-6.315a26.418 26.418 0 0 0-1.298-6.994.974.974 0 0 1 .126-.885.768.768 0 0 1 .753-.321.83.83 0 0 1 .628.562 27.902 27.902 0 0 1 1.433 7.593c.089 5.243-1.377 7.298-1.546 7.512a.774.774 0 0 1-.645.322zM86.996 357c-.389 0-.742-.206-.905-.526a.84.84 0 0 1 .148-.967s1.872-2.155 1.753-7.757a26.995 26.995 0 0 0-1.922-8.517.841.841 0 0 1 .155-.896c.224-.252.579-.376.931-.326.352.05.648.268.776.57a28.197 28.197 0 0 1 2.062 9.133c.14 6.335-2.131 8.86-2.231 8.97-.192.203-.472.319-.767.316z" fill="#373535"/>
      <path d="M124.536 15.839c-1.733-5.637-18.922-10.093-29.254-6.608-10.332 3.485-13.408 8.57-11.935 11.302 1.473 2.733 9.517-7.55 21.97-4.57 12.454 2.98 21.924 8.712 19.219-.124z" fill="#9B2365" opacity=".5"/>
      <path d="M368.904 65.086a10.416 10.416 0 0 0-9.1-5.293c-10.043-.175-14.658 6.545-16.263 11.397-1.283 3.876 1.78 11.444 8.934 6.15 7.153-5.294 11.999-3.158 12.986 1.676.84 4.152 1.154 11.047-2.187 12.088 0 0-1.597-5.386-5.824-7.752-7.384-4.143-16.448-5.137-19.217-.644-2.538 4.115-.636 7.448 1.043 8.175 2.53 1.095 8.196 1.73 9.11 8.424.822 5.975 1.735 17.262 6.932 20.926 3.58 2.523 19.04 7.945 27.578-1.952s10.153-18.275 8.556-25.778c-1.754-8.396-7.291-9.087-7.291-9.087s-.231-15.3-.342-18.182c-.11-2.882-1.569-13.47-8.399-13.23-10.088.35-4.523 31.2-4.523 31.2" fill="#EFBDC0"/>
      <path d="M369.412 125c-6.553 0-12.643-2.492-14.655-3.913-5.024-3.534-6.266-13.252-7.09-19.684-.084-.683-.168-1.33-.251-1.92-.695-5.039-4.218-6.21-7.045-7.161a19.339 19.339 0 0 1-1.548-.563 5.007 5.007 0 0 1-2.54-3.11 7.751 7.751 0 0 1 1.076-6.46c1.409-2.27 4.069-3.304 7.248-3.396a8.032 8.032 0 0 1-2.011-7.946c.927-2.88 5.042-12.256 17.232-12.053a11.394 11.394 0 0 1 8.76 4.07c.277-4.051 1.075-7.706 2.78-9.837a5.273 5.273 0 0 1 4.042-2.021c3.327-.13 5.95 1.975 7.638 6.035a26.138 26.138 0 0 1 1.76 8.121c.103 2.538.288 14.443.335 17.534 1.742.536 5.82 2.538 7.313 9.653 1.854 8.915-1.02 17.627-8.797 26.634-3.911 4.55-9.176 6.017-14.247 6.017zm-24.286-44.297c-2.882 0-5.163.821-6.2 2.501a5.784 5.784 0 0 0-.928 4.891c.22.83.764 1.538 1.511 1.966.38.166.853.323 1.4.507 2.78.923 7.415 2.483 8.342 8.657.084.6.167 1.246.25 1.938.78 6.109 1.966 15.338 6.322 18.41 1.613 1.136 6.165 3.092 11.513 3.526 4.412.35 10.576-.286 14.942-5.334 7.49-8.657 10.197-16.612 8.39-25.046-1.605-7.688-6.49-8.38-6.49-8.39a.924.924 0 0 1-.815-.922c0-.157-.232-15.366-.343-18.199 0-.129-.714-12.569-7.48-12.384a3.453 3.453 0 0 0-2.67 1.393c-5.006 6.174-1.03 28.609-.992 28.793a.94.94 0 1 1-1.854.323 104.993 104.993 0 0 1-1.548-17.534.924.924 0 0 1-.361-.388 9.472 9.472 0 0 0-8.343-4.79h-.361c-6.884-.168-13.04 4.239-15.072 10.789-.621 1.846 0 4.928 1.742 6.192 1.743 1.265 4.162.148 5.803-1.061 3.958-2.925 7.703-3.94 10.53-2.852a6.52 6.52 0 0 1 3.976 5.095c.241 1.18 2.188 11.618-2.836 13.178a.928.928 0 0 1-1.122-.508c0-.046-1.557-5.075-5.413-7.235a25.425 25.425 0 0 0-11.893-3.498v-.018zm5.303-1.144a31.168 31.168 0 0 1 7.415 2.999c3.356 1.846 5.154 5.426 5.886 7.217 1.595-1.597 1.65-6.35.797-10.576a4.746 4.746 0 0 0-2.78-3.692c-2.225-.849-5.33.074-8.76 2.612a11.694 11.694 0 0 1-2.605 1.458l.047-.018z" fill="#373535" fill-rule="nonzero"/>
      <path d="M364.599 123s-4.156-4.227-3.536-9.774C361.637 108.448 366 106 366 106" fill="#EFBDC0"/>
      <path d="M364.622 123.963a.986.986 0 0 1-.701-.283c-.183-.192-4.546-4.653-3.845-10.577.518-3.306 2.535-6.23 5.517-7.999.457-.227 1.02-.071 1.278.353a.888.888 0 0 1-.317 1.229s-4.056 2.322-4.575 6.627c-.615 5.083 3.287 9.078 3.326 9.142a.88.88 0 0 1 .187.993.964.964 0 0 1-.889.552l.02-.037z" fill="#373535"/>
      <path d="M385 83.22s-7.395-1.035-11.247 1.385c-4.48 2.77-5.502 10.389 0 12.125 7.236 2.271 11.06 1.994 7.667 6.27" fill="#EFBDC0"/>
      <path d="M381.435 104a.947.947 0 0 1-.855-.524.921.921 0 0 1 .108-.986c1.125-1.416 1.087-1.91 1.049-2.031-.198-.578-2.297-1.137-4.32-1.687-1.172-.317-2.505-.671-3.998-1.146-2.392-.706-4.119-2.761-4.377-5.21-.327-3.414 1.265-6.732 4.15-8.648 4.14-2.6 11.664-1.575 11.986-1.538a.943.943 0 0 1 .813 1.063.952.952 0 0 1-1.078.801c-.076 0-7.156-.932-10.7 1.258a7.418 7.418 0 0 0-3.3 6.887 4.219 4.219 0 0 0 3.082 3.672c1.456.456 2.76.81 3.923 1.118 3.186.857 5.105 1.37 5.615 2.898.425 1.277-.444 2.62-1.352 3.728a.95.95 0 0 1-.746.345z" fill="#373535"/>
      <path d="M205.067 250H95.073a.92.92 0 0 1-.92-.655L72.27 177.954a6.153 6.153 0 0 1 .932-5.46A6.138 6.138 0 0 1 78.144 170h99.114a6.113 6.113 0 0 1 5.882 4.332l22.82 74.46a.923.923 0 0 1-.92 1.189l.027.018zm-109.313-1.844h108.061l-22.451-73.271a4.281 4.281 0 0 0-4.106-3.042H78.199a4.297 4.297 0 0 0-3.434 1.737 4.308 4.308 0 0 0-.671 3.793l21.66 70.783z" fill="#373535" fill-rule="nonzero"/>
      <path d="M147 138.412s7.392 2.313 12.012 1.356A11.561 11.561 0 0 0 165 136" stroke="#373535" stroke-width="2" stroke-linecap="round" stroke-linejoin="round"/>
      <path d="M378.436 161.092c-4.405 8.553-5.97 12.321-7.483 8.287-1.513-4.034 7.625-22.33 1.174-28.65-6.45-6.321 3.292-12.853 9.04-8.096 5.748 4.757 1.673 19.915-2.731 28.459zM23.581 194.807c2.83 5.343 3.843 7.704 4.81 5.179.968-2.526-4.901-13.949-.757-17.905 4.144-3.957-2.118-8.032-5.814-5.06-3.697 2.972-1.068 12.444 1.761 17.786z" fill="#FFBC00"/>
    </g>
  </g>
</svg>
