<svg width="43" height="43" viewBox="0 0 43 43" xmlns="http://www.w3.org/2000/svg">
    <g fill="none" fill-rule="evenodd">
        <path d="M1.433 25.336c1.397 7.47 5.184 13.552 12.629 16.377 5.772 2.215 12.141 1.384 17.785-1.07 4.748-2.082 9.072-5.636 10.993-10.42a17.933 17.933 0 0 0 .893-9.43 26.187 26.187 0 0 0-2.475-7.654c-1.448-2.89-3.604-4.72-6.37-6.327a26.733 26.733 0 0 0-8.016-3.028c-4.074-.847-8.603-1.112-12.748-.27-1.04.212-2.059.514-3.047.902C2.731 7.73-.199 16.596 1.433 25.336z" fill="#FFCE00"/>
        <path d="M42.021 14.563a26.892 26.892 0 0 0-3.609-7.241c-1.863-2.672-4.3-4.196-7.21-5.378A26.402 26.402 0 0 0 22.916.086c-4.105-.28-8.6.101-12.478 1.521C.343 5.317-1.875 15.67 1.418 25.063c2.526 7.222 7.167 12.7 14.881 14.463 6.02 1.367 12.083-.342 17.2-3.59 4.3-2.734 7.98-6.873 9.136-11.89.64-3.155.435-6.42-.596-9.475" fill="#68DDD7" opacity=".9"/>
        <path d="M35.239 9.194A16.562 16.562 0 0 0 27.94 4.33a24.204 24.204 0 0 0-7.335-1.325c-2.995-.083-5.456.892-7.963 2.439a24.91 24.91 0 0 0-6.02 5.234C4.157 13.65 1.931 17.232.831 20.985c-2.906 9.736 2.36 15.888 7.18 18.706 6.175 3.62 18.37 2.978 23.957-1.883 4.373-3.784 6.498-9.34 6.95-15.065.392-4.799-.604-9.902-3.664-13.575" fill="#F946A0" opacity=".9"/>
        <path d="M38.932 30.646c1.092-2.68 1.435-5.613 1.694-8.475.396-4.133.721-8.43-.36-12.474-1.114-4.178-5.039-6.2-8.741-7.866-10.366-4.662-18.217.764-20.649 3.195C6.252 9.663-.582 17.014 1.33 24.23c1.115 4.15 4.126 7.617 7.491 10.051 3.563 2.579 8.99 4.45 14.336 4.693 6.625.3 13.121-1.893 15.782-8.333" fill="#5F6CFF" opacity=".8"/>
        <path d="M39.555 15.66c-.76-2.794-1.99-5.588-4.176-7.32-7.383-5.854-17.866-4.452-20.066-3.364a26.832 26.832 0 0 0-8.759 6.578C.432 18.852 2.849 28.083 9.024 34.16c4.75 4.705 10.393 7.09 16.87 5.179 5.045-1.47 8.936-5.46 11.509-10.263 2.155-4.037 3.282-8.933 2.15-13.4" fill="#1B1B56" opacity=".9"/>
        <path d="M27.786 24.212l-7.189 4.445a2.27 2.27 0 0 1-2.399 0C17.456 28.2 17 27.355 17 26.442v-8.884c0-.913.456-1.758 1.198-2.215a2.27 2.27 0 0 1 2.4 0l7.199 4.43c.746.458 1.205 1.306 1.203 2.223-.002.918-.465 1.763-1.214 2.216zM65.445 31h-4.56L54 14.003h5.001l4.18 11.399L67.192 14H72z" fill="#FFF"/>
    </g>
</svg>
