<svg width="86" height="86" viewBox="0 0 86 86" xmlns="http://www.w3.org/2000/svg">
  <g transform="translate(1)" fill="none" fill-rule="evenodd">
    <path d="M21.503 41c-.794 0-1.587.043-2.377.127-9.19.988-17.963 9.726-18.983 18.918-1.357 11.794 7.105 22.455 18.9 23.812 4.808.554 9.66-.533 13.775-3.08a15.521 15.521 0 0 1 6.935-2.437 20.453 20.453 0 0 1 1.814-.079c.582 0 1.16.02 1.732.062 2.51.236 4.927 1.08 7.039 2.459 10.103 6.235 23.348 3.1 29.584-7.004a21.488 21.488 0 0 0 3.062-13.742c-1.018-9.185-9.794-17.921-18.983-18.909a22.199 22.199 0 0 0-2.37-.127H21.503z" fill="#D5DCE4"/>
    <path d="M80.269 51C63.019 70.331 24.172 77.526 9 79.662a21.417 21.417 0 0 0 25.13 1.836 15.52 15.52 0 0 1 6.935-2.436 23.835 23.835 0 0 1 3.55-.01c2.51.236 4.927 1.08 7.039 2.46 10.103 6.235 23.348 3.1 29.584-7.004A21.488 21.488 0 0 0 84.3 60.765 20.383 20.383 0 0 0 80.27 51z" fill="#BCC6D1"/>
    <path d="M48.034 80c-2.072-.667-4.083-1-6.034-1-2.07 0-4.132.375-6.187 1.124A21.908 21.908 0 0 1 22 85C9.85 85 0 75.15 0 63c0-11.815 9.314-21.455 21-21.978V41h41c12.15 0 22 9.85 22 22s-9.85 22-22 22a21.91 21.91 0 0 1-13.966-5z" stroke="#1D1D1D" stroke-width="2"/>
    <path d="M48 40a6 6 0 1 0-12 0" stroke="#1D1D1D" stroke-width="2" fill="#9BBEFF"/>
    <path d="M42 34v-3a4 4 0 0 0-4-4h-7a4 4 0 1 1 0-8h22.5a4.5 4.5 0 1 0 0-9H46a4 4 0 0 1-4-4V0" stroke="#1D1D1D" stroke-width="2" stroke-linecap="round" stroke-linejoin="round"/>
    <path d="M24 66v4a3 3 0 0 1-6 0v-4h-4a3 3 0 0 1 0-6h4v-4a3 3 0 0 1 6 0v4h4a3 3 0 0 1 0 6h-4z" stroke="#1D1D1D" stroke-width="2" fill="#383856" stroke-linecap="round" stroke-linejoin="round"/>
    <circle stroke="#1D1D1D" stroke-width="2" fill="#FF6E37" cx="62" cy="55" r="4"/>
    <circle stroke="#1D1D1D" stroke-width="2" fill="#A5DC69" cx="62" cy="71" r="4"/>
    <circle stroke="#1D1D1D" stroke-width="2" fill="#6E87F5" cx="54" cy="63" r="4"/>
    <circle stroke="#1D1D1D" stroke-width="2" fill="#DC4B4B" cx="70" cy="63" r="4"/>
  </g>
</svg>
