<svg width="86" height="86" viewBox="0 0 86 86" xmlns="http://www.w3.org/2000/svg">
  <g transform="translate(1)" stroke="#1D1D1D" stroke-width="2" fill="none" fill-rule="evenodd">
    <path d="M48.034 80c-2.072-.667-4.083-1-6.034-1-2.07 0-4.132.375-6.187 1.124A21.908 21.908 0 0 1 22 85C9.85 85 0 75.15 0 63c0-11.815 9.314-21.455 21-21.978V41h41c12.15 0 22 9.85 22 22s-9.85 22-22 22a21.91 21.91 0 0 1-13.966-5z" stroke-linecap="round" stroke-linejoin="round"/>
    <path d="M48 40a6 6 0 1 0-12 0"/>
    <path d="M42 34v-3a4 4 0 0 0-4-4h-7a4 4 0 1 1 0-8h22.5a4.5 4.5 0 1 0 0-9H46a4 4 0 0 1-4-4V0M24 66v4a3 3 0 0 1-6 0v-4h-4a3 3 0 0 1 0-6h4v-4a3 3 0 0 1 6 0v4h4a3 3 0 0 1 0 6h-4z" stroke-linecap="round" stroke-linejoin="round"/>
    <circle cx="62" cy="55" r="4"/>
    <circle cx="62" cy="71" r="4"/>
    <circle cx="54" cy="63" r="4"/>
    <circle cx="70" cy="63" r="4"/>
  </g>
</svg>
