<?xml version="1.0" encoding="UTF-8"?>
<svg width="70px" height="54px" viewBox="0 0 70 54" version="1.1" xmlns="http://www.w3.org/2000/svg" xmlns:xlink="http://www.w3.org/1999/xlink">
    <!-- Generator: Sketch 52.2 (67145) - http://www.bohemiancoding.com/sketch -->
    <title>image-icon</title>
    <desc>Created with Sketch.</desc>
    <g id="Page-1" stroke="none" stroke-width="1" fill="none" fill-rule="evenodd">
        <g id="UI-Design---Create-playlist" transform="translate(-449.000000, -361.000000)" stroke="#1E1E1E" stroke-width="2">
            <g id="Group-5" transform="translate(281.000000, 167.000000)">
                <g id="Group-4" transform="translate(0.000000, 104.000000)">
                    <g id="image-icon" transform="translate(169.000000, 91.000000)">
                        <path d="M2,0 L58,0 C59.1045695,3.72131305e-15 60,0.8954305 60,2 L60,46 C60,47.1045695 59.1045695,48 58,48 L2,48 C0.8954305,48 7.2800171e-12,47.1045695 7.27595761e-12,46 L7.27595761e-12,2 C7.27582234e-12,0.8954305 0.8954305,2.02906125e-16 2,0 Z" id="Rectangle-path" stroke-linecap="round" stroke-linejoin="round"></path>
                        <circle id="Oval" fill="#FCC05C" stroke-linecap="round" stroke-linejoin="round" cx="13" cy="13" r="4"></circle>
                        <polyline id="Shape" stroke-linecap="round" stroke-linejoin="round" points="37 26 28.5625 17 -9.32232069e-12 44.9533"></polyline>
                        <polyline id="Shape-Copy" stroke-linecap="round" stroke-linejoin="round" transform="translate(46.500000, 32.000000) scale(-1, 1) translate(-46.500000, -32.000000) " points="60 31.0402783 51.5625 23 33 41"></polyline>
                        <g id="Group" transform="translate(52.000000, 36.000000)">
                            <circle id="Oval" fill="#6382F7" stroke-linecap="round" stroke-linejoin="round" cx="8" cy="8" r="8"></circle>
                            <path d="M8,5 L8,11" id="Path-5"></path>
                            <path d="M8,5 L8,11" id="Path-5-Copy" transform="translate(8.000000, 8.000000) rotate(-270.000000) translate(-8.000000, -8.000000) "></path>
                        </g>
                    </g>
                </g>
            </g>
        </g>
    </g>
</svg>