<svg width="222" height="221" viewBox="0 0 222 221" xmlns="http://www.w3.org/2000/svg">
  <g fill-rule="nonzero" fill="none">
    <circle fill="#D2F9F2" cx="110.7" cy="110.23" r="110.08"/>
    <path d="M174.94 164.17l18.38 8.31a13.94 13.94 0 1 1 17.91 18.66 13.91 13.91 0 1 1-25.08.53l-19.81-10" fill="#FCDCC0"/>
    <path d="M198.81 212.33a14.92 14.92 0 0 1-13.95-20.18l-19-9.54a1.002 1.002 0 0 1 .9-1.79l19.81 10a1 1 0 0 1 .46 1.31 12.79 12.79 0 0 0-1.15 5.34 12.91 12.91 0 1 0 25.81 0 12.78 12.78 0 0 0-1.39-5.83 1 1 0 0 1 .52-1.38 13.07 13.07 0 0 0 8.18-12.19 12.91 12.91 0 0 0-24.73-5.19 1 1 0 0 1-1.33.51l-18.37-8.31.82-1.82 15.5 7 2 .91a14.91 14.91 0 0 1 28.13 6.9 15.13 15.13 0 0 1-8.4 13.58 14.91 14.91 0 0 1-13.75 20.68h-.06z" fill="#373535"/>
    <path d="M170.34 149.78s6.91 1.45 6.43 5.47c-.48 4.02-3.77 23.75-16.05 31.39-2.31 1.43-6.43-3.83-6.43-3.83" fill="#FFBC00"/>
    <path d="M168.29 139.69a10 10 0 0 0-6.55-2.82c.6-13-7.54-22.94-14.52-31.43l-.67-.82c-9.42-11.49-3.65-26 1.25-32.84C159.15 56 161.08 41.51 153 32.92c-6.12-6.49-16.69-7.3-25.13-1.93-19.78 12.56-17.5 35.11-15.87 51.58.74 7.3 1.38 13.6-.36 16.35-4.51 7.14-17.55 3.19-24.55 1.07-1.58-.48-2.83-.86-3.72-1-7.71-1.54-21.9-3.28-30.25 2.41a14.4 14.4 0 0 0-6.19 9.75A18.17 18.17 0 0 0 51.2 127a23.68 23.68 0 0 0 4 3.61c-7.3 2.72-11.17 7.66-10.93 14.08.19 5.06 2.94 10.87 13.57 13.2-.14.45-5.69 18.78 7.43 23.77a29.56 29.56 0 0 0 10.57 2A31.93 31.93 0 0 0 88 181.09a1 1 0 0 0 .13.52c.25.41 6.32 10.13 27.85 11.35.7 0 1.38.06 2 .06a31 31 0 0 0 21.87-8.77c.112.302.264.588.45.85 1.1 1.53 3.32 2.31 6.6 2.31 8.26 0 22.5-21 24.18-35.73.7-5.39-.27-9.42-2.79-11.99zm45.16 44.01a1 1 0 0 1-.42-.09 1 1 0 0 1-.48-1.33s1.69-3.7.81-6.83c-1.44-5.1-5.22-4.49-5.65-4.41a1.02 1.02 0 1 1-.41-2c.06 0 6-1.21 8 5.82 1.09 3.86-.84 8-.92 8.22a1 1 0 0 1-.93.62z" fill="#373535"/>
    <path d="M159.83 187.89c-2.67 0-5.67-3.62-6.33-4.47a1.001 1.001 0 0 1 1.58-1.23c1.46 1.86 4.12 4.21 5.11 3.6 12.72-7.9 15.48-29.73 15.59-30.66.36-3-5.58-4.36-5.64-4.38a1.02 1.02 0 1 1 .41-2c.32.07 7.8 1.69 7.22 6.57-.29 2.42-3.22 23.86-16.52 32.12a2.63 2.63 0 0 1-1.42.45z" fill="#373535"/>
    <path d="M169.18 151.45c-1.64 14.33-15.56 34-22.19 34-3.22 0-4.48-.79-5-1.46a1.92 1.92 0 0 1-.32-1.52 31.92 31.92 0 0 0 4.92-7 1 1 0 0 0-1.81-.84 29.07 29.07 0 0 1-4.59 6.62 1 1 0 0 0-.29.31 29.2 29.2 0 0 1-23.78 9.44c-20.37-1.16-26.2-10.3-26.25-10.39a1 1 0 0 0-.19-.21 39 39 0 0 0 7-4.21c7-5.31 11.48-12.45 11-17.38-.57-6-5.52-8.3-9.44-9a14.52 14.52 0 0 0 4.85-8.67c.5-3.31-.15-6.06-2-8.15-2.27-2.64-5.8-3.58-8.08-3.92.23-.27.45-.54.66-.81a10.51 10.51 0 0 0 2.12-9c-2.05-8.22-15.28-13.74-25.8-13.6-5.26.08-7.46 1.15-7.55 1.19a1 1 0 0 0 .88 1.79s2-.91 6.7-1c9.78-.12 22.05 5 23.83 12.08a8.58 8.58 0 0 1-1.78 7.33c-3.28 4.4-9.74 7.31-16.86 7.62-6.84.31-17-2.78-22.5-9a16.25 16.25 0 0 1-3.77-14.19 12.47 12.47 0 0 1 5.35-8.44c7.75-5.28 21.33-3.58 28.73-2.1.79.16 2.06.54 3.53 1 7.51 2.28 21.49 6.51 26.82-1.92 2.11-3.34 1.47-9.64.66-17.62-1.62-16-3.83-37.79 14.89-49.7 7.64-4.85 17.14-4.17 22.6 1.62 7.39 7.84 5.39 21.42-5.35 36.32-5.23 7.25-11.36 22.84-1.17 35.27l.67.82c9.67 11.78 21.71 26.43 7.47 48.48-7.11 11-11.06 14-11.09 14a1 1 0 0 0 1.16 1.63c.17-.12 4.24-3.11 11.61-14.52 4.11-6.37 6.15-12.13 6.75-17.41a8.06 8.06 0 0 1 5.3 2.24c2.08 2.07 2.85 5.55 2.31 10.3z" fill="#FFF"/>
    <path d="M46.3 144.59c-.28-7.46 5.76-11 11.06-12.62a34.34 34.34 0 0 0 17.93 4.72c6.21-.26 12-2.41 15.89-5.78 1.31.07 5.92.52 8.4 3.41a7.82 7.82 0 0 1 1.49 6.54c-2 13.33-25.84 16.06-32.1 16.06-10.13-.01-22.29-2.15-22.67-12.33z" fill="#FFF"/>
    <path d="M66 179.76c-11.45-4.35-6.28-21.14-6.23-21.31a1 1 0 0 0 0-.22c3.033.476 6.1.703 9.17.68.23 0 17-.42 26.95-7.29a14.74 14.74 0 0 1 4.54.89 7.34 7.34 0 0 1 5.19 6.46c.4 4.21-3.9 10.77-10.23 15.6-4.27 3.28-15.76 10.37-29.39 5.19z" fill="#FFF"/>
    <path d="M78.74 142.44c7.11-.3 13.57-3.22 16.86-7.62a10.76 10.76 0 0 0 1.4-2.47 15.65 15.65 0 0 0-5.81-1.45c-3.91 3.37-9.69 5.52-15.89 5.78A34.34 34.34 0 0 1 57.36 132c-.58.18-1.18.39-1.77.62.21.28.41.56.65.83 5.47 6.22 15.66 9.3 22.5 8.99zm23.13 10.64a10.39 10.39 0 0 0-1.41-.67 14.74 14.74 0 0 0-4.54-.89c-10 6.87-26.72 7.29-26.95 7.29a56.37 56.37 0 0 1-9.17-.68 1 1 0 0 1 0 .22s-.2.66-.43 1.68a49.52 49.52 0 0 0 11 2.12c5.46.51 24.89.13 31.5-9.07zM132.8 35.13c9.09 5.78 10.49 19.44 3.74 36.52-3.29 8.32-5.4 24.94 7.54 34.48l.86.63 2.18 1.61-1.36-1.66-.67-.82c-10.19-12.43-4.06-28 1.17-35.27C157 55.71 159 42.13 151.6 34.29c-5.46-5.79-15-6.47-22.6-1.62-.28.18-.53.36-.8.54a14.9 14.9 0 0 1 4.6 1.92z" fill="#E1E6EA"/>
  </g>
</svg>
