<svg width="163" height="270" viewBox="0 0 163 270" xmlns="http://www.w3.org/2000/svg">
  <g transform="translate(0 -1)" fill-rule="nonzero" fill="none">
    <ellipse fill="#E7E8E9" cx="78.58" cy="253.88" rx="69.27" ry="13.7"/>
    <path d="M43.54 260.89c-11.13 0-20.16 1.88-20.16 4.19 0 1.21 2.45 2.29 6.37 3.06-.92.26-1.47.59-1.47.94 0 .88 3.41 1.59 7.63 1.59a18.31 18.31 0 0 0 7.56-1.37h.07c11.13 0 20.16-1.88 20.16-4.19 0-2.31-9.03-4.22-20.16-4.22z" fill="#5F6CFF"/>
    <path fill="#606163" d="M130.07 149.58l21.32-8.8-7.78-30.39-15.15-2.11-9.34 24.83z"/>
    <path d="M130.08 150.58a1 1 0 0 1-.83-.45l-11-16.47a1 1 0 0 1-.1-.91l9.34-24.83a1 1 0 0 1 1.07-.64l15.15 2.11a1 1 0 0 1 .83.74l7.78 30.39a1 1 0 0 1-.59 1.17l-21.31 8.8a1 1 0 0 1-.34.09zM120.23 133l10.22 15.36 19.75-8.15-7.39-28.9-13.69-1.9-8.89 23.59z" fill="#373535"/>
    <path d="M65.86 254.88a1 1 0 0 1-.81-1.58l6.88-9.63v-25.84a1 1 0 1 1 2 0V244a1 1 0 0 1-.19.58l-7.07 9.9a1 1 0 0 1-.81.4z" fill="#F89734"/>
    <path d="M81.41 247.46a1 1 0 0 1-.28 0l-8.3-2.42-7.94.69a1.004 1.004 0 0 1-.17-2l8.13-.71a1 1 0 0 1 .37 0l8.48 2.47a1.01 1.01 0 1 1-.28 2l-.01-.03z" fill="#F89734"/>
    <circle fill="#4C4C4D" cx="75.96" cy="165" r="63.83"/>
    <path d="M76 229.83c-26.225.016-49.877-15.769-59.924-39.993-10.047-24.224-4.51-52.115 14.028-70.665 18.538-18.55 46.426-24.103 70.656-14.07 24.23 10.031 40.03 33.673 40.03 59.898-.039 35.773-29.017 64.77-64.79 64.83zm0-127.66c-25.416-.016-48.338 15.282-58.076 38.758-9.737 23.477-4.372 50.508 13.594 68.485 17.966 17.978 44.994 23.36 68.477 13.638 23.483-9.722 38.795-32.635 38.795-58.051-.039-34.668-28.122-62.77-62.79-62.83z" fill="#373535"/>
    <path d="M51.72 202.28c-20.3 0-39.58-16.46-39.58-36.76L15 58.08a36.76 36.76 0 1 1 73.51 0l2.83 107.44c-.04 20.3-19.34 36.76-39.62 36.76z" fill="#606163"/>
    <path d="M51.72 203.28c-21.62 0-40.58-17.64-40.58-37.76L14 58.06c.335-20.612 17.14-37.146 37.755-37.146 20.615 0 37.42 16.534 37.755 37.146L92.3 165.5c0 20.14-18.96 37.78-40.58 37.78zm0-181C31.98 22.324 16 38.34 16 58.08l-2.83 107.47c0 19 18 35.73 38.58 35.73s38.58-16.71 38.58-35.76L87.48 58.11c-.011-19.748-16.012-35.758-35.76-35.78v-.05z" fill="#373535"/>
    <ellipse fill="#FFF" cx="35.02" cy="77.14" rx="7.01" ry="21.94"/>
    <path d="M35 100.08c-5.2 0-8-11.82-8-22.95 0-11.13 2.81-22.94 8-22.94 5.19 0 8 11.82 8 22.94 0 11.12-2.78 22.95-8 22.95zm0-43.89c-2.84 0-6 9-6 20.94 0 11.94 3.17 20.95 6 20.95s6-9 6-20.95-3.14-20.94-6-20.94z" fill="#373535"/>
    <ellipse fill="#FFF" cx="13.87" cy="72.6" rx="7.01" ry="21.94"/>
    <path d="M13.87 95.55c-5.2 0-8-11.82-8-22.95 0-11.13 2.81-22.94 8-22.94 5.19 0 8 11.82 8 22.94 0 11.12-2.8 22.95-8 22.95zm0-43.89c-2.84 0-6 9-6 20.94 0 11.94 3.17 20.95 6 20.95s6-9 6-20.95-3.16-20.94-6-20.94z" fill="#373535"/>
    <path d="M82.47 261.24a1 1 0 0 1-.81-1.58l6.88-9.64V214.3a1 1 0 1 1 2 0v36a1 1 0 0 1-.19.58l-7.07 9.9a1 1 0 0 1-.81.46z" fill="#F89734"/>
    <path d="M98.37 255.94a1 1 0 0 1-.46-.11l-8.58-4.46-7.84.68a1.004 1.004 0 1 1-.17-2l8.13-.71a1 1 0 0 1 .55.11l8.84 4.59a1 1 0 0 1-.46 1.89l-.01.01z" fill="#F89734"/>
    <path fill="#FFBC00" d="M21.08 100.61l-19.85 9.87 22.01 5.47 6.87-7.67z"/>
    <path d="M23.24 117H23l-22-5.48a1 1 0 0 1-.2-1.87l19.86-9.86a1 1 0 0 1 1.09.13l9 7.67a1 1 0 0 1 .1 1.43l-6.85 7.6a1 1 0 0 1-.76.38zm-19.13-6.79l18.79 4.68 5.79-6.46-7.74-6.58-16.84 8.36z" fill="#373535"/>
    <path d="M161.75 186.75l-52.84-29.43c-8.127 14.591-2.886 33.008 11.705 41.135 14.591 8.127 33.008 2.886 41.135-11.705z" fill="#606163"/>
    <path d="M135.28 203.27A31.23 31.23 0 0 1 108 156.84a1 1 0 0 1 1.36-.39l52.84 29.43a1 1 0 0 1 .39 1.36 31.27 31.27 0 0 1-27.31 16.03zm-26-44.58c-7.197 14.023-1.984 31.227 11.786 38.896 13.77 7.67 31.14 3.045 39.274-10.456l-51.06-28.44zM11.36 46.59a1 1 0 0 1-.33-1.94l14-4.95a1 1 0 0 1 .67 1.88l-14 4.95a1 1 0 0 1-.34.06z" fill="#373535"/>
    <path d="M82.68 14.38S66.59 3.41 52.38 2C48.26 1.6 41 14.88 41 14.88l-15.7 8.37 65.21 17.41L80 25.81l2.68-11.43z" fill="#AB8059"/>
    <path d="M90.53 41.65a1 1 0 0 1-.26 0l-65.2-17.44a1 1 0 0 1-.21-1.85l15.43-8.23C41.84 11.32 48.06.55 52.48 1c14.3 1.41 30.09 12.09 30.76 12.54a1 1 0 0 1 .41 1.05l-2.53 11 10.23 14.48a1 1 0 0 1-.82 1.58zM28 22.93l60.09 16-8.89-12.59a1 1 0 0 1-.16-.8l2.48-10.75c-3-1.92-17-10.61-29.26-11.83h-.11c-2.43 0-7.44 7.17-10.27 12.36a1 1 0 0 1-.41.4L28 22.93z" fill="#373535"/>
    <ellipse fill="#373535" cx="33.03" cy="84.6" rx="3.66" ry="8.88"/>
    <ellipse fill="#373535" cx="15.79" cy="83.42" rx="3.66" ry="8.88"/>
    <path d="M50 51.53a1 1 0 0 1-.5-.13L36.62 44a1 1 0 0 1 1-1.73l12.84 7.41a1 1 0 0 1-.5 1.87l.04-.02z" fill="#373535"/>
    <path d="M45.44 113l-3.76-9.57-3.77 11a5.07 5.07 0 0 0 1.1 5.12 3.51 3.51 0 0 0 5 .09 6.15 6.15 0 0 0 1.43-6.64z" fill="#5F6CFF"/>
    <path d="M41.58 121.69h-.09a4.48 4.48 0 0 1-3.21-1.42 6.07 6.07 0 0 1-1.32-6.13l3.77-11a1 1 0 0 1 1.88 0l3.76 9.57a7.14 7.14 0 0 1-1.63 7.7 4.47 4.47 0 0 1-3.16 1.28zm.17-15.31l-2.89 8.41a4.07 4.07 0 0 0 .88 4.11 2.49 2.49 0 0 0 1.78.79 2.59 2.59 0 0 0 1.81-.72 5.15 5.15 0 0 0 1.17-5.55l-2.75-7.04z" fill="#373535"/>
  </g>
</svg>
