<svg xmlns="http://www.w3.org/2000/svg" viewBox="0 0 683.78 525.91">
  <defs>
    <style>
      .cls-2{fill:#ffce00}.cls-3{fill:#373535}.cls-5{fill:#ffbc00}.cls-6{fill:#bec0c2}.cls-7{fill:#efbdc0}.cls-11{fill:#3543a5;opacity:.3}.cls-12{fill:#e7e8e9}.cls-13{fill:#3aace2}.cls-15{fill:none}.cls-16{fill:#fff}.cls-21{fill:#ffe3cc}.cls-24{fill:#f1f2f2}
    </style>
  </defs>
  <g id="Layer_2" data-name="Layer 2">
    <g id="Layer_1-2" data-name="Layer 1">
      <circle cx="399.17" cy="218.71" r="218.71" fill="#d2f9f2"/>
      <path class="cls-2" d="M226.63 298.8a67.61 67.61 0 0 1-13.15-1.29c-26.65-5.27-48-26.9-58.47-59.34a30 30 0 0 1 57.08-18.49c3.55 11 9.42 18.25 13 19 5.54 1.08 23.67-5.8 52.51-39.79a30 30 0 1 1 45.74 38.83c-34.76 40.96-66.55 61.08-96.71 61.08z"/>
      <path class="cls-3" d="M226.63 299.8a69 69 0 0 1-13.34-1.31c-27-5.35-48.6-27.22-59.23-60a31 31 0 1 1 59-19.11c3.75 11.57 9.54 17.76 12.28 18.3 2.53.5 8.27-1 16.77-6.6 10.27-6.79 22.3-18.15 34.79-32.85a31 31 0 1 1 47.26 40.13C289 279.7 257.14 299.8 226.63 299.8zm-43.05-99.89a29 29 0 0 0-27.62 38c10.39 32.08 31.43 53.47 57.71 58.67a66.93 66.93 0 0 0 13 1.27c29.88 0 61.28-19.87 96-60.75a29 29 0 1 0-44.21-37.54c-29.07 34.24-47.28 41.34-53.47 40.12-4.53-.9-10.46-9.34-13.8-19.64a29 29 0 0 0-27.56-20.08z"/>
      <ellipse cx="323.78" cy="88.8" rx="17.19" ry="20" transform="rotate(-81.59 323.774 88.806)" fill="#e03493"/>
      <path class="cls-3" d="M321.12 106.8c-11.46-1.7-19.58-11.15-18.12-21.07s12-16.61 23.43-14.92S346 82 344.55 91.88s-11.98 16.61-23.43 14.92zm5-34C315.78 71.26 306.29 77.2 305 86s6.06 17.26 16.43 18.79 19.86-4.4 21.16-13.23-6.08-17.24-16.44-18.77z"/>
      <path class="cls-5" d="M360.19 151.92s65.64 22.66 77 54.67-10 106.67-16 127.33-140.67 0-140.67 0 7-73.61 6.67-94c-.51-32.48 6.5-52.67 16.5-60s56.5-28 56.5-28z"/>
      <path class="cls-3" d="M382.41 344.14q-14.33 0-33.91-1.47c-34.06-2.56-67.82-7.71-68.16-7.76a1 1 0 0 1-.84-1.08c.07-.74 7-73.78 6.66-93.89-.47-30.42 5.69-52.59 16.91-60.82 10-7.31 54.81-27.26 56.71-28.11a1 1 0 0 1 .73 0 259.28 259.28 0 0 1 34.39 15.4c23.88 12.95 38.42 26.37 43.2 39.88 7.61 21.49 2.08 65.73-16 127.95-1.91 6.61-14.97 9.9-39.69 9.9zm-100.83-11.06c37.89 5.75 133.94 16.7 138.62.57 22.67-78.09 21.22-112 16-126.72-5.75-16.23-26.15-30-42.25-38.78A259.21 259.21 0 0 0 360.23 153c-4.37 2-46.64 20.88-56 27.73-10.69 7.84-16.56 29.41-16.09 59.18.32 18.96-5.75 84.51-6.56 93.17z"/>
      <path class="cls-6" d="M261.16 416.59s-19.69 9.1-40.85 5.88-34.16-13.71-33.16-21.47c1-8.13 7.33-11.6 30-13s44 4.59 44 4.59z"/>
      <path class="cls-3" d="M229.59 424.15a62.7 62.7 0 0 1-9.43-.69c-22.36-3.4-35.06-14.37-34-22.58 1.18-9.12 8.69-12.5 30.93-13.88 22.57-1.4 44.13 4.57 44.34 4.63a1 1 0 0 1 .73 1v24a1 1 0 0 1-.58.91 85.64 85.64 0 0 1-31.99 6.61zm-5.42-35.36c-2.29 0-4.62.06-7 .21-23.44 1.46-28.18 5.23-29.07 12.14-.45 3.48 2.48 7.77 7.85 11.48 6.14 4.25 14.83 7.4 24.47 8.87 18.62 2.83 36.31-4.11 39.7-5.55v-22.58a154.74 154.74 0 0 0-35.95-4.57zm37 27.8z"/>
      <circle class="cls-7" cx="322.75" cy="142.25" r="56.67"/>
      <path class="cls-3" d="M322.75 199.92a57.67 57.67 0 1 1 57.67-57.67 57.73 57.73 0 0 1-57.67 57.67zm0-113.33a55.67 55.67 0 1 0 55.67 55.67 55.73 55.73 0 0 0-55.67-55.68z"/>
      <path d="M266.25 153.92s13.85 1.16 33.12-3.09 35.53-16.91 41.55-14.24 4.82 28 0 32-21.22 6.67-35.3 0-7 4.82-13.48 7.67-15.66 2.67-21.08 0-13.75-22.4-4.81-22.34z" fill="#1c1c1c"/>
      <path d="M314.12 86.73c-13.37-7.45-19.95-26.82-30.7-39.91s-53.56-16.24-60.27 11.07c-9.65 39.28 67.17 50.64 67.17 50.64z" fill="#f946a0"/>
      <path class="cls-3" d="M290.19 109.52a177.78 177.78 0 0 1-26.24-6.44c-18.77-6.19-31.55-14.17-38-23.72a26.26 26.26 0 0 1-3.79-21.72c2.56-10.43 10.64-17.69 22.73-20.43 14.58-3.31 32.57.8 39.28 9a134.22 134.22 0 0 1 10.65 16c5.9 9.81 11.47 19.08 19.76 23.7a1 1 0 0 1 .19 1.61L291 109.27a1 1 0 0 1-.81.25zm-26.81-70.91a49.94 49.94 0 0 0-18 .56c-11.32 2.57-18.86 9.3-21.24 19a24.34 24.34 0 0 0 3.51 20.12C241.61 99 285 106.65 290 107.47l22.45-20.57c-8.12-5.09-13.81-14.55-19.31-23.72a132.82 132.82 0 0 0-10.49-15.73c-3.65-4.45-11.01-7.62-19.27-8.84z"/>
      <path class="cls-3" d="M322.75 85.25a56.67 56.67 0 0 0-55.82 47c1.46-2.51 3.11-4.25 4.65-3.29 4 2.5 9.82 14 23.91 1.5s27.59-24 36.09-19.5 4.5 18 12.5 18.5 7.43-3.63 12.63-6c7-3.17 16.94 20.9 22.68 19.56v-1.07a56.67 56.67 0 0 0-56.64-56.7z"/>
      <path class="cls-3" d="M378.91 144c-3.08 0-6.41-4.48-10.23-9.61s-8.55-11.48-11.56-10.1a12.73 12.73 0 0 0-3.79 2.78c-1.95 1.88-3.78 3.66-9.33 3.31-4.79-.3-5.93-4.58-7-8.71-1-3.88-2.09-7.9-5.88-9.9-7.6-4-20.33 6.39-35 19.36-12.17 10.8-18.84 4.4-22.82.58a16.58 16.58 0 0 0-2.29-2 .63.63 0 0 0-.53-.09c-.34.08-1.28.54-2.73 3a1 1 0 0 1-1.85-.67 57.66 57.66 0 0 1 114.47 9.88V143a1 1 0 0 1-.77 1 3.07 3.07 0 0 1-.69 0zm.48-1.05zM358 122.13c4 0 8.18 5.64 12.25 11.11 2.71 3.65 6 8.09 8.13 8.72v-.05a55.67 55.67 0 0 0-109.66-13.55 3.62 3.62 0 0 1 1.28-.63 2.63 2.63 0 0 1 2.07.34 17.71 17.71 0 0 1 2.61 2.23c3.93 3.78 9.31 8.95 20.11-.63 15.74-14 28.47-24.27 37.22-19.64 4.56 2.41 5.79 7.06 6.88 11.16 1.16 4.35 2 7 5.22 7.23 4.66.3 6-1.05 7.81-2.75a14.59 14.59 0 0 1 4.35-3.16 4.16 4.16 0 0 1 1.73-.38z"/>
      <path d="M456.49 343.11c-7.54-7.6-25.89-14.57-33.6-15.2-20-1.63-38.43 4.92-75.06 7.35-14 .63-24.67.22-32.74-.78-11.47-2.1-25.36-9.74-33.23-15.47-6.29-4.58-65.54 3.92-86 24.11-23 22.69-4.51 44.89 18 50.81 7.49 2 22.24 4.3 38.3 7.08-.31 8.35 4.59 14.87 9 15.58 7.12 1.14 23.87-2.4 54.12-5.83 55.73 7.83 116.2 14.54 119.88 10.5 6.67-7.33 5.27-22.67 5.27-22.67-.75-.82-4.11-2.34-9.42-4.36 1.31-.33 2.48-.66 3.48-1 27.34-8.64 41.34-30.64 22-50.12z" fill="#5f6cff"/>
      <path class="cls-11" d="M392.17 380.25l39 14.42c1.31-.33 2.48-.66 3.48-1C462 385 476 363 456.63 343.55c-4.92-5-14.45-9.65-22.62-12.49.61 4.86 3 6.26 10.48 13.09 33.93 31.05-52.32 36.1-52.32 36.1zM189.35 353.92s3.67 1.67 16.84-7.66 40.84-19.67 61.17-14.33 86.33 12.33 115.33 6.33c14.95-3.09 26.4-7.6 36.11-10.6-18-.18-36.26 5.41-69.43 7.6-14 .63-24.67.22-32.74-.78-11.47-2.1-25.36-9.74-33.23-15.47-6.29-4.58-65.54 3.92-86 24.11a39.39 39.39 0 0 0-8.05 10.8z"/>
      <path class="cls-11" d="M264.13 344.11c-28.1 2.82-10.76 9.82 39.24 19.82s94.46 28.86 99.46 38.86c3.43 6.87 2.32 11.64-5.95 17.79 21.88 2.05 37.36 2.66 39.17.67 5.29-5.82 5.5-16.68 5.36-20.91l-.45-.82s-148.73-58.23-176.83-55.41z"/>
      <path class="cls-3" d="M426.17 423.48c-5.92 0-15.58-.5-31.52-2-20.92-2-49.11-5.44-79.38-9.69-11.09 1.26-20.47 2.55-28 3.58-13.48 1.85-21.62 3-26.25 2.22s-9.86-7.34-9.89-15.73l-9-1.53c-12.14-2.07-22.62-3.85-28.59-5.42-14.37-3.81-25.54-13.4-28.54-24.44-1.74-6.55-1.41-16.74 10.09-28.07 12.63-12.44 38.35-19.25 48.83-21.6 18-4 34.94-5.19 38.5-2.6 8.21 6 22 13.32 32.82 15.3a200.06 200.06 0 0 0 32.51.77c16.39-1.09 29-3 40-4.64 13.43-2 24-3.61 35.15-2.71 8.11.66 26.67 7.87 34.23 15.49 7.75 7.81 10.72 16.48 8.61 25.09-2.82 11.47-14.41 21.46-31 26.72l-.61.19c5.2 2.08 6.48 3 7 3.52a1 1 0 0 1 .26.58c.06.64 1.36 15.86-5.52 23.43-.48.55-1.38 1.54-9.7 1.54zm-110.89-13.72h.14c78.2 11 116.5 13.31 119 10.81 5.72-6.3 5.19-19.12 5-21.51-.63-.46-2.61-1.54-8.8-3.9a1 1 0 0 1 .11-1.9c1.34-.34 2.49-.66 3.43-1 15.93-5.05 27-14.51 29.68-25.29 1.94-7.89-.86-15.92-8.09-23.2-7.28-7.33-25.16-14.27-33-14.91-10.88-.89-21.39.69-34.69 2.69-11.12 1.67-23.73 3.57-40.23 4.66a202 202 0 0 1-32.93-.79c-11.26-2.06-25-9.34-33.7-15.66-5.22-3.8-63.78 3.37-84.74 24-8.46 8.5-11.8 17.53-9.46 26.24 2.76 10.37 13.4 19.4 27.11 23 5.89 1.55 16.33 3.33 28.42 5.39l9.8 1.68a1 1 0 0 1 .83 1c-.31 8.16 4.57 14 8.2 14.56 4.34.7 12.82-.47 25.67-2.23 7.58-1 17-2.34 28.18-3.6z"/>
      <path class="cls-12" d="M244.33 305.98h119.48v4.94H244.33z"/>
      <path class="cls-3" d="M363.82 311.92H244.33a1 1 0 0 1-1-1V306a1 1 0 0 1 1-1h119.49a1 1 0 0 1 1 1v4.94a1 1 0 0 1-1 .98zm-118.48-2h117.48V307H245.33z"/>
      <path class="cls-2" d="M473.78 275.08c-18.3 0-36.43-5.78-53.28-17.12s-28.17-25.19-33.67-31.88l-1.08-1.3a30 30 0 0 1 46.13-38.36l1.3 1.58c22.74 27.67 37 28.62 47 26.36 13.6-3.1 26.68-10 30.22-39a30 30 0 1 1 59.56 7.26c-2.54 20.85-8.89 38.65-18.87 52.91-13.4 19.15-32.77 31.72-57.57 37.38a88.5 88.5 0 0 1-19.74 2.17z"/>
      <path class="cls-3" d="M473.78 276.08c-18.67 0-36.79-5.82-53.83-17.29-16.85-11.33-28.36-25.35-33.89-32.08l-1.08-1.3a31 31 0 0 1 47.67-39.64l1.3 1.58c22.39 27.25 36.33 28.21 46 26 13.25-3 26-9.74 29.45-38.2a31 31 0 1 1 61.54 7.5c-2.56 21-9 39-19 53.36-13.55 19.36-33.12 32.07-58.17 37.78a89.78 89.78 0 0 1-19.99 2.29zm-65-99.49a29 29 0 0 0-22.25 47.54l1.08 1.31c5.47 6.66 16.86 20.52 33.46 31.69s34.45 16.95 52.72 16.95a87.82 87.82 0 0 0 19.49-2.21c24.55-5.6 43.72-18 57-37 9.88-14.12 16.17-31.76 18.7-52.45a29 29 0 0 0-57.57-7c-3.62 29.68-17 36.72-31 39.9-10.2 2.33-24.87 1.4-48-26.7l-1.3-1.57a28.81 28.81 0 0 0-19.64-10.34q-1.36-.12-2.71-.12z"/>
      <path class="cls-7" d="M162.5 154.67a11.28 11.28 0 0 1 8.91-7.13c10.73-1.78 16.75 4.71 19.24 9.67 2 4-.09 12.58-8.6 8s-13.38-1.49-13.65 3.85c-.24 4.6.51 12.05 4.27 12.64 0 0 .85-6 5-9.25 7.26-5.62 16.81-8.12 20.49-3.73 3.38 4 1.86 7.9.18 8.94-2.54 1.58-8.51 3.15-8.43 10.49.07 6.55.87 18.83-4.11 23.58-3.43 3.28-19.15 11.54-29.87 2.26s-13.75-18-13.26-26.35c.55-9.3 6.37-10.92 6.37-10.92s-2.18-16.48-2.51-19.59-.45-14.72 6.91-15.55c10.87-1.22 9.79 32.81 9.79 32.81"/>
      <path class="cls-3" d="M167.78 219.26a18.56 18.56 0 0 1-12.49-4.49c-9.73-8.43-14.18-17.31-13.6-27.16.46-7.86 4.5-10.65 6.28-11.5-.44-3.32-2.12-16.11-2.41-18.85a28.48 28.48 0 0 1 .59-9c1.15-4.62 3.64-7.27 7.19-7.67a5.7 5.7 0 0 1 4.66 1.61c2.18 2 3.61 5.8 4.55 10.1a12.27 12.27 0 0 1 8.71-5.75c13-2.14 18.82 7.27 20.3 10.21a8.73 8.73 0 0 1-.89 8.83c3.41-.41 6.41.28 8.27 2.5a8.42 8.42 0 0 1 2.17 6.71 5.42 5.42 0 0 1-2.22 3.73c-.45.28-1 .56-1.57.85-2.87 1.46-6.45 3.27-6.39 8.78v2.09c.14 7 .35 17.63-4.45 22.22-2.24 2.16-10.26 6.78-18.7 6.79zM154 142.57h-.45c-7.27.82-6 14.31-6 14.45.33 3.06 2.49 19.4 2.51 19.57a1 1 0 0 1-.72 1.09c-.2.06-5.15 1.61-5.64 10-.55 9.31 3.56 17.43 12.92 25.53 5.45 4.72 12.14 4.44 16.79 3.36 5.65-1.3 10.2-4.12 11.73-5.59 4.17-4 4-14.06 3.83-20.73v-2.11c-.07-6.75 4.66-9.15 7.48-10.59.56-.28 1-.53 1.42-.76a3.47 3.47 0 0 0 1.3-2.35 6.29 6.29 0 0 0-1.72-5.11c-3-3.58-11.76-1.81-19.11 3.88-3.78 2.92-4.62 8.55-4.63 8.6a1 1 0 0 1-.4.66 1 1 0 0 1-.75.18c-5.61-.87-5.18-12.37-5.11-13.68a7.07 7.07 0 0 1 3.44-6.08c2.85-1.61 7-1.11 11.69 1.4 1.94 1 4.62 1.92 6.36.22s1.84-5 .88-6.91a16.61 16.61 0 0 0-18.19-9.13 10.21 10.21 0 0 0-8.12 6.44 1 1 0 0 1-.32.47 114.13 114.13 0 0 1 1.12 19 1 1 0 0 1-2-.06c0-.25.71-24.88-5.61-30.71a3.76 3.76 0 0 0-2.7-1.04zM174.68 164a5.77 5.77 0 0 0-2.87.68 5.14 5.14 0 0 0-2.42 4.45c-.24 4.66.58 9.75 2.53 11.21.5-2 1.85-6.12 5.14-8.67a33.66 33.66 0 0 1 7.49-4.39 12.62 12.62 0 0 1-3-1.18 15.22 15.22 0 0 0-6.87-2.1z"/>
      <path class="cls-7" d="M177 216.62s3.69-5.27 2.11-11.2c-1.37-5.15-6.36-7.15-6.36-7.15"/>
      <path class="cls-3" d="M177 217.62a1 1 0 0 1-.82-1.57s3.4-5 2-10.37c-1.22-4.58-5.73-6.46-5.77-6.48a1 1 0 0 1 .75-1.85 12.48 12.48 0 0 1 7 7.82c1.68 6.3-2.1 11.8-2.26 12a1 1 0 0 1-.9.45z"/>
      <path class="cls-7" d="M149.06 176.74s7.64-2.26 12.09-.27c5.17 2.32 7.45 10.27 1.92 13-7.28 3.57-11.36 3.86-7.1 7.91"/>
      <path class="cls-3" d="M156 198.37a1 1 0 0 1-.69-.28c-1.13-1.08-2.26-2.37-2-3.79.3-1.7 2.23-2.54 5.43-3.95 1.16-.51 2.48-1.09 3.93-1.8a4.51 4.51 0 0 0 2.65-4.37 8 8 0 0 0-4.53-6.8c-4.07-1.82-11.32.29-11.4.31a1 1 0 1 1-.57-1.92c.33-.1 8-2.35 12.78-.22a10.05 10.05 0 0 1 5.71 8.59 6.54 6.54 0 0 1-3.77 6.2c-1.48.73-2.82 1.31-4 1.83-2 .89-4.15 1.82-4.26 2.46 0 .13 0 .66 1.41 2a1 1 0 0 1-.69 1.72zM440.42 399.59a1 1 0 0 1-.36-.07c-1.38-.53-138.91-52.77-176.82-55.42a1 1 0 0 1-.93-1.07 1 1 0 0 1 1.07-.93c38.21 2.66 176 55 177.39 55.54a1 1 0 0 1-.36 1.93z"/>
      <path class="cls-3" d="M336.34 362.86a1 1 0 0 1-.35-1.94c5.54-2.07 41.71-8.71 43.24-9a1 1 0 0 1 .36 2c-.37.07-37.53 6.89-42.9 8.89a1 1 0 0 1-.35.05z"/>
      <path class="cls-13" d="M252.12 401.01l63.16 9.75"/>
      <path class="cls-3" d="M315.28 411.76h-.15L252 402a1 1 0 1 1 .3-2l63.15 9.75a1 1 0 0 1-.15 2z"/>
      <path class="cls-12" d="M244.81 305.98h119l52-34H297.15l-52.34 34z"/>
      <path class="cls-3" d="M363.82 307h-119a1 1 0 0 1-.54-1.84l52.33-34a1 1 0 0 1 .54-.16h118.67a1 1 0 0 1 .55 1.84l-52 34a1 1 0 0 1-.55.16zm-115.63-2h115.33l48.94-32h-115z"/>
      <path class="cls-12" d="M363.82 306H244.33l-23.77-77.46a5.67 5.67 0 0 1 5.42-7.33h107.63a5.67 5.67 0 0 1 5.42 4z"/>
      <path d="M363.82 306s-61.75-21.31-43.5-32.31c15.81-9.53-99.75-45.15-99.75-45.15a5.67 5.67 0 0 1 5.42-7.33h107.62a5.67 5.67 0 0 1 5.42 4z" fill="#c6c6c6" opacity=".3"/>
      <path class="cls-6" d="M430.17 394.73s6.31-11.64 18.31-4.31 28.87 8.74 38 15.46c20.67 15.22 21.33 40.87-5.67 30.87s-39.41-14-48.24-12.83 7-10.81 7-17.82-9.4-11.37-9.4-11.37z"/>
      <path class="cls-3" d="M491.46 440a32.39 32.39 0 0 1-11-2.29c-26.49-9.81-39-14-47.76-12.78-1.2.17-2.89.25-3.57-.93-.94-1.62.89-4 3.66-7.57 2.58-3.33 5.79-7.48 5.79-10.31 0-6.3-8.75-10.42-8.83-10.46a1 1 0 0 1-.46-1.38c.12-.22 3-5.36 8.52-6.86 3.52-.95 7.28-.22 11.19 2.17 5.78 3.54 12.75 5.67 19.48 7.74 7.1 2.18 13.81 4.24 18.6 7.77 12 8.83 18.39 22.27 14.25 29.95-1.78 3.26-5.2 4.95-9.87 4.95zm-55.69-17.27c9 0 21.67 4.32 45.4 13.1 9.25 3.43 16 2.79 18.41-1.74 4-7.42-3.84-20.15-13.67-27.39-4.51-3.32-11.06-5.34-18-7.47S454 394.94 448 391.28c-3.42-2.09-6.65-2.75-9.61-2a12.77 12.77 0 0 0-6.74 5c2.55 1.41 9 5.56 9 11.75 0 3.52-3.3 7.78-6.2 11.53-1.46 1.89-3.45 4.45-3.5 5.31a4 4 0 0 0 1.55 0 24.4 24.4 0 0 1 3.27-.16z"/>
      <path class="cls-15" d="M340.93 136.59c-1.77-.78-4.43-.24-7.78 1l-5.27 32.9c5.95-.46 10.78-2 13.05-3.93 4.82-3.97 6.07-27.3 0-29.97zM299.37 150.83c-19.27 4.24-33.12 3.09-33.12 3.09-8.94-.06-.6 18.67 4.82 21.33s14.57 2.84 21.08 0-.6-15.33 13.48-8.67a40.85 40.85 0 0 0 7 2.55l3.86-24.1a95.13 95.13 0 0 1-17.12 5.8zM327 140.24l-4.86 30.35q1.25.06 2.46.05l5.08-31.64z"/>
      <path class="cls-16" d="M316.51 145l-3.86 24.1a45.75 45.75 0 0 0 9.51 1.45l4.84-30.31c-3.15 1.46-6.68 3.15-10.49 4.76zM329.68 139l-5.06 31.61c1.11 0 2.2 0 3.26-.13l5.27-32.9c-1.09.42-2.24.92-3.47 1.42z"/>
      <ellipse class="cls-12" cx="342.38" cy="510.8" rx="127.35" ry="11.79"/>
      <path class="cls-6" d="M244.33 305.98h119.48v4.94H244.33z"/>
      <path class="cls-3" d="M363.82 311.92H244.33a1 1 0 0 1-1-1V306a1 1 0 0 1 1-1h119.49a1 1 0 0 1 1 1v4.94a1 1 0 0 1-1 .98zm-118.48-2h117.48V307H245.33z"/>
      <path class="cls-12" d="M415.81 276.92l-52 34v-4.94l52-34v4.94z"/>
      <path class="cls-3" d="M363.82 311.92a1 1 0 0 1-1-1V306a1 1 0 0 1 .45-.84l52-34a1 1 0 0 1 1.55.84v4.94a1 1 0 0 1-.45.84l-52 34a1 1 0 0 1-.55.14zm1-5.4v2.55l50-32.69v-2.55zm51-29.6z"/>
      <path class="cls-6" d="M415.81 276.92l-52 34v-4.94l52-34v4.94z"/>
      <path class="cls-3" d="M363.82 311.92a1 1 0 0 1-1-1V306a1 1 0 0 1 .45-.84l52-34a1 1 0 0 1 1.55.84v4.94a1 1 0 0 1-.45.84l-52 34a1 1 0 0 1-.55.14zm1-5.4v2.55l50-32.69v-2.55zm51-29.6zM492.32 439.26a1 1 0 0 1-.39-1.92 5.85 5.85 0 0 0 3.33-5.12c.48-4.79-2.6-12.44-10.5-17.89-9.22-6.37-39.28-16.35-39.58-16.45a1 1 0 0 1 .63-1.9c1.25.41 30.63 10.18 40.09 16.71 8.61 5.94 11.91 14.19 11.35 19.73-.33 3.25-1.93 5.65-4.53 6.76a1 1 0 0 1-.4.08zM451.74 427.67a1 1 0 0 1-.93-.63c-.12-.29-2.84-7.21-2.15-12.57.76-5.89 4.89-6.35 5.06-6.37a1 1 0 0 1 1.09.9 1 1 0 0 1-.89 1.09c-.14 0-2.74.41-3.28 4.63-.62 4.84 2 11.51 2 11.58a1 1 0 0 1-.56 1.3 1 1 0 0 1-.34.07z"/>
      <path class="cls-3" d="M459.52 429.72a1 1 0 0 1-1-.72c-.08-.26-1.88-6.5-1.42-11.32.5-5.32 3.32-5.84 3.64-5.88a1 1 0 0 1 .29 2c-.09 0-1.6.48-1.94 4.09-.42 4.43 1.33 10.51 1.35 10.57a1 1 0 0 1-1 1.28zM227.28 423.77a1 1 0 0 1-.76-1.65s1.53-2 1.44-7.07a27 27 0 0 0-1.61-7.83 1 1 0 0 1 1.87-.72A28.53 28.53 0 0 1 230 415c.11 5.87-1.71 8.17-1.92 8.41a1 1 0 0 1-.8.36zM235.82 423.77a1 1 0 0 1-.76-1.65s1.88-2.38 1.76-8.57a32.37 32.37 0 0 0-1.93-9.41 1 1 0 0 1 1.87-.72 33.81 33.81 0 0 1 2.07 10.09c.14 7-2.14 9.79-2.24 9.91a1 1 0 0 1-.77.35z"/>
      <path d="M276.08 52.87c-1.87-5.92-20.42-10.6-31.57-6.94s-14.47 9-12.88 11.87 10.27-7.93 23.71-4.8 23.66 9.15 20.74-.13z" fill="#9b2365" opacity=".5"/>
      <path class="cls-7" d="M542 106.42a11.28 11.28 0 0 0-9.86-5.75c-10.88-.19-15.88 7.11-17.62 12.38-1.39 4.21 1.93 12.43 9.68 6.68s13-3.43 14.07 1.82c.91 4.51 1.25 12-2.37 13.13 0 0-1.73-5.85-6.31-8.42-8-4.5-17.82-5.58-20.82-.7-2.75 4.47-.69 8.09 1.13 8.88 2.74 1.19 8.88 1.88 9.87 9.15.89 6.49 1.88 18.75 7.51 22.73 3.88 2.74 20.63 8.63 29.88-2.12s11-19.85 9.27-28c-1.9-9.12-7.9-9.87-7.9-9.87s-.25-16.62-.37-19.75-1.7-14.63-9.1-14.37c-10.93.38-4.9 33.89-4.9 33.89"/>
      <path class="cls-3" d="M542.53 171.35c-7.07 0-13.64-2.7-15.81-4.24-5.42-3.83-6.76-14.36-7.65-21.33-.09-.74-.18-1.44-.27-2.08-.75-5.46-4.55-6.73-7.6-7.76-.61-.2-1.18-.4-1.67-.61a5.42 5.42 0 0 1-2.74-3.37 8.43 8.43 0 0 1 1.16-7c1.52-2.46 4.39-3.58 7.82-3.68a8.73 8.73 0 0 1-2.17-8.61c1-3.12 5.44-13.28 18.59-13.06a12.27 12.27 0 0 1 9.45 4.41c.3-4.39 1.16-8.35 3-10.66a5.68 5.68 0 0 1 4.36-2.19c3.59-.14 6.42 2.14 8.24 6.54a28.43 28.43 0 0 1 1.9 8.8c.11 2.75.31 15.65.36 19 1.88.58 6.28 2.75 7.89 10.46 2 9.66-1.1 19.1-9.49 28.86-4.22 4.93-9.9 6.52-15.37 6.52zm-26.2-48c-3.11 0-5.57.89-6.69 2.71a6.29 6.29 0 0 0-1 5.3 3.48 3.48 0 0 0 1.63 2.13c.41.18.92.35 1.51.55 3 1 8 2.69 9 9.38.09.65.18 1.35.27 2.1.84 6.62 2.12 16.62 6.82 19.95 1.74 1.23 6.65 3.35 12.42 3.82 4.76.38 11.41-.31 16.12-5.78 8.08-9.38 11-18 9.05-27.14-1.73-8.33-7-9.08-7-9.09a1 1 0 0 1-.88-1c0-.17-.25-16.65-.37-19.72 0-.14-.77-13.62-8.07-13.42a3.72 3.72 0 0 0-2.88 1.51c-5.4 6.69-1.11 31-1.07 31.2a1 1 0 1 1-2 .35 114.26 114.26 0 0 1-1.67-19 1 1 0 0 1-.39-.42 10.21 10.21 0 0 0-9-5.19h-.39a16.59 16.59 0 0 0-16.26 11.69c-.67 2 0 5.34 1.88 6.71s4.49.16 6.26-1.15c4.27-3.17 8.31-4.27 11.36-3.09a7.06 7.06 0 0 1 4.29 5.52c.26 1.28 2.36 12.59-3.06 14.28A1 1 0 0 1 535 135c0-.05-1.68-5.5-5.84-7.84a27.34 27.34 0 0 0-12.83-3.79zm5.72-1.24a33.54 33.54 0 0 1 8 3.25c3.62 2 5.56 5.88 6.35 7.82 1.72-1.73 1.78-6.88.86-11.46a5.14 5.14 0 0 0-3-4c-2.4-.92-5.75.08-9.45 2.83a12.6 12.6 0 0 1-2.81 1.58z"/>
      <path class="cls-7" d="M536.76 169.82s-4.42-4.68-3.76-10.82c.61-5.29 5.25-8 5.25-8"/>
      <path class="cls-3" d="M536.76 170.82a1 1 0 0 1-.73-.31c-.19-.21-4.73-5.09-4-11.57a12.48 12.48 0 0 1 5.74-8.75 1 1 0 0 1 1 1.73s-4.22 2.54-4.76 7.25c-.64 5.56 3.42 9.93 3.46 10a1 1 0 0 1-.73 1.69z"/>
      <path class="cls-7" d="M558.54 126.3s-7.89-1.12-12 1.5c-4.78 3-5.87 11.25 0 13.13 7.72 2.46 11.8 2.16 8.18 6.79"/>
      <path class="cls-3" d="M554.72 148.71a1 1 0 0 1-.79-1.62c1.19-1.52 1.15-2.05 1.11-2.18-.21-.62-2.43-1.22-4.57-1.81-1.24-.34-2.65-.72-4.23-1.23a6.54 6.54 0 0 1-4.63-5.59A10.05 10.05 0 0 1 546 127c4.38-2.79 12.34-1.69 12.68-1.65a1 1 0 0 1-.28 2c-.08 0-7.57-1-11.32 1.35a8 8 0 0 0-3.49 7.39 4.51 4.51 0 0 0 3.26 3.94c1.54.49 2.92.87 4.15 1.2 3.37.92 5.4 1.47 5.94 3.11.45 1.37-.47 2.81-1.43 4a1 1 0 0 1-.79.37zM363.82 307H244.33a1 1 0 0 1-1-.71l-23.77-77.46a6.67 6.67 0 0 1 6.38-8.63h107.67a6.64 6.64 0 0 1 6.39 4.7l24.79 80.79a1 1 0 0 1-1 1.29zm-118.75-2h117.39l-24.39-79.5a4.65 4.65 0 0 0-4.46-3.3H226a4.67 4.67 0 0 0-4.46 6z"/>
      <path d="M300.32 185.92s8 2.56 13 1.5a12.48 12.48 0 0 0 6.48-4.17" stroke="#373535" stroke-linecap="round" stroke-linejoin="round" stroke-width="2" fill="none"/>
      <path class="cls-5" d="M552.15 210.94c-4.95 9.35-6.71 13.47-8.41 9.06s8.57-24.41 1.32-31.32 3.7-14.05 10.16-8.85 1.88 21.77-3.07 31.11zM166.26 248.13c3.1 5.86 4.21 8.45 5.27 5.68s-5.37-15.3-.83-19.64-2.32-8.81-6.37-5.55-1.17 13.65 1.93 19.51z"/>
      <path d="M87 66.54l12.76 48.82a4 4 0 0 1-2.86 4.88l-78.12 20.42a4 4 0 0 1-4.88-2.86L1.14 89a4.2 4.2 0 0 1 3-5.12l77.71-20.34a4.2 4.2 0 0 1 5.15 3z" fill="#1caaa0"/>
      <path class="cls-3" d="M17.76 141.79a5 5 0 0 1-4.83-3.79L.17 89.23a5.21 5.21 0 0 1 3.72-6.34L81.6 62.57a5.21 5.21 0 0 1 6.34 3.72l12.76 48.82a5 5 0 0 1-3.58 6.1L19 141.62a5.06 5.06 0 0 1-1.24.17zM82.91 64.4a3.2 3.2 0 0 0-.81.1L4.39 84.82a3.2 3.2 0 0 0-2.29 3.9l12.76 48.82a3 3 0 0 0 3.66 2.14l78.09-20.41a3 3 0 0 0 2.15-3.66L86 66.79a3.2 3.2 0 0 0-3.09-2.39z"/>
      <path d="M5.12 85.32l12.15 46.5a4 4 0 0 0 4.93 2.89l34.39-9 34.39-9a4 4 0 0 0 2.89-4.93L81.71 65.3" fill="#efb789"/>
      <path class="cls-3" d="M21.17 135.84a5 5 0 0 1-4.87-3.77L4.15 85.57a1 1 0 0 1 1.94-.51l12.15 46.5a3 3 0 0 0 3.76 2.18l68.77-18a3 3 0 0 0 2.17-3.71l-12.2-46.48a1 1 0 0 1 1.94-.55l12.15 46.5a5 5 0 0 1-3.6 6.15l-68.77 18a5.1 5.1 0 0 1-1.29.19z"/>
      <path class="cls-21" d="M43.19 74.45l13.4 51.27.58-.15a8.57 8.57 0 0 1 6.34-7.25l26.1-6.82a4 4 0 0 0 2.89-4.93L80.34 60.06a4 4 0 0 0-4.93-2.89L49.32 64a8.57 8.57 0 0 0-6.13 10.45z"/>
      <path class="cls-3" d="M56.59 126.72a1 1 0 0 1-1-.75L42.22 74.71A9.58 9.58 0 0 1 49.06 63l26.1-6.82a5.05 5.05 0 0 1 6.15 3.6l12.15 46.5a5 5 0 0 1-3.6 6.15l-26.1 6.82a7.54 7.54 0 0 0-5.6 6.41 1 1 0 0 1-.74.84l-.58.15a1 1 0 0 1-.25.07zM76.43 58a3 3 0 0 0-.77.1L49.57 65a7.58 7.58 0 0 0-5.41 9.24l12.71 48.65a9.52 9.52 0 0 1 6.39-5.5l26.1-6.82a3 3 0 0 0 2.17-3.71L79.38 60.32A3 3 0 0 0 76.43 58z"/>
      <path class="cls-21" d="M3.75 80.08l12.15 46.5a4 4 0 0 0 4.93 2.89l26.09-6.82a8.45 8.45 0 0 1 1.49-.25 8.58 8.58 0 0 1 7.59 3.47l.58-.15-13.39-51.27a8.56 8.56 0 0 0-10.46-6.12L6.64 75.15a4 4 0 0 0-2.89 4.93z"/>
      <path class="cls-3" d="M19.81 130.6a5 5 0 0 1-4.88-3.76L2.78 80.33a5 5 0 0 1 3.6-6.15l26.09-6.82a9.7 9.7 0 0 1 1.67-.28 9.55 9.55 0 0 1 10 7.12l13.4 51.27a1 1 0 0 1-.71 1.22l-.58.15a1 1 0 0 1-1.06-.38 7.6 7.6 0 0 0-6.7-3.07 7.46 7.46 0 0 0-1.32.22l-26.09 6.82a5 5 0 0 1-1.27.17zM34.91 69h-.61a7.64 7.64 0 0 0-1.3.3L6.89 76.12a3 3 0 0 0-2.17 3.71l12.15 46.5a3 3 0 0 0 3.71 2.17l26.09-6.82a9.56 9.56 0 0 1 8.26 1.69L42.22 74.71A7.56 7.56 0 0 0 34.91 69z"/>
      <path d="M102.44 319.33c-1.12-3-2.7-3.72-6.06-4.42s-11.84-2.14-19.21-3.27-15.91-2.33-19.32-2.64-5.15-.08-7.12 2.41-3.52 7-4.79 15.3c-1.26 8.22-1.17 13.07 0 16s2.72 3.71 6.06 4.46 11.84 2.13 19.23 3.26 15.89 2.31 19.31 2.63 5.16 0 7.11-2.44 3.53-7.05 4.79-15.27c1.26-8.24 1.18-13.05 0-16.02z" fill="#f44336"/>
      <path class="cls-3" d="M92.44 354.21c-.61 0-1.26 0-2-.1-3.61-.34-12.48-1.59-19.38-2.64s-15.77-2.52-19.28-3.27c-3.67-.82-5.52-1.75-6.79-5.08s-1.3-8.33-.05-16.51v-.09c1.23-8.09 2.77-13 5-15.7s4.33-3.13 8-2.78 12.36 1.56 19.38 2.63 15.76 2.5 19.27 3.28 5.51 1.7 6.77 5 1.31 8.37.06 16.55-2.8 13.08-5 15.78a6.66 6.66 0 0 1-5.98 2.93zm-45.51-27.26c-1.17 7.68-1.19 12.59-.05 15.45 1 2.5 2.11 3.13 5.35 3.85 3.46.74 12.26 2.19 19.16 3.25s15.69 2.29 19.25 2.63c3.3.28 4.59 0 6.23-2.06 2-2.39 3.41-7.09 4.59-14.81v-.12c1.16-7.62 1.18-12.55 0-15.43-.94-2.5-2.1-3.12-5.33-3.8-3.48-.78-12.49-2.24-19.15-3.26s-15.67-2.34-19.22-2.65c-3.29-.31-4.58-.07-6.25 2-2 2.43-3.41 7.14-4.58 14.83zm-1-.2z"/>
      <path fill="#fafafa" d="M65.51 340.57l3.24-21.18 16.04 13.29-19.28 7.89z"/>
      <path class="cls-3" d="M65.51 341.57a1 1 0 0 1-1-1.15l3.24-21.18a1 1 0 0 1 1.63-.62l16 13.29a1 1 0 0 1-.26 1.7l-19.23 7.89a1 1 0 0 1-.38.07zm4-20.29L66.77 339l16.1-6.59z"/>
      <ellipse class="cls-24" cx="563.62" cy="358.55" rx="14.92" ry="23.79" transform="rotate(-44.84 563.6 358.549)"/>
      <path class="cls-3" d="M572.3 379.44a20 20 0 0 1-4.52-.55 33 33 0 0 1-15.44-9.11c-9.64-9.69-12.41-22.61-6.19-28.8 3.08-3.06 7.81-4 13.32-2.76a35.55 35.55 0 0 1 24.47 24.61c1.25 5.52.24 10.25-2.84 13.31a12.12 12.12 0 0 1-8.8 3.3zM555 339.67a10.18 10.18 0 0 0-7.4 2.73c-5.44 5.41-2.66 17.06 6.2 26a31 31 0 0 0 14.47 8.58c4.82 1.12 8.89.33 11.46-2.23s3.39-6.62 2.3-11.45a31 31 0 0 0-8.5-14.52 31 31 0 0 0-14.53-8.62 18.07 18.07 0 0 0-4-.49z"/>
      <path class="cls-24" d="M565.14 347.08a74.62 74.62 0 0 0-7 5c-1.36 1.35-8.83-7.9-8.83-7.9"/>
      <path class="cls-3" d="M557.76 353.17h-.09c-2.23-.12-7.15-5.92-9.15-8.4a1 1 0 1 1 1.56-1.26c2.76 3.42 6.34 7.16 7.56 7.62a79 79 0 0 1 7-4.89 1 1 0 0 1 1.07 1.69 69.74 69.74 0 0 0-6.85 4.82 1.49 1.49 0 0 1-1.1.42zM547.24 342.3a1 1 0 0 1-.58-.19 19.68 19.68 0 0 1-6.63-9.56c-8.73 1.08-14-.68-15.93-5.33-.89-2.11-.37-4.3.08-6.24.71-3 1-4.92-1.57-6.63l-5.53-3.66a1 1 0 1 1 1.1-1.67l5.53 3.66c3.88 2.57 3.06 6 2.41 8.75-.42 1.8-.83 3.5-.19 5 1.57 3.71 6.07 5.08 13.69 4.15a14.28 14.28 0 0 1 .57-6.23c1.33-4.23 3.88-4.35 4.92-4.21 2.45.34 4.66 3.1 4.73 5.9 0 1.42-.47 4.82-5.9 5.87q-1 .19-1.92.34a17.46 17.46 0 0 0 5.81 8.22 1 1 0 0 1-.59 1.81zm-2.65-20.19c-1.38 0-2.15 1.75-2.49 2.84a12.35 12.35 0 0 0-.5 5.35l2-.35c2.81-.54 4.33-1.91 4.28-3.86s-1.51-3.76-3-4z"/>
      <path d="M637.89 232.67a36.5 36.5 0 1 0 36.5 36.5 36.5 36.5 0 0 0-36.5-36.5zm0 45.41a8.91 8.91 0 1 1 8.91-8.91 8.91 8.91 0 0 1-8.91 8.91zm0 0" fill="#606163"/>
      <path class="cls-3" d="M637.89 306.67a37.5 37.5 0 1 1 37.5-37.5 37.55 37.55 0 0 1-37.5 37.5zm0-73a35.5 35.5 0 1 0 35.5 35.5 35.54 35.54 0 0 0-35.5-35.5zm0 45.41a9.91 9.91 0 1 1 9.91-9.91 9.92 9.92 0 0 1-9.91 9.91zm0-17.82a7.91 7.91 0 1 0 7.91 7.91 7.92 7.92 0 0 0-7.91-7.91z"/>
      <g opacity=".2">
        <path class="cls-16" d="M629.29 242.06a1.26 1.26 0 0 0-.59-2.45A27.58 27.58 0 0 0 608.33 260a1.27 1.27 0 0 0 .93 1.52 1.17 1.17 0 0 0 .29 0 1.26 1.26 0 0 0 1.22-1 25 25 0 0 1 18.51-18.51zM666.53 276.85a1.25 1.25 0 0 0-1.52.93 25 25 0 0 1-18.51 18.51 1.26 1.26 0 0 0 .29 2.48 1.19 1.19 0 0 0 .29 0 27.55 27.55 0 0 0 20.37-20.37 1.26 1.26 0 0 0-.92-1.55z"/>
        <path class="cls-16" d="M630.91 248.13a1.26 1.26 0 0 0-.57-2.45 21.33 21.33 0 0 0-15.94 15.94 1.26 1.26 0 0 0 .94 1.51 1.16 1.16 0 0 0 .29 0 1.25 1.25 0 0 0 1.22-1 18.83 18.83 0 0 1 14.06-14.06zM661.38 276.73a1.26 1.26 0 0 0-2.45-.56 18.78 18.78 0 0 1-14.06 14 1.26 1.26 0 0 0 .29 2.49 1.1 1.1 0 0 0 .28 0 21.3 21.3 0 0 0 15.94-15.94z"/>
        <path class="cls-16" d="M632 251.75a15.13 15.13 0 0 0-11.51 11.51 1.26 1.26 0 0 0 1 1.5 1.35 1.35 0 0 0 .27 0 1.25 1.25 0 0 0 1.23-1 12.62 12.62 0 0 1 9.59-9.59 1.25 1.25 0 0 0 1-1.49 1.26 1.26 0 0 0-1.58-.93zM655.31 275.08a1.26 1.26 0 0 0-2.46-.54 12.59 12.59 0 0 1-9.59 9.59 1.26 1.26 0 0 0 .27 2.49h.27a15.12 15.12 0 0 0 11.51-11.54z"/>
      </g>
      <path class="cls-24" d="M637.89 280.6a11.43 11.43 0 1 1 11.43-11.43 11.44 11.44 0 0 1-11.43 11.43zm0-17.82a6.4 6.4 0 1 0 6.4 6.39 6.4 6.4 0 0 0-6.4-6.39zm0 0"/>
      <path class="cls-3" d="M637.89 281.6a12.43 12.43 0 1 1 12.43-12.43 12.44 12.44 0 0 1-12.43 12.43zm0-22.86a10.43 10.43 0 1 0 10.43 10.43 10.44 10.44 0 0 0-10.43-10.42zm0 17.83a7.4 7.4 0 1 1 7.4-7.4 7.4 7.4 0 0 1-7.4 7.4zm0-12.79a5.4 5.4 0 1 0 5.4 5.39 5.4 5.4 0 0 0-5.4-5.39z"/>
      <path d="M448.08 42l-26.81 22.76a14.66 14.66 0 1 0 23.8 8l7-6a14.66 14.66 0 1 0-4-24.77z" fill="#d2d4d5"/>
      <path class="cls-3" d="M430.78 91.6q-.65 0-1.3-.05A15.66 15.66 0 0 1 420.62 64l26.82-22.78a15.66 15.66 0 1 1 4.84 26.68l-6.12 5.2a15.67 15.67 0 0 1-15.38 18.5zm17.95-48.86l-26.82 22.78a13.66 13.66 0 1 0 22.18 7.41 1 1 0 0 1 .33-1l7-6a1 1 0 0 1 1-.17 13.66 13.66 0 1 0-3.73-23.08z"/>
      <path d="M432.67 70.9l-1.6 1.36-1.36-1.6a2.62 2.62 0 0 0-4 3.39l1.36 1.6-1.59 1.35a2.62 2.62 0 0 0-.3 3.69 2.62 2.62 0 0 0 3.69.3l1.6-1.36 1.36 1.6a2.62 2.62 0 0 0 4-3.39l-1.36-1.6 1.6-1.36a2.62 2.62 0 0 0 .3-3.69 2.62 2.62 0 0 0-3.7-.29z" fill="#878791"/>
      <path class="cls-3" d="M433.83 83.16h-.3a3.6 3.6 0 0 1-2.46-1.26l-.71-.83-.83.71a3.62 3.62 0 1 1-4.69-5.51l.83-.71-.71-.83a3.62 3.62 0 1 1 5.52-4.73l.71.83.83-.71a3.62 3.62 0 0 1 4.69 5.52l-.83.71.71.83a3.62 3.62 0 0 1-2.75 6zm-3.36-4.52a1 1 0 0 1 .76.35l1.36 1.6a1.61 1.61 0 0 0 1.1.57 1.59 1.59 0 0 0 1.18-.38 1.62 1.62 0 0 0 .19-2.28l-1.36-1.6a1 1 0 0 1 .12-1.41l1.6-1.36a1.62 1.62 0 0 0-2.1-2.47l-1.6 1.34a1 1 0 0 1-.73.24 1 1 0 0 1-.68-.35L429 71.3a1.62 1.62 0 0 0-2.47 2.09l1.36 1.6a1 1 0 0 1-.12 1.41l-1.6 1.36a1.62 1.62 0 0 0 2.1 2.47l1.6-1.36a1 1 0 0 1 .6-.23z"/>
      <circle cx="453.6" cy="48.82" r="2.62" transform="rotate(-40.34 453.61 48.818)" fill="#ff6e37"/>
      <path class="cls-3" d="M453.6 52.44a3.62 3.62 0 0 1-2.34-6.37 3.62 3.62 0 1 1 2.34 6.38zm-1-4.85a1.62 1.62 0 1 0 2.28.19 1.62 1.62 0 0 0-2.28-.19z"/>
      <circle cx="461.23" cy="57.81" r="2.62" transform="rotate(-40.34 461.247 57.803)" fill="#a5dc69"/>
      <path class="cls-3" d="M461.23 61.43a3.62 3.62 0 1 1 2.34-.86 3.61 3.61 0 0 1-2.34.86zm0-5.24a1.61 1.61 0 0 0-1 .38 1.62 1.62 0 1 0 1.18-.38zm-1.69-.38z"/>
      <circle cx="452.92" cy="57.13" r="2.62" transform="rotate(-40.34 452.936 57.129)" fill="#6e87f5"/>
      <path class="cls-3" d="M452.92 60.75a3.62 3.62 0 0 1-2.35-6.37 3.62 3.62 0 1 1 2.35 6.38zm-1.05-4.85a1.62 1.62 0 1 0 2.28.19 1.62 1.62 0 0 0-2.28-.19z"/>
      <circle cx="461.9" cy="49.5" r="2.62" transform="rotate(-40.34 461.921 49.492)" fill="#dc4b4b"/>
      <path class="cls-3" d="M461.91 53.12a3.62 3.62 0 0 1-2.35-6.37 3.62 3.62 0 1 1 2.35 6.38zm-1.05-4.85a1.62 1.62 0 1 0 2.28.19 1.62 1.62 0 0 0-2.28-.19z"/>
      <path class="cls-13" d="M431 49.62a4.71 4.71 0 0 0-.54 6.64l.34.4 7.18-6.1-.34-.4a4.71 4.71 0 0 0-6.64-.54z"/>
      <path class="cls-3" d="M430.8 57.66h-.08a1 1 0 0 1-.68-.35l-.34-.4a5.71 5.71 0 0 1 .66-8.05 5.72 5.72 0 0 1 8.05.66l.34.4a1 1 0 0 1-.12 1.41l-7.18 6.1a1 1 0 0 1-.65.23zm3.2-8.16a3.69 3.69 0 0 0-2.4.88 3.71 3.71 0 0 0-.71 4.85l5.61-4.77a3.68 3.68 0 0 0-2.2-1zm-3 .12z"/>
      <path class="cls-3" d="M431 50.62a1 1 0 0 1-.76-.35l-4.06-4.78a2.17 2.17 0 0 0-1.49-.77 2.15 2.15 0 0 0-1.6.51l-1.07.91a4.19 4.19 0 0 1-5.91-.48l-3.69-4.34a1 1 0 1 1 1.52-1.32l3.69 4.34a2.19 2.19 0 0 0 3.09.25l1.07-.91a4.19 4.19 0 0 1 5.91.48l4.06 4.84a1 1 0 0 1-.76 1.65z"/>
      <circle cx="189.35" cy="420.76" r="16.66" fill="#d8e037"/>
      <path class="cls-3" d="M189.34 438.42A17.66 17.66 0 1 1 207 420.76a17.68 17.68 0 0 1-17.66 17.66zm0-33.33A15.66 15.66 0 1 0 205 420.76a15.68 15.68 0 0 0-15.66-15.66zM667.49 79.87a16.29 16.29 0 1 1 16.29-16.29 16.31 16.31 0 0 1-16.29 16.29zm0-30.58a14.29 14.29 0 1 0 14.29 14.29 14.31 14.31 0 0 0-14.29-14.29z"/>
      <circle cx="674.43" cy="78.87" r="6.94" fill="#f1623b"/>
      <path class="cls-3" d="M674.43 86.8a7.94 7.94 0 1 1 7.94-7.94 7.94 7.94 0 0 1-7.94 7.94zm0-13.87a5.94 5.94 0 1 0 5.94 5.94 5.94 5.94 0 0 0-5.94-5.94zM204.41 425.87c-5.67 0-11.6-5.42-14.31-13.22a24.74 24.74 0 0 1-1.42-7.89 1 1 0 0 1 1-1 1 1 0 0 1 1 1A22.73 22.73 0 0 0 192 412c2.49 7.16 8.08 12.26 13 11.85a1 1 0 0 1 .17 2c-.28.01-.52.02-.76.02zM188.87 437.44a1 1 0 0 1-1-1 23.05 23.05 0 0 0-1.06-7.29c-2.2-7.08-7.42-12.29-12.25-12.29h-.33a1 1 0 0 1-1-.95 1 1 0 0 1 .95-1h.43c5.76 0 11.66 5.67 14.16 13.7a24.74 24.74 0 0 1 1.15 7.94 1 1 0 0 1-1.05.89z"/>
      <ellipse class="cls-12" cx="188.68" cy="523.47" rx="14.44" ry="2.44"/>
    </g>
  </g>
</svg>
