<svg xmlns="http://www.w3.org/2000/svg" viewBox="0 0 309.14 162.54">
  <defs>
    <style>
      .cls-2{fill:#373535}.cls-4{fill:#ffe3cc}.cls-7{fill:#f1f2f2}.cls-10{fill:#fff}
    </style>
  </defs>
  <g id="Layer_2" data-name="Layer 2">
    <g id="Layer_1-2" data-name="Layer 1">
      <path d="M126.14 34.86l12.76 48.82a4 4 0 0 1-2.9 4.88L57.94 109a4 4 0 0 1-4.88-2.86L40.3 57.29a4.2 4.2 0 0 1 3-5.12L121 31.86a4.2 4.2 0 0 1 5.14 3z" fill="#1caaa0"/>
      <path class="cls-2" d="M56.92 110.1a5 5 0 0 1-4.83-3.74L39.33 57.54A5.21 5.21 0 0 1 43 51.2l77.71-20.31a5.21 5.21 0 0 1 6.34 3.72l12.76 48.82a5 5 0 0 1-3.58 6.1l-78.04 20.41a5.06 5.06 0 0 1-1.27.16zm65.15-77.38a3.2 3.2 0 0 0-.81.1L43.55 53.13A3.2 3.2 0 0 0 41.27 57L54 105.86a3 3 0 0 0 3.69 2.14l78.09-20.4a3 3 0 0 0 2.15-3.66l-12.76-48.83a3.2 3.2 0 0 0-3.1-2.39z"/>
      <path d="M44.28 53.63l12.15 46.5a4 4 0 0 0 4.94 2.87l34.39-9 34.39-9a4 4 0 0 0 2.85-4.88l-12.15-46.5" fill="#efb789"/>
      <path class="cls-2" d="M60.34 104.16a5 5 0 0 1-4.87-3.77l-12.16-46.5a1 1 0 1 1 1.94-.51l12.15 46.5a3 3 0 0 0 3.71 2.17l68.77-18a3 3 0 0 0 2.17-3.71l-12.15-46.5a1 1 0 1 1 1.94-.51L134 79.87a5 5 0 0 1-3.6 6.15L61.62 104a5.1 5.1 0 0 1-1.28.16z"/>
      <path class="cls-4" d="M82.35 42.77L95.75 94l.58-.15a8.57 8.57 0 0 1 6.34-7.25l26.1-6.82a4 4 0 0 0 2.89-4.93l-12.15-46.5a4 4 0 0 0-4.93-2.89l-26.1 6.82a8.57 8.57 0 0 0-6.13 10.49z"/>
      <path class="cls-2" d="M95.75 95a1 1 0 0 1-1-.75L81.39 43a9.58 9.58 0 0 1 6.84-11.68l26.1-6.82a5.05 5.05 0 0 1 6.15 3.6l12.15 46.5a5 5 0 0 1-3.6 6.15l-26.1 6.82A7.54 7.54 0 0 0 97.32 94a1 1 0 0 1-.74.84L96 95a1 1 0 0 1-.25 0zm19.85-68.64a3 3 0 0 0-.77.1l-26.1 6.82a7.58 7.58 0 0 0-5.41 9.24L96 91.16a9.52 9.52 0 0 1 6.39-5.5l26.1-6.82a3 3 0 0 0 2.17-3.71l-12.15-46.5a3 3 0 0 0-2.91-2.27z"/>
      <path class="cls-4" d="M42.91 48.4l12.16 46.5A4 4 0 0 0 60 97.79L86.09 91a8.45 8.45 0 0 1 1.49-.25 8.58 8.58 0 0 1 7.59 3.47l.58-.15-13.4-51.3a8.56 8.56 0 0 0-10.45-6.13l-26.1 6.82a4 4 0 0 0-2.89 4.94z"/>
      <path class="cls-2" d="M59 98.92a5 5 0 0 1-4.88-3.76L41.95 48.65a5 5 0 0 1 3.6-6.15l26.09-6.82a9.7 9.7 0 0 1 1.67-.28 9.55 9.55 0 0 1 10 7.12l13.4 51.27A1 1 0 0 1 96 95l-.58.15a1 1 0 0 1-1.06-.38 7.6 7.6 0 0 0-6.7-3.07 7.46 7.46 0 0 0-1.32.22l-26.09 6.83a5 5 0 0 1-1.25.17zm15.1-61.55h-.61a7.64 7.64 0 0 0-1.32.22l-26.12 6.84a3 3 0 0 0-2.17 3.71L56 94.65a3 3 0 0 0 3.71 2.17L85.84 90a9.56 9.56 0 0 1 8.26 1.69L81.39 43a7.56 7.56 0 0 0-7.31-5.64z"/>
      <path d="M201 127.67c-1.12-3-2.7-3.72-6.06-4.42s-11.84-2.14-19.21-3.27-15.91-2.33-19.32-2.62-5.15-.08-7.12 2.41-3.52 7-4.79 15.3c-1.26 8.22-1.17 13.07 0 16s2.72 3.71 6.06 4.46 11.84 2.13 19.23 3.26 15.89 2.31 19.31 2.63 5.16 0 7.11-2.44 3.53-7.05 4.79-15.27c1.28-8.26 1.19-13.07 0-16.04z" fill="#f44336"/>
      <path class="cls-2" d="M191 162.54c-.61 0-1.26 0-2-.1-3.61-.34-12.48-1.59-19.38-2.64s-15.77-2.52-19.28-3.27c-3.67-.82-5.52-1.75-6.79-5.08s-1.3-8.33-.05-16.51v-.09c1.23-8.09 2.77-13 5-15.7s4.33-3.13 8-2.78 12.36 1.56 19.38 2.63 15.76 2.5 19.27 3.28 5.51 1.7 6.77 5 1.31 8.37.06 16.55-2.8 13.08-5 15.78a6.66 6.66 0 0 1-5.98 2.93zm-45.5-27.26c-1.17 7.68-1.19 12.59-.05 15.45 1 2.5 2.11 3.13 5.35 3.85 3.46.74 12.26 2.19 19.16 3.25s15.69 2.29 19.25 2.63c3.3.28 4.59 0 6.23-2.06 2-2.39 3.41-7.09 4.59-14.81v-.12c1.16-7.62 1.18-12.55 0-15.43-.94-2.5-2.1-3.12-5.33-3.8-3.48-.78-12.49-2.24-19.15-3.26s-15.71-2.31-19.25-2.62c-3.29-.31-4.58-.07-6.25 2-2 2.43-3.41 7.14-4.58 14.83zm-1-.2z"/>
      <path fill="#fafafa" d="M164.09 148.91l3.23-21.19 16.04 13.3-19.27 7.89z"/>
      <path class="cls-2" d="M164.09 149.91a1 1 0 0 1-1-1.15l3.24-21.18A1 1 0 0 1 168 127l16 13.29a1 1 0 0 1-.26 1.7l-19.27 7.89a1 1 0 0 1-.38.03zm4-20.29l-2.7 17.69 16.1-6.59z"/>
      <ellipse class="cls-7" cx="55.84" cy="108.1" rx="14.92" ry="23.79" transform="rotate(-56.43 55.846 108.107)"/>
      <path class="cls-2" d="M68.54 126.82a20 20 0 0 1-4.54.37 33 33 0 0 1-17-5.82c-11.39-7.56-16.7-19.65-11.85-27 2.4-3.62 6.84-5.53 12.5-5.38a33 33 0 0 1 17 5.82 33 33 0 0 1 12 13.36c2.33 5.16 2.3 10-.11 13.61a12.12 12.12 0 0 1-8 5.04zm-25-35.47a10.18 10.18 0 0 0-6.7 4.16c-4.24 6.4.82 17.25 11.29 24.2a31 31 0 0 0 15.9 5.49c4.94.13 8.77-1.47 10.78-4.49s2-7.17 0-11.68A31 31 0 0 0 63.54 96.5a31 31 0 0 0-15.9-5.5 18.07 18.07 0 0 0-4.08.34z"/>
      <path class="cls-7" d="M55 96.56a74.62 74.62 0 0 0-5.88 6.26c-1.06 1.6-10.24-6-10.24-6"/>
      <path class="cls-2" d="M49 104h-.09c-2.21.33-8.19-4.36-10.66-6.39a1 1 0 0 1 1.27-1.54c3.4 2.8 7.65 5.74 8.93 5.95a79 79 0 0 1 5.85-6.19 1 1 0 0 1 1.39 1.44 69.74 69.74 0 0 0-5.75 6.1 1.49 1.49 0 0 1-.94.63zM36.53 95.47a1 1 0 0 1-.61-.07 19.68 19.68 0 0 1-8.42-8c-8.33 2.81-13.81 2.14-16.68-2-1.3-1.88-1.23-4.14-1.17-6.13.09-3.08 0-5-2.87-6.18L.63 70.57a1 1 0 1 1 .75-1.86l6.15 2.48c4.31 1.74 4.21 5.26 4.12 8.09-.05 1.85-.11 3.59.82 4.93 2.29 3.32 7 3.75 14.24 1.31A14.28 14.28 0 0 1 26 79.3c.45-4.41 2.93-5 4-5.11 2.47-.16 5.19 2.1 5.82 4.83.32 1.38.51 4.82-4.6 6.94q-.92.38-1.81.72a17.46 17.46 0 0 0 7.34 6.89 1 1 0 0 1-.21 1.89zm-6.65-19.25c-1.36.28-1.75 2.15-1.87 3.28a12.35 12.35 0 0 0 .59 5.34q.9-.34 1.84-.73c2.64-1.1 3.86-2.74 3.42-4.64s-2.23-3.38-3.75-3.29z"/>
      <path d="M196.29 7.2a36.5 36.5 0 1 0 36.5 36.5 36.5 36.5 0 0 0-36.5-36.5zm0 45.41a8.91 8.91 0 1 1 8.91-8.91 8.91 8.91 0 0 1-8.91 8.91zm0 0" fill="#606163"/>
      <path class="cls-2" d="M196.29 81.21a37.5 37.5 0 1 1 37.5-37.5 37.55 37.55 0 0 1-37.5 37.5zm0-73a35.5 35.5 0 1 0 35.5 35.5 35.54 35.54 0 0 0-35.5-35.51zm0 45.41a9.91 9.91 0 1 1 9.91-9.91 9.92 9.92 0 0 1-9.91 9.91zm0-17.82a7.91 7.91 0 1 0 7.91 7.91 7.92 7.92 0 0 0-7.91-7.92z"/>
      <g opacity=".2">
        <path class="cls-10" d="M187.69 16.59a1.26 1.26 0 0 0-.59-2.45 27.58 27.58 0 0 0-20.37 20.37 1.27 1.27 0 0 0 .93 1.52 1.17 1.17 0 0 0 .29 0 1.26 1.26 0 0 0 1.22-1 25 25 0 0 1 18.51-18.51zM224.92 51.38a1.25 1.25 0 0 0-1.52.93 25 25 0 0 1-18.51 18.51 1.26 1.26 0 0 0 .29 2.48 1.19 1.19 0 0 0 .29 0 27.55 27.55 0 0 0 20.38-20.4 1.26 1.26 0 0 0-.93-1.52z"/>
        <path class="cls-10" d="M189.31 22.67a1.26 1.26 0 0 0-.57-2.45 21.33 21.33 0 0 0-15.94 15.93 1.26 1.26 0 0 0 .94 1.51 1.16 1.16 0 0 0 .29 0 1.25 1.25 0 0 0 1.22-1 18.83 18.83 0 0 1 14.06-14.06zM219.78 51.26a1.26 1.26 0 0 0-2.45-.56 18.78 18.78 0 0 1-14.06 14 1.26 1.26 0 0 0 .29 2.49 1.1 1.1 0 0 0 .28 0 21.3 21.3 0 0 0 15.94-15.94z"/>
        <path class="cls-10" d="M190.38 26.29a15.13 15.13 0 0 0-11.51 11.51 1.26 1.26 0 0 0 1 1.5 1.35 1.35 0 0 0 .27 0 1.25 1.25 0 0 0 1.23-1 12.62 12.62 0 0 1 9.59-9.59 1.25 1.25 0 0 0 1-1.49 1.26 1.26 0 0 0-1.58-.93zM213.71 49.62a1.26 1.26 0 0 0-2.46-.54 12.59 12.59 0 0 1-9.59 9.59 1.26 1.26 0 0 0 .27 2.49h.27a15.12 15.12 0 0 0 11.51-11.54z"/>
      </g>
      <path class="cls-7" d="M196.29 55.14a11.43 11.43 0 1 1 11.43-11.44 11.44 11.44 0 0 1-11.43 11.43zm0-17.82a6.4 6.4 0 1 0 6.4 6.39 6.4 6.4 0 0 0-6.4-6.39zm0 0"/>
      <path class="cls-2" d="M196.29 56.14a12.43 12.43 0 1 1 12.43-12.44 12.44 12.44 0 0 1-12.43 12.44zm0-22.86a10.43 10.43 0 1 0 10.43 10.42 10.44 10.44 0 0 0-10.43-10.42zm0 17.83a7.4 7.4 0 1 1 7.4-7.4 7.4 7.4 0 0 1-7.4 7.39zm0-12.79a5.4 5.4 0 1 0 5.4 5.39 5.4 5.4 0 0 0-5.4-5.4z"/>
      <path d="M300 99.89l-31.42-15.77a14.66 14.66 0 1 0 2 25l8.23 4.13A14.66 14.66 0 1 0 300 99.89z" fill="#d2d4d5"/>
      <path class="cls-2" d="M247.61 103.39q-.25-.6-.46-1.22A15.66 15.66 0 0 1 269 83.23L300.49 99a15.66 15.66 0 1 1-22.66 14.9l-7.17-3.6a15.67 15.67 0 0 1-23-6.91zm52-2.61L268.14 85a13.66 13.66 0 1 0 1.86 23.33 1 1 0 0 1 1-.08l8.23 4.13a1 1 0 0 1 .55.88 13.66 13.66 0 1 0 19.78-12.46z"/>
      <path d="M267.39 97l-1.87-.94.94-1.87a2.62 2.62 0 0 0-4.68-2.35l-.94 1.87-1.84-.91a2.62 2.62 0 0 0-3.55 1.2 2.62 2.62 0 0 0 1.17 3.51l1.87.94-.94 1.87a2.62 2.62 0 1 0 4.68 2.35l.94-1.87 1.87.94a2.62 2.62 0 0 0 3.51-1.17 2.62 2.62 0 0 0-1.16-3.57z" fill="#878791"/>
      <path class="cls-2" d="M256.57 102.88c0-.09-.07-.18-.11-.28a3.6 3.6 0 0 1 .2-2.76l.49-1-1-.49a3.62 3.62 0 1 1 3.24-6.47l1 .49.49-1a3.62 3.62 0 1 1 6.47 3.24l-.49 1 1 .49a3.62 3.62 0 0 1-3.24 6.47l-1-.49-.49 1a3.62 3.62 0 0 1-6.56-.2zm2.84-4.88a1 1 0 0 1 0 .84l-.94 1.87a1.61 1.61 0 0 0-.09 1.24 1.59 1.59 0 0 0 .81.94 1.62 1.62 0 0 0 2.17-.72l.94-1.87a1 1 0 0 1 1.34-.45l1.87.94a1.62 1.62 0 0 0 1.45-2.89l-1.89-.9a1 1 0 0 1-.5-.58 1 1 0 0 1 .05-.76l.94-1.87a1.62 1.62 0 0 0-2.89-1.45l-.94 1.87a1 1 0 0 1-1.34.45l-1.87-.94a1.62 1.62 0 0 0-1.45 2.89l1.87.94a1 1 0 0 1 .47.45z"/>
      <circle cx="295.9" cy="107.64" r="2.62" transform="rotate(-63.38 295.907 107.64)" fill="#ff6e37"/>
      <path class="cls-2" d="M292.57 109.06a3.62 3.62 0 0 1 4.95-4.65 3.62 3.62 0 1 1-4.95 4.65zm4.05-2.86a1.62 1.62 0 1 0 .72 2.17 1.62 1.62 0 0 0-.72-2.17z"/>
      <circle cx="290.62" cy="118.18" r="2.62" transform="rotate(-63.38 290.62 118.179)" fill="#a5dc69"/>
      <path class="cls-2" d="M287.29 119.6a3.62 3.62 0 1 1 1.71 1.82 3.61 3.61 0 0 1-1.71-1.82zm4.82-2.05a1.61 1.61 0 0 0-.76-.81 1.62 1.62 0 1 0 .81.94zm-.32-1.7z"/>
      <circle cx="287.99" cy="110.27" r="2.62" transform="rotate(-63.38 287.988 110.267)" fill="#6e87f5"/>
      <path class="cls-2" d="M284.66 111.69a3.62 3.62 0 0 1 4.95-4.65 3.62 3.62 0 1 1-4.95 4.65zm4.05-2.86a1.62 1.62 0 1 0 .72 2.17 1.62 1.62 0 0 0-.72-2.17z"/>
      <circle cx="298.53" cy="115.55" r="2.62" transform="rotate(-63.38 298.532 115.546)" fill="#dc4b4b"/>
      <path class="cls-2" d="M295.2 117a3.62 3.62 0 0 1 4.95-4.65 3.62 3.62 0 1 1-4.95 4.65zm4.05-2.86a1.62 1.62 0 1 0 .72 2.17 1.62 1.62 0 0 0-.72-2.17z"/>
      <path d="M286.32 87.16a4.71 4.71 0 0 0-6.33 2.1l-.23.47 8.43 4.22.23-.47a4.71 4.71 0 0 0-2.1-6.32z" fill="#3aace2"/>
      <path class="cls-2" d="M278.84 90.12v-.08a1 1 0 0 1 .06-.76l.23-.47a5.71 5.71 0 0 1 7.67-2.55 5.72 5.72 0 0 1 2.55 7.67l-.24.47a1 1 0 0 1-1.34.45l-8.43-4.22a1 1 0 0 1-.5-.51zm8.78-.21a3.69 3.69 0 0 0-1.75-1.86 3.71 3.71 0 0 0-4.74 1.24l6.59 3.3a3.68 3.68 0 0 0 0-2.4q-.03-.14-.09-.28zm-1.3-2.75z"/>
      <path class="cls-2" d="M285.4 87.55a1 1 0 0 1 0-.84l2.81-5.61a2.17 2.17 0 0 0 .12-1.67 2.15 2.15 0 0 0-1.1-1.27l-1.23-.63a4.19 4.19 0 0 1-1.87-5.63l2.55-5.09a1 1 0 0 1 1.79.9l-2.55 5.09a2.19 2.19 0 0 0 1 2.94l1.26.63A4.19 4.19 0 0 1 290 82l-2.81 5.61a1 1 0 0 1-1.81-.06z"/>
      <circle cx="233.79" cy="17.66" r="16.66" fill="#d8e037"/>
      <path class="cls-2" d="M233.79 35.33a17.66 17.66 0 1 1 17.66-17.66 17.68 17.68 0 0 1-17.66 17.66zm0-33.33a15.66 15.66 0 1 0 15.66 15.66A15.68 15.68 0 0 0 233.79 2z"/>
      <path class="cls-2" d="M248.86 22.77c-5.67 0-11.6-5.42-14.31-13.22a24.74 24.74 0 0 1-1.42-7.89 1 1 0 0 1 1-1 1 1 0 0 1 1 1 22.73 22.73 0 0 0 1.3 7.25c2.49 7.16 8.08 12.26 13 11.85a1 1 0 0 1 .17 2c-.26 0-.5.01-.74.01zM233.32 34.34a1 1 0 0 1-1-1 23.05 23.05 0 0 0-1.06-7.34c-2.2-7.08-7.42-12.29-12.25-12.29h-.33a1 1 0 0 1-1-.95 1 1 0 0 1 .95-1h.37c5.76 0 11.66 5.67 14.16 13.7a24.74 24.74 0 0 1 1.15 7.94 1 1 0 0 1-.99.94z"/>
    </g>
  </g>
</svg>
