<svg xmlns="http://www.w3.org/2000/svg" viewBox="0 0 471.75 285.82"><defs><style>.cls-1{fill:#e7e8e9;}.cls-2{fill:#5f6cff;}.cls-3{fill:#606163;}.cls-4{fill:#373535;}.cls-5{fill:#f89734;}.cls-6{fill:#4c4c4d;}.cls-7{fill:#fff;}.cls-8{fill:#ffbc00;}.cls-9{fill:#ab8059;}.cls-10{fill:#d2d4d5;}.cls-11{fill:#f44336;}</style></defs><title>no playlists</title><g id="Layer_2" data-name="Layer 2"><g id="Layer_1-2" data-name="Layer 1"><ellipse class="cls-1" cx="387.58" cy="252.88" rx="69.27" ry="13.7"/><path class="cls-2" d="M352.54,259.89c-11.13,0-20.16,1.88-20.16,4.19,0,1.21,2.45,2.29,6.37,3.06-.92.26-1.47.59-1.47.94,0,.88,3.41,1.59,7.63,1.59a18.31,18.31,0,0,0,7.56-1.37h.07c11.13,0,20.16-1.88,20.16-4.19S363.67,259.89,352.54,259.89Z"/><polygon class="cls-3" points="439.07 148.58 460.39 139.78 452.61 109.39 437.46 107.28 428.12 132.11 439.07 148.58"/><path class="cls-4" d="M439.08,149.58a1,1,0,0,1-.83-.45l-11-16.47a1,1,0,0,1-.1-.91l9.34-24.83a1,1,0,0,1,1.07-.64l15.15,2.11a1,1,0,0,1,.83.74l7.78,30.39a1,1,0,0,1-.59,1.17l-21.31,8.8A1,1,0,0,1,439.08,149.58ZM429.23,132l10.22,15.36,19.75-8.15-7.39-28.9-13.69-1.9Z"/><path class="cls-5" d="M374.86,253.88a1,1,0,0,1-.81-1.58l6.88-9.63V216.83a1,1,0,1,1,2,0V243a1,1,0,0,1-.19.58l-7.07,9.9A1,1,0,0,1,374.86,253.88Z"/><path class="cls-5" d="M390.41,246.46a1,1,0,0,1-.28,0l-8.3-2.42-7.94.69a1,1,0,1,1-.17-2l8.13-.71a1,1,0,0,1,.37,0l8.48,2.47a1,1,0,0,1-.28,2Z"/><circle class="cls-6" cx="384.96" cy="164" r="63.83"/><path class="cls-4" d="M385,228.83A64.83,64.83,0,1,1,449.79,164,64.9,64.9,0,0,1,385,228.83Zm0-127.66A62.83,62.83,0,1,0,447.79,164,62.9,62.9,0,0,0,385,101.17Z"/><path class="cls-3" d="M360.72,201.28c-20.3,0-39.58-16.46-39.58-36.76L324,57.08a36.76,36.76,0,1,1,73.51,0l2.83,107.44C400.3,184.82,381,201.28,360.72,201.28Z"/><path class="cls-4" d="M360.72,202.28c-21.62,0-40.58-17.64-40.58-37.76L323,57.06a37.76,37.76,0,0,1,75.51,0L401.3,164.5C401.3,184.64,382.34,202.28,360.72,202.28Zm0-181A35.8,35.8,0,0,0,325,57.08l-2.83,107.47c0,19,18,35.73,38.58,35.73s38.58-16.71,38.58-35.76L396.48,57.11A35.8,35.8,0,0,0,360.72,21.33Z"/><ellipse class="cls-7" cx="344.02" cy="76.14" rx="7.01" ry="21.94"/><path class="cls-4" d="M344,99.08c-5.2,0-8-11.82-8-22.95s2.81-22.94,8-22.94,8,11.82,8,22.94S349.22,99.08,344,99.08Zm0-43.89c-2.84,0-6,9-6,20.94s3.17,20.95,6,20.95,6-9,6-20.95S346.86,55.19,344,55.19Z"/><ellipse class="cls-7" cx="322.87" cy="71.6" rx="7.01" ry="21.94"/><path class="cls-4" d="M322.87,94.55c-5.2,0-8-11.82-8-22.95s2.81-22.94,8-22.94,8,11.82,8,22.94S328.07,94.55,322.87,94.55Zm0-43.89c-2.84,0-6,9-6,20.94s3.17,20.95,6,20.95,6-9,6-20.95S325.71,50.66,322.87,50.66Z"/><path class="cls-5" d="M391.47,260.24a1,1,0,0,1-.81-1.58l6.88-9.64V213.3a1,1,0,0,1,2,0v36a1,1,0,0,1-.19.58l-7.07,9.9A1,1,0,0,1,391.47,260.24Z"/><path class="cls-5" d="M407.37,254.94a1,1,0,0,1-.46-.11l-8.58-4.46-7.84.68a1,1,0,0,1-.17-2l8.13-.71a1,1,0,0,1,.55.11l8.84,4.59a1,1,0,0,1-.46,1.89Z"/><polygon class="cls-8" points="330.08 99.61 310.23 109.48 332.24 114.95 339.11 107.28 330.08 99.61"/><path class="cls-4" d="M332.24,116l-.24,0-22-5.48a1,1,0,0,1-.2-1.87l19.86-9.86a1,1,0,0,1,1.09.13l9,7.67a1,1,0,0,1,.1,1.43L333,115.62A1,1,0,0,1,332.24,116Zm-19.13-6.79,18.79,4.68,5.79-6.46-7.74-6.58Z"/><path class="cls-3" d="M470.75,185.75l-52.84-29.43a30.24,30.24,0,0,0,52.84,29.43Z"/><path class="cls-4" d="M444.28,202.27A31.23,31.23,0,0,1,417,155.84a1,1,0,0,1,1.36-.39l52.84,29.43a1,1,0,0,1,.39,1.36A31.27,31.27,0,0,1,444.28,202.27Zm-26-44.58a29.24,29.24,0,0,0,51.06,28.44Z"/><path class="cls-4" d="M320.36,45.59a1,1,0,0,1-.33-1.94l14-4.95a1,1,0,0,1,.67,1.88l-14,4.95A1,1,0,0,1,320.36,45.59Z"/><path class="cls-9" d="M391.68,13.38S375.59,2.41,361.38,1C357.26.6,350,13.88,350,13.88l-15.7,8.37,65.21,17.41L389,24.81Z"/><path class="cls-4" d="M399.53,40.65a1,1,0,0,1-.26,0L334.07,23.21a1,1,0,0,1-.21-1.85l15.43-8.23C350.84,10.32,357.06-.45,361.48,0c14.3,1.41,30.09,12.09,30.76,12.54a1,1,0,0,1,.41,1.05l-2.53,11,10.23,14.48a1,1,0,0,1-.82,1.58ZM337,21.93l60.09,16-8.89-12.59a1,1,0,0,1-.16-.8l2.48-10.75c-3-1.92-17-10.61-29.26-11.83h-.11c-2.43,0-7.44,7.17-10.27,12.36a1,1,0,0,1-.41.4Z"/><ellipse class="cls-4" cx="342.03" cy="83.6" rx="3.66" ry="8.88"/><ellipse class="cls-4" cx="324.79" cy="82.42" rx="3.66" ry="8.88"/><path class="cls-4" d="M359,50.53a1,1,0,0,1-.5-.13L345.62,43a1,1,0,0,1,1-1.73l12.84,7.41a1,1,0,0,1-.5,1.87Z"/><path class="cls-2" d="M354.44,112l-3.76-9.57-3.77,11a5.07,5.07,0,0,0,1.1,5.12h0a3.51,3.51,0,0,0,5,.09h0A6.15,6.15,0,0,0,354.44,112Z"/><path class="cls-4" d="M350.58,120.69h-.09a4.48,4.48,0,0,1-3.21-1.42,6.07,6.07,0,0,1-1.32-6.13l3.77-11a1,1,0,0,1,1.88,0l3.76,9.57a7.14,7.14,0,0,1-1.63,7.7A4.47,4.47,0,0,1,350.58,120.69Zm.17-15.31-2.89,8.41a4.07,4.07,0,0,0,.88,4.11,2.49,2.49,0,0,0,1.78.79,2.59,2.59,0,0,0,1.81-.72,5.15,5.15,0,0,0,1.17-5.55h0Z"/><polygon class="cls-3" points="87.56 236.11 135.19 219.75 148.42 224.37 151.51 233.72 155.92 236.11 156.43 240.17 154.79 252.51 154.79 263.09 111.28 278.66 87.56 248.41 87.56 236.11"/><path class="cls-4" d="M111.28,279.66a1,1,0,0,1-.79-.38L86.78,249a1,1,0,0,1-.21-.62V236.11a1,1,0,0,1,.67-.95l47.63-16.36a1,1,0,0,1,.66,0l13.23,4.62a1,1,0,0,1,.62.63l3,9,4.06,2.2a1,1,0,0,1,.52.75l.51,4.07a1,1,0,0,1,0,.26l-1.64,12.27v10.51a1,1,0,0,1-.66.94L111.61,279.6A1,1,0,0,1,111.28,279.66ZM88.56,248.07l23.06,29.41,42.17-15.1v-9.87a1,1,0,0,1,0-.13l1.63-12.21-.43-3.43-4-2.15a1,1,0,0,1-.47-.57l-2.93-8.88-12.44-4.34-46.63,16Z"/><polyline class="cls-3" points="87.56 236.11 111.77 266.97 111.28 278.66"/><path class="cls-4" d="M111.28,279.66h0a1,1,0,0,1-1-1l.48-11.32-24-30.58a1,1,0,0,1,1.57-1.23l24.21,30.87a1,1,0,0,1,.21.66l-.5,11.69A1,1,0,0,1,111.28,279.66Z"/><line class="cls-3" x1="154.79" y1="252.51" x2="111.77" y2="266.97"/><path class="cls-4" d="M111.77,268a1,1,0,0,1-.32-1.95l43-14.46a1,1,0,1,1,.64,1.9l-43,14.46A1,1,0,0,1,111.77,268Z"/><polyline class="cls-3" points="237.61 218.96 238.26 231.93 224.56 256.07 214.29 254.23 206.05 260.46 166.54 251.11 164.2 247.08 164.2 235.46"/><path class="cls-4" d="M206,261.46l-.23,0-39.51-9.34a1,1,0,0,1-.63-.47l-2.33-4a1,1,0,0,1-.13-.5V235.46a1,1,0,0,1,2,0v11.36l2,3.43,38.63,9.14,7.87-5.94a1,1,0,0,1,.78-.19L224,255l13.21-23.27L236.61,219a1,1,0,0,1,.95-1,1,1,0,0,1,1,.95l.65,13a1,1,0,0,1-.13.54l-13.7,24.13a1,1,0,0,1-1,.49l-9.84-1.75-7.9,6A1,1,0,0,1,206,261.46Z"/><polygon class="cls-3" points="183.57 208.89 237.61 218.96 223.78 244.08 213.36 241.63 205.74 248.41 166.38 239.77 164.2 235.46 169.06 231.06 183.57 208.89"/><path class="cls-4" d="M205.73,249.41l-.21,0-39.35-8.65a1,1,0,0,1-.68-.53l-2.18-4.31a1,1,0,0,1,.22-1.19l4.76-4.31,14.45-22.06a1,1,0,0,1,1-.44l54,10.07a1,1,0,0,1,.69,1.47l-13.83,25.12a1,1,0,0,1-1.1.49l-9.92-2.33-7.23,6.43A1,1,0,0,1,205.73,249.41Zm-38.67-10.52,38.39,8.43,7.24-6.44a1,1,0,0,1,.89-.23l9.68,2.27,12.8-23.25L184,210l-14.15,21.61a1,1,0,0,1-.17.19l-4.29,3.89Zm2-7.84h0Z"/><ellipse class="cls-7" cx="127.78" cy="241.31" rx="10.14" ry="7.48"/><ellipse class="cls-7" cx="199.82" cy="227.45" rx="10.73" ry="7.91"/><ellipse class="cls-4" cx="94.33" cy="237.96" rx="1.38" ry="1.03"/><ellipse class="cls-4" cx="231.04" cy="220.62" rx="1.46" ry="1.09"/><ellipse class="cls-10" cx="127.78" cy="241.31" rx="8.23" ry="6.07"/><ellipse class="cls-10" cx="199.82" cy="227.45" rx="8.66" ry="6.38"/><polygon class="cls-4" points="205.74 248.41 206.05 260.46 214.29 254.23 224.56 256.07 224.56 244.26 213.36 241.63 205.74 248.41"/><path class="cls-4" d="M114.93,268.54c11.24,19.29,49.65-4.67,58.46-6.44s13.35-.24,20.61,7.31,24.55,1.2,24.55,1.2l1,8.35s-17.29,6.34-24.55-1.2-11.8-9.08-20.61-7.31-48.28,26.29-59.52,7Z"/><path class="cls-4" d="M129.58,285.82c-6.57,0-12.22-2.09-15.58-7.86a1,1,0,0,1-.14-.51l.06-8.92a1,1,0,0,1,1.86-.5c8.24,14.13,32.67,3.43,47.27-3,4.48-2,8-3.52,10.13-3.94,9.25-1.85,14.08-.15,21.53,7.6,6.72,7,23.32,1,23.48,1a1,1,0,0,1,1.34.82l1,8.35a1,1,0,0,1-.65,1.06c-.73.27-18,6.48-25.61-1.45-6.95-7.22-11.18-8.73-19.7-7-1.9.38-5.6,2-9.89,3.9C154.86,279.65,140.86,285.82,129.58,285.82Zm-13.71-8.63c8.37,13.77,33.16,2.85,48-3.68,4.58-2,8.19-3.61,10.31-4,9.24-1.85,14.07-.15,21.53,7.6,5.91,6.14,19.42,2.28,22.74,1.21L217.7,272c-4.15,1.32-17.85,5-24.42-1.85-6.95-7.22-11.18-8.73-19.7-7-1.9.38-5.52,2-9.72,3.81-14.28,6.26-37.6,16.48-48,4.72Z"/><path class="cls-10" d="M128.76,258l-15.65,5.2a1,1,0,0,1-.87-.43L109,258.57c-.25-.31-.26-.63,0-.7l15.2-5a1,1,0,0,1,.87.43l3.68,3.93C129,257.58,129,257.89,128.76,258Z"/><path class="cls-11" d="M111.5,259.65a.5.5,0,0,1-.15-1l10.5-3.41a.5.5,0,0,1,.31,1l-10.5,3.41Z"/><path class="cls-11" d="M113.37,261.52a.5.5,0,0,1-.15-1l6.18-2a.5.5,0,0,1,.31,1l-6.18,2Z"/><path class="cls-11" d="M44.11,52.38c-2.7,6.8-11.66,28.34-14,34.34s-1.28,8.21-5.4,9.39c-1.21.35-2.9-.34-3.83-4.55C20.22,88.73,20,80.64,20,73.31c0-4.28,0-8.93.16-14C16.56,67.8,10,91.1,8,96s-1,11.7-6.26,9.59c-2.19-.87-2.47-3.06-.11-9C2.6,94.21,7.14,79.43,9,73.91c1.88-5.88,10-22.23,11.2-23.66s2-1.2,3.47-.73c4.61,1.39,4.41,3.84,4,6.25-.13,1.26-.37,8.07-.74,14.76l-.57,13c5.78-9.26,12.23-28,14.87-33.44.63-1.09.65-1.82.95-2.11,1.13-.84,2.27,0,2.52,1.3A8,8,0,0,1,44.11,52.38Z"/><path class="cls-11" d="M49.45,81.92c-1.07,6.13-7,11.78-11,11.7s-4.32-5.89-2.81-9,4.8-9.25,7-10.33l.66-.37a1.69,1.69,0,0,0-.71-.71c-2-1.41.53-1.72,1.54-1.16S50.52,75.8,49.45,81.92Zm-5.3,1a8,8,0,0,0,.51-3.61A34.12,34.12,0,0,0,40.79,86C40.71,86.93,43.09,85.15,44.15,82.94Z"/><path class="cls-11" d="M99.21,71.43c-1.48,1.14-4.59,3-7,4.46a31,31,0,0,1-4.84,5.7c-5.18,4.91-7.58,7.57-9.7,4.22S81.46,75.42,89,71.48c1.64-1.83,1.94-4.59.85-5.5-.39-.35-4.25,1.21-12.19,14.16a9.41,9.41,0,0,1-.8,1.27c-2.1,7.75-9.76,31-10.37,33.71-.77,3.3-.88,4.92-2.3,4.75-1.47,0-2.66-4.46-1.41-7.95,1.79-5.28,11.51-39.85,12.37-42.37.68-2.48,1.94-4.59,2.66-5,1.93-.81,3.24,1,4,1.68q.19.17-.12,1.34c2.39-2.88,3.62-5.35,7.37-6.8,5.07-2,7.13,0,7.16,4.72A10.29,10.29,0,0,1,95.6,69c2-1.06,6.77-2.3,8.22-1.69C105.45,68.09,101.29,69.93,99.21,71.43Z"/><path class="cls-11" d="M110.21,58.05c-7.67,21.68-8,26.76-8.55,29.29s-2,4.17-3.39,2.39-1.07-6,.59-11.32c1.48-5.28,8.69-31.5,13.29-42.37,4.65-11,7-15.79,8.49-15.84s4.74,1.65,4.78,2.52c.22.82-.57.93-1,1.83C122.59,28,117.75,36.33,110.21,58.05Z"/><path class="cls-11" d="M118.72,64.28c.61-.14,9.54-7.52,10-7.35a2.29,2.29,0,0,1,.69,3.11c-.91,1.59-2.27,4-.74,2.5s12.25-8.8,14.46-10.19.48,2.43-2.51,5.45-11.44,10.36-13.23,11.57-5.54,1.07-4.56-3.08a46.39,46.39,0,0,1-5.94,4.43c-1.37.9-5.64.22-5.19-4.74s7.15-11.47,9.07-12.49,5.2-1.94,6.93-.16c.45.4-.11,1.62-.91,1.59C126.1,55.08,118.62,62,118.72,64.28Z"/><path class="cls-11" d="M160.8,59.05c2.11-.78,1.4,1.13-2.18,3.48l-1.91,1.17a89.21,89.21,0,0,1-3.15,10.39A39.79,39.79,0,0,1,134,95.22c-3.3,1.71-7-2.37-5.4-9.34,1.33-5.83,9.84-14.56,24-22.5a96.36,96.36,0,0,0,2.16-10.59c-3.73,4.43-6.27,8-8.9,9.48a4.24,4.24,0,0,1-6.1-4.46c.45-2.21,3.41-7.4,5.82-9.78,2.06-2,2.67-2.07,3.65-2.08,1.54.08.8,1.27.12,2.66-.91,1.66-6.19,11-1,7.19,2.38-1.72,5.75-7.22,7.06-9.41.07-1.25.29-1.74.6-1.59,1.06.33,4,.44,4,3.07a126,126,0,0,1-2.48,12.85ZM151.52,67a66.38,66.38,0,0,0-12.39,9.85c-6.92,7.27-8.87,14.26-6.38,13.47S145.19,83,149.13,73.68A58.65,58.65,0,0,0,151.52,67Z"/><path class="cls-11" d="M173.77,43.26c-7.67,21.68-8,26.76-8.55,29.29s-2,4.17-3.39,2.39-1.07-6,.59-11.32c1.48-5.28,8.69-31.5,13.29-42.37,4.65-11,7-15.79,8.49-15.84s4.74,1.65,4.78,2.52c.22.82-.57.93-1,1.83C186.16,13.22,181.32,21.54,173.77,43.26Z"/><path class="cls-11" d="M196.45,46.11C194.54,48.66,184,61,181.7,62.18s-4.76-.63-4.64-4.8c.13-3.95,2.51-12.2,4-14.88s2-2.85,2.44-3c1.16-.27,3.67,2.27,3.54,3.46s-.43,1.33-1.55,2.39S181,56.54,182.69,55.56s10.93-9.44,12.93-11.43S198.35,43.49,196.45,46.11Zm-12.53-10.8c-.87-1.47-1.61-4.27-.71-4.84a30.34,30.34,0,0,1,3.53-2c1-.46,1.92,1.73,2.76,2.62s-.3,1.59-1.22,2.75S184.66,36.88,183.91,35.31Z"/><path class="cls-11" d="M211.32,35.61a111.74,111.74,0,0,0-10.64,10.53,7.76,7.76,0,0,0,.32,1.67c.92,3.93.43,8-1.73,10.57s-4.84,2.87-6.44,1.57c-.7-.42-1.23-1.38-1.74-1.77s-.39-3,.56-5.28a25.61,25.61,0,0,1,4.73-6.62c-.22-.75-.56-1.39-.77-2.14-1.34-3.83.14-7.66,1.58-9.8,2.19-3.27,6.14-4,7.2-3.71a1.75,1.75,0,0,1,.72,2.37c-.29.43-.47.47-1,.6-1.52.35-2.68,1.93-3.47,4.66a12.63,12.63,0,0,0-.42,4.31c1.59-1.53,3.24-3,4.6-4.12C209.2,34.87,212.92,34.44,211.32,35.61ZM197.17,49.94l-.29.36c-2.91,3.51-2.75,5.65-2.71,6.44a1.43,1.43,0,0,0,.59.88,4.12,4.12,0,0,0,2.8-3.19C197.81,53.2,197.44,51.83,197.17,49.94Z"/><path class="cls-11" d="M231.2,4.34a178.46,178.46,0,0,0-9.77,21.44c1.75-.63,3.33-1.07,4.47-1.55,3.93-1.49,4.67-1.38,4.51-.76a11.92,11.92,0,0,1-6.1,6.36c-1.38.61-3.32,1.35-5.3,2.32-.65,1.82-1.37,3.59-2.07,5.71C209.4,59.58,209,64.6,208.46,67.13s-2,4.17-3.39,2.46-1.08-6.07.58-11.39c.84-3,3.76-13.22,6.74-23.27a22.89,22.89,0,0,1-2.9,1c-2.06.7-3.16-4.71-1.62-5.79s1.26-.66,3.32-1.35c.49-.11,1.76-.48,3.4-.93,1.5-4.71,3-8.91,4.3-12,4.65-11,7-15.79,8.49-15.84s4.62,1.68,4.84,2.5S231.59,3.45,231.2,4.34Z"/><path class="cls-11" d="M241.83,28.51A111.74,111.74,0,0,0,231.19,39a7.77,7.77,0,0,0,.32,1.67c.92,3.93.43,8-1.73,10.57s-4.84,2.87-6.44,1.57c-.7-.42-1.23-1.38-1.74-1.77s-.39-3,.56-5.28a25.59,25.59,0,0,1,4.73-6.62c-.22-.75-.55-1.39-.77-2.14-1.34-3.83.14-7.66,1.58-9.81,2.18-3.27,6.14-4,7.2-3.71a1.75,1.75,0,0,1,.72,2.37c-.29.43-.47.47-1,.6-1.52.35-2.68,1.93-3.47,4.66a12.62,12.62,0,0,0-.42,4.31c1.59-1.53,3.24-3,4.6-4.12C239.7,27.77,243.43,27.34,241.83,28.51ZM227.68,42.83l-.29.36c-2.91,3.51-2.75,5.65-2.71,6.44a1.43,1.43,0,0,0,.59.88,4.12,4.12,0,0,0,2.8-3.19C228.32,46.1,227.95,44.73,227.68,42.83Z"/><path class="cls-11" d="M211.18,102c2.11-.78,1.4,1.12-2.18,3.48l-1.91,1.17A89.21,89.21,0,0,1,203.95,117a39.78,39.78,0,0,1-19.61,21.12c-3.3,1.71-7-2.36-5.4-9.34,1.33-5.83,9.84-14.56,24-22.49a96.61,96.61,0,0,0,2.16-10.59c-3.73,4.43-6.27,8-8.9,9.48a4.24,4.24,0,0,1-6.1-4.46c.45-2.21,3.41-7.4,5.82-9.78,2.06-2,2.67-2.07,3.65-2.08,1.54.08.8,1.27.12,2.66-.91,1.66-6.19,11-1,7.19,2.38-1.71,5.75-7.22,7.06-9.41.07-1.25.29-1.74.6-1.59,1.06.33,4,.44,3.95,3.07a126,126,0,0,1-2.48,12.85Zm-9.28,7.9a66.31,66.31,0,0,0-12.39,9.85c-6.92,7.27-8.87,14.26-6.38,13.47s12.44-7.25,16.38-16.59A58.27,58.27,0,0,0,201.9,109.89Z"/><path class="cls-11" d="M234.26,94.88c-1.76,1.79-12,10.79-16.24,12.93s-6.27-1.45-5.92-4.43a37.17,37.17,0,0,1,5.63-13.94c2.94-4.17,5.47-5.27,6.76-5.35,1.71-.18,4.23,2.57,4.67,5.45s-3.28,6.14-5.65,8.07-4.3,4.12-6,1.47c-.45.9-1.37,3.59,1.78,2.63s10.13-5.48,14.25-9.41S236,93.11,234.26,94.88Zm-14.2-.18c1.08-.61,3.45-2.47,3.67-4.34A11,11,0,0,0,220.06,94.7Z"/><path class="cls-11" d="M256.85,53a178.78,178.78,0,0,0-9.77,21.44c1.75-.63,3.33-1.07,4.47-1.55,3.93-1.49,4.67-1.38,4.51-.76a11.92,11.92,0,0,1-6.1,6.36c-1.39.61-3.32,1.35-5.3,2.32-.65,1.82-1.37,3.59-2.07,5.71-7.54,21.72-7.93,26.75-8.49,29.27s-2,4.17-3.39,2.46-1.08-6.07.59-11.39c.84-3,3.76-13.22,6.73-23.27a22.92,22.92,0,0,1-2.9,1c-2.06.7-3.16-4.71-1.62-5.79s1.26-.66,3.32-1.35c.49-.11,1.76-.48,3.4-.94,1.5-4.71,3-8.91,4.3-12,4.65-11,7-15.79,8.49-15.84s4.62,1.68,4.84,2.5S257.24,52.15,256.85,53Z"/></g></g></svg>