<svg xmlns="http://www.w3.org/2000/svg" viewBox="0 0 304.96 254.31">
  <defs>
    <style>
      .cls-3{fill:#373535}.cls-5{fill:#fff}.cls-6{fill:#e1e6ea}.cls-7{fill:#f44336}
    </style>
  </defs>
  <g id="Layer_2" data-name="Layer 2">
    <g id="Layer_1-2" data-name="Layer 1">
      <circle cx="194.7" cy="144.23" r="110.08" fill="#d2f9f2"/>
      <path d="M258.94 198.17l18.38 8.31a13.94 13.94 0 1 1 17.91 18.66 13.91 13.91 0 1 1-25.08.53l-19.81-10" fill="#fcdcc0"/>
      <path class="cls-3" d="M282.81 246.33a14.92 14.92 0 0 1-13.95-20.18l-19-9.54a1 1 0 1 1 .9-1.79l19.81 10a1 1 0 0 1 .46 1.31 12.79 12.79 0 0 0-1.15 5.34 12.91 12.91 0 1 0 25.81 0 12.78 12.78 0 0 0-1.39-5.83 1 1 0 0 1 .52-1.38 13.07 13.07 0 0 0 8.18-12.19 12.91 12.91 0 0 0-24.73-5.19 1 1 0 0 1-1.33.51l-18.37-8.31.82-1.82 15.5 7 2 .91a14.91 14.91 0 0 1 28.13 6.9 15.13 15.13 0 0 1-8.4 13.58 14.91 14.91 0 0 1-13.75 20.68z"/>
      <path d="M254.34 183.78s6.91 1.45 6.43 5.47S257 213 244.72 220.64c-2.31 1.43-6.43-3.83-6.43-3.83" fill="#ffbc00"/>
      <path class="cls-3" d="M252.29 173.69a10 10 0 0 0-6.55-2.82c.6-13-7.54-22.94-14.52-31.43l-.67-.82c-9.42-11.49-3.65-26 1.25-32.84C243.15 90 245.08 75.51 237 66.92c-6.12-6.49-16.69-7.3-25.13-1.93-19.78 12.56-17.5 35.11-15.87 51.58.74 7.3 1.38 13.6-.36 16.35-4.51 7.14-17.55 3.19-24.55 1.07-1.58-.48-2.83-.86-3.72-1-7.71-1.54-21.9-3.28-30.25 2.41a14.4 14.4 0 0 0-6.19 9.75A18.17 18.17 0 0 0 135.2 161a23.68 23.68 0 0 0 4 3.61c-7.3 2.72-11.17 7.66-10.93 14.08.19 5.06 2.94 10.87 13.57 13.2-.14.45-5.69 18.78 7.43 23.77a29.56 29.56 0 0 0 10.57 2 31.93 31.93 0 0 0 12.16-2.57 1 1 0 0 0 .13.52c.25.41 6.32 10.13 27.85 11.35.7 0 1.38.06 2 .06a31 31 0 0 0 21.87-8.77 3.69 3.69 0 0 0 .45.85c1.1 1.53 3.32 2.31 6.6 2.31 8.26 0 22.5-21 24.18-35.73.7-5.39-.27-9.42-2.79-11.99zM297.45 217.7a1 1 0 0 1-.42-.09 1 1 0 0 1-.48-1.33s1.69-3.7.81-6.83c-1.44-5.1-5.22-4.49-5.65-4.41a1 1 0 0 1-.41-2c.06 0 6-1.21 8 5.82 1.09 3.86-.84 8-.92 8.22a1 1 0 0 1-.93.62z"/>
      <path class="cls-3" d="M243.83 221.89c-2.67 0-5.67-3.62-6.33-4.47a1 1 0 0 1 1.58-1.23c1.46 1.86 4.12 4.21 5.11 3.6 12.72-7.9 15.48-29.73 15.59-30.66.36-3-5.58-4.36-5.64-4.38a1 1 0 0 1 .41-2c.32.07 7.8 1.69 7.22 6.57-.29 2.42-3.22 23.86-16.52 32.12a2.63 2.63 0 0 1-1.42.45z"/>
      <path class="cls-5" d="M253.18 185.45c-1.64 14.33-15.56 34-22.19 34-3.22 0-4.48-.79-5-1.46a1.92 1.92 0 0 1-.32-1.52 31.92 31.92 0 0 0 4.92-7 1 1 0 0 0-1.81-.84 29.07 29.07 0 0 1-4.59 6.62 1 1 0 0 0-.29.31 29.2 29.2 0 0 1-23.78 9.44c-20.37-1.16-26.2-10.3-26.25-10.39a1 1 0 0 0-.19-.21 39 39 0 0 0 7-4.21c7-5.31 11.48-12.45 11-17.38-.57-6-5.52-8.3-9.44-9a14.52 14.52 0 0 0 4.85-8.67c.5-3.31-.15-6.06-2-8.15-2.27-2.64-5.8-3.58-8.08-3.92.23-.27.45-.54.66-.81a10.51 10.51 0 0 0 2.12-9c-2.05-8.22-15.28-13.74-25.8-13.6-5.26.08-7.46 1.15-7.55 1.19a1 1 0 0 0 .88 1.79s2-.91 6.7-1c9.78-.12 22.05 5 23.83 12.08a8.58 8.58 0 0 1-1.78 7.33c-3.28 4.4-9.74 7.31-16.86 7.62-6.84.31-17-2.78-22.5-9a16.25 16.25 0 0 1-3.77-14.19 12.47 12.47 0 0 1 5.35-8.44c7.75-5.28 21.33-3.58 28.73-2.1.79.16 2.06.54 3.53 1 7.51 2.28 21.49 6.51 26.82-1.92 2.11-3.34 1.47-9.64.66-17.62-1.62-16-3.83-37.79 14.89-49.7 7.64-4.85 17.14-4.17 22.6 1.62 7.39 7.84 5.39 21.42-5.35 36.32-5.23 7.25-11.36 22.84-1.17 35.27l.67.82c9.67 11.78 21.71 26.43 7.47 48.48-7.11 11-11.06 14-11.09 14a1 1 0 1 0 1.16 1.63c.17-.12 4.24-3.11 11.61-14.52 4.11-6.37 6.15-12.13 6.75-17.41a8.06 8.06 0 0 1 5.3 2.24c2.08 2.07 2.85 5.55 2.31 10.3z"/>
      <path class="cls-5" d="M130.3 178.59c-.28-7.46 5.76-11 11.06-12.62a34.34 34.34 0 0 0 17.93 4.72c6.21-.26 12-2.41 15.89-5.78 1.31.07 5.92.52 8.4 3.41a7.82 7.82 0 0 1 1.49 6.54c-2 13.33-25.84 16.06-32.1 16.06-10.13-.01-22.29-2.15-22.67-12.33z"/>
      <path class="cls-5" d="M150 213.76c-11.45-4.35-6.28-21.14-6.23-21.31a1 1 0 0 0 0-.22 56.37 56.37 0 0 0 9.17.68c.23 0 17-.42 26.95-7.29a14.74 14.74 0 0 1 4.54.89 7.34 7.34 0 0 1 5.19 6.46c.4 4.21-3.9 10.77-10.23 15.6-4.27 3.28-15.76 10.37-29.39 5.19z"/>
      <path class="cls-6" d="M162.74 176.44c7.11-.3 13.57-3.22 16.86-7.62a10.76 10.76 0 0 0 1.4-2.47 15.65 15.65 0 0 0-5.81-1.45c-3.91 3.37-9.69 5.52-15.89 5.78a34.34 34.34 0 0 1-17.94-4.68c-.58.18-1.18.39-1.77.62.21.28.41.56.65.83 5.47 6.22 15.66 9.3 22.5 8.99zM185.87 187.08a10.39 10.39 0 0 0-1.41-.67 14.74 14.74 0 0 0-4.54-.89c-10 6.87-26.72 7.29-26.95 7.29a56.37 56.37 0 0 1-9.17-.68 1 1 0 0 1 0 .22s-.2.66-.43 1.68a49.52 49.52 0 0 0 11 2.12c5.46.51 24.89.13 31.5-9.07zM216.8 69.13c9.09 5.78 10.49 19.44 3.74 36.52-3.29 8.32-5.4 24.94 7.54 34.48l.86.63 2.18 1.61-1.36-1.66-.67-.82c-10.19-12.43-4.06-28 1.17-35.27C241 89.71 243 76.13 235.6 68.29c-5.46-5.79-15-6.47-22.6-1.62-.28.18-.53.36-.8.54a14.9 14.9 0 0 1 4.6 1.92z"/>
      <path class="cls-7" d="M33.88 25.52a202.7 202.7 0 0 0-12.21 23.83c2-.62 3.84-1 5.16-1.53 4.53-1.49 5.37-1.32 5.16-.63a13.54 13.54 0 0 1-7.25 6.9c-1.6.62-3.84 1.36-6.14 2.36-.84 2-1.74 4-2.65 6.38-9.7 24.27-10.39 30-11.16 32.8s-2.51 4.63-4 2.62-.91-6.94 1.26-12.9C3.19 82 7 70.54 10.93 59.27a25.91 25.91 0 0 1-3.35 1C5.21 61 4.23 54.79 6 53.63s1.51-.63 3.88-1.36c.56-.1 2-.46 3.91-.89 2-5.27 3.91-10 5.51-13.45 5.86-12.28 8.79-17.57 10.46-17.55 1.74.17 5.16 2.15 5.37 3.09s-.76 1.06-1.25 2.05z"/>
      <path class="cls-7" d="M47.48 23.74c-.48.9-14.23 31.57-17.93 44.76 5-7.88 15.55-17.59 18.9-18s4.67 2.08 2.93 7.06-2.51 7.33-.35 6.2 7.39-5.78 9.76-8.1c2.37-2.16 1.33 2.45-2.93 7.82s-7.39 9.38-11.23 9.44-4.39-7.28-2-12.56c-1-.62-7.11 4.59-11.72 11.24s-7.61 11.17-9.57 11.29-3.56-6.21-2.44-8.79 12-29.6 15.1-36.71 5.69-14.46 6-15.75 1.39-2.3 4-1.06c1.06.42 2 2.17 1.48 3.16z"/>
      <path class="cls-7" d="M67.49 57.31c.7-.13 11.23-8 11.79-7.82a2.61 2.61 0 0 1 .63 3.51c-1.12 1.76-2.79 4.44-1 2.8S93.3 46.49 95.88 45s.42 2.78-3.14 6.06-13.53 11.19-15.62 12.48-6.35.93-5-3.73a52.75 52.75 0 0 1-7 4.72c-1.61 1-6.42 0-5.65-5.66s8.72-12.65 11-13.72 6-1.93 7.88.18c.49.48-.21 1.84-1.12 1.76-.88.16-9.74 7.68-9.74 10.22z"/>
      <path class="cls-7" d="M104.11 37.29c-.42.73-3.07 4.9-6.42 16.88 5.65-5.87 13.18-18 16.11-18.27s4.26 1.91 2.65 6.38c-1.67 4.64-2.44 12.14-.63 11.15s6.7-5.24 8.86-7.36c2.16-1.87 1.26 2.22-2.65 7s-6.7 8.6-10.18 8.59-3.7-12.07-1.47-16.81c-1-.47-6.83 9.6-10.95 15.68s-5.79 6.87-7.67 7-3.28-5.69-2.16-7.94a46.27 46.27 0 0 0 4-10c2-6.42 3.91-12.74 4.32-14s2.37-2.4 4.81-1.3a2.45 2.45 0 0 1 1.38 3z"/>
      <path class="cls-7" d="M146.58 34.5c-1.19.22-6.28 4-10.74 8.28.49 1.87.84 4.26 1.67 6.8s2.86 4.21 5.58 2.81a34.71 34.71 0 0 0 6.07-4.8c1.88-1.66 1.12 2.33-2.23 6.38s-4.67 4.87-6.77 5.26c-4.11.76-8.65-7.15-8.65-11.48a14.3 14.3 0 0 1-2 2.5c-2.58 7.67-4.26 12.56-5.86 12.61-2 .12-2.79-5.53-1.67-8.11s10.53-27.53 15.27-39.2a113.2 113.2 0 0 0 4.25-13.87c.5-1.31 2.15-2.36 4.87-1.14 1 .46 2 2.17 1.46 3.16-.49.66-10.74 23.08-15.21 36.9 6.21-6.46 14.3-13.6 17.51-13.95s-2.22 7.85-3.55 7.85zM104.31 96.07c2.44-.78 1.53 1.35-2.65 3.84l-2.23 1.23a101.62 101.62 0 0 1-4.11 11.63 45.22 45.22 0 0 1-23.37 23c-3.84 1.77-7.81-3.05-5.65-10.89 1.81-6.55 11.93-16 28.39-24.3a109.88 109.88 0 0 0 3-11.92c-4.46 4.83-7.53 8.75-10.6 10.3a4.82 4.82 0 0 1-6.7-5.38c.63-2.49 4.26-8.23 7.12-10.8 2.44-2.17 3.14-2.22 4.25-2.18 1.74.17.84 1.48 0 3-1.12 1.84-7.6 12.2-1.46 8.12 2.79-1.82 6.91-7.9 8.51-10.32.14-1.42.42-2 .77-1.78 1.19.43 4.53.71 4.32 3.7a142.7 142.7 0 0 1-3.49 14.46zm-11 8.48a75.39 75.39 0 0 0-14.53 10.55c-8.23 7.9-10.81 15.73-8 15s14.51-7.59 19.46-18a66.63 66.63 0 0 0 3.12-7.55z"/>
      <path class="cls-7" d="M122.23 89.32c-1.53 6.91-8.51 13-13 12.71s-4.6-6.91-2.72-10.37 5.93-10.25 8.44-11.37l.77-.39a1.91 1.91 0 0 0-.77-.84c-2.23-1.71.7-1.93 1.81-1.23 1.08.86 7.01 4.58 5.47 11.49zm-6.07.88a9 9 0 0 0 .77-4.06 38.66 38.66 0 0 0-4.74 7.42c-.14.99 2.65-.91 3.98-3.36zM134.72 78.26c-1.81 3.36-6.28 14.16-4.53 12.28s9.9-11.31 12-16.61c.84-2.2 1.19-2.18 2.37-2.16s5.37 1.38 4.25 3.54-5.86 12.61-6.63 15.53c-1 3.12-.14 4.93-1.33 6s-2.09.8-3.56-.81-.84-5.73-.28-8.53c-3.84 4.14-5.93 8.21-9.7 10s-4.74-3.86-5-5.38S127 79.52 128.09 77s1.33-2.94 3-3.33a7.19 7.19 0 0 1 4 .07c.67.32 1.51 1.26-.37 4.52zM156.34 90.37c1.33 1.39.7 2.41-.35 3.82s-2.79 2.23-3.91 1.87-1.19-1.82-1.46-2.84-1.53-3.15-.49-3.75a5.79 5.79 0 0 1 6.21.9zM177.12 34c-.91 2.78-4.46 6.47-11.72 24.4-6.49 15.83-7 18.31-7.25 19.73-.07 1.24-1.12 3-2.58 2.93s-3-.26-.77-8.69a203.35 203.35 0 0 1 8-24.29c2.79-6.89 6.28-16.86 8.79-18.22 1.41-.78 6.41 1.32 5.53 4.14z"/>
    </g>
  </g>
</svg>
