<svg xmlns="http://www.w3.org/2000/svg" viewBox="0 0 481.53 285.82">
  <defs>
    <style>
      .cls-2{fill:#5f6cff}.cls-3{fill:#606163}.cls-4{fill:#373535}.cls-5{fill:#f89734}.cls-7{fill:#fff}.cls-10{fill:#f44336}.cls-11{fill:#d2d4d5}
    </style>
  </defs>
  <g id="Layer_2" data-name="Layer 2">
    <g id="Layer_1-2" data-name="Layer 1">
      <ellipse cx="397.36" cy="252.88" rx="69.27" ry="13.7" fill="#e7e8e9"/>
      <path class="cls-2" d="M362.32 259.89c-11.13 0-20.16 1.88-20.16 4.19 0 1.21 2.45 2.29 6.37 3.06-.92.26-1.47.59-1.47.94 0 .88 3.41 1.59 7.63 1.59a18.31 18.31 0 0 0 7.56-1.37h.07c11.13 0 20.16-1.88 20.16-4.19s-9.03-4.22-20.16-4.22z"/>
      <path class="cls-3" d="M448.85 148.58l21.31-8.8-7.77-30.39-15.15-2.11-9.34 24.83 10.95 16.47z"/>
      <path class="cls-4" d="M448.85 149.58a1 1 0 0 1-.83-.45l-11-16.47a1 1 0 0 1-.1-.91l9.34-24.83a1 1 0 0 1 1.07-.64l15.15 2.11a1 1 0 0 1 .83.74l7.78 30.39a1 1 0 0 1-.59 1.17l-21.31 8.8a1 1 0 0 1-.34.09zM439 132l10.22 15.36 19.78-8.17-7.39-28.9-13.69-1.9z"/>
      <path class="cls-5" d="M384.63 253.88a1 1 0 0 1-.81-1.58l6.88-9.63v-25.84a1 1 0 0 1 2 0V243a1 1 0 0 1-.19.58l-7.07 9.9a1 1 0 0 1-.81.4z"/>
      <path class="cls-5" d="M400.18 246.46a1 1 0 0 1-.28 0l-8.3-2.46-7.94.69a1 1 0 1 1-.17-2l8.13-.71a1 1 0 0 1 .37 0l8.48 2.47a1 1 0 0 1-.28 2z"/>
      <circle cx="394.74" cy="164" r="63.83" fill="#4c4c4d"/>
      <path class="cls-4" d="M394.74 228.83A64.83 64.83 0 1 1 459.57 164a64.9 64.9 0 0 1-64.83 64.83zm0-127.66A62.83 62.83 0 1 0 457.57 164a62.9 62.9 0 0 0-62.83-62.83z"/>
      <path class="cls-3" d="M370.5 201.28c-20.3 0-39.58-16.46-39.58-36.76l2.83-107.44a36.76 36.76 0 1 1 73.51 0l2.83 107.44c-.01 20.3-19.29 36.76-39.59 36.76z"/>
      <path class="cls-4" d="M370.5 202.28c-21.62 0-40.58-17.64-40.58-37.76l2.83-107.47a37.76 37.76 0 0 1 75.51 0l2.83 107.42c-.01 20.17-18.97 37.81-40.59 37.81zm0-181a35.8 35.8 0 0 0-35.76 35.76l-2.83 107.47c0 19 18 35.73 38.58 35.73s38.58-16.71 38.58-35.76l-2.82-107.37a35.8 35.8 0 0 0-35.75-35.78z"/>
      <ellipse class="cls-7" cx="353.8" cy="76.14" rx="7.01" ry="21.94"/>
      <path class="cls-4" d="M353.8 99.08c-5.2 0-8-11.82-8-22.95s2.81-22.94 8-22.94 8 11.82 8 22.94-2.8 22.95-8 22.95zm0-43.89c-2.84 0-6 9-6 20.94s3.17 20.95 6 20.95 6-9 6-20.95-3.16-20.94-6-20.94z"/>
      <ellipse class="cls-7" cx="332.65" cy="71.6" rx="7.01" ry="21.94"/>
      <path class="cls-4" d="M332.64 94.55c-5.2 0-8-11.82-8-22.95s2.81-22.94 8-22.94 8 11.82 8 22.94-2.79 22.95-8 22.95zm0-43.89c-2.84 0-6 9-6 20.94s3.17 20.95 6 20.95 6-9 6-20.95-3.16-20.94-6-20.94z"/>
      <path class="cls-5" d="M401.24 260.24a1 1 0 0 1-.81-1.58l6.88-9.64V213.3a1 1 0 0 1 2 0v36a1 1 0 0 1-.19.58l-7.07 9.9a1 1 0 0 1-.81.46z"/>
      <path class="cls-5" d="M417.15 254.94a1 1 0 0 1-.46-.11l-8.58-4.46-7.84.68a1 1 0 1 1-.17-2l8.13-.71a1 1 0 0 1 .55.11l8.84 4.59a1 1 0 0 1-.46 1.89z"/>
      <path fill="#ffbc00" d="M339.86 99.61l-19.85 9.87 22 5.47 6.88-7.67-9.03-7.67z"/>
      <path class="cls-4" d="M342 116h-.24l-22-5.48a1 1 0 0 1-.2-1.87l19.86-9.86a1 1 0 0 1 1.09.13l9 7.67a1 1 0 0 1 .1 1.43l-6.87 7.67a1 1 0 0 1-.74.31zm-19.13-6.79l18.79 4.68 5.79-6.46-7.74-6.58z"/>
      <path class="cls-3" d="M480.53 185.75l-52.84-29.43a30.24 30.24 0 1 0 52.84 29.43z"/>
      <path class="cls-4" d="M454.06 202.27a31.23 31.23 0 0 1-27.24-46.43 1 1 0 0 1 1.36-.39L481 184.88a1 1 0 0 1 .39 1.36 31.27 31.27 0 0 1-27.33 16.03zm-26-44.58a29.24 29.24 0 0 0 51.06 28.44zM330.13 45.59a1 1 0 0 1-.33-1.94l14-4.95a1 1 0 1 1 .67 1.88l-14 4.95a1 1 0 0 1-.34.06z"/>
      <path d="M401.45 13.38S385.37 2.41 371.16 1C367 .6 359.8 13.88 359.8 13.88l-15.7 8.37 65.21 17.41-10.49-14.85z" fill="#ab8059"/>
      <path class="cls-4" d="M409.31 40.65a1 1 0 0 1-.26 0l-65.2-17.44a1 1 0 0 1-.21-1.85l15.43-8.23c1.55-2.81 7.76-13.58 12.19-13.13 14.29 1.42 30.09 12.1 30.74 12.55a1 1 0 0 1 .41 1.05l-2.53 11 10.23 14.48a1 1 0 0 1-.82 1.58zm-62.5-18.72L406.9 38 398 25.38a1 1 0 0 1-.16-.8l2.48-10.75c-3-1.92-17-10.61-29.26-11.83h-.11c-2.43 0-7.44 7.17-10.27 12.36a1 1 0 0 1-.41.4z"/>
      <ellipse class="cls-4" cx="351.81" cy="83.6" rx="3.66" ry="8.88"/>
      <ellipse class="cls-4" cx="334.57" cy="82.42" rx="3.66" ry="8.88"/>
      <path class="cls-4" d="M368.73 50.53a1 1 0 0 1-.5-.13L355.4 43a1 1 0 0 1 1-1.73l12.84 7.41a1 1 0 0 1-.5 1.87z"/>
      <path class="cls-2" d="M364.22 112l-3.76-9.57-3.77 11a5.07 5.07 0 0 0 1.1 5.12 3.51 3.51 0 0 0 5 .09 6.15 6.15 0 0 0 1.43-6.64z"/>
      <path class="cls-4" d="M360.36 120.69h-.09a4.48 4.48 0 0 1-3.21-1.42 6.07 6.07 0 0 1-1.32-6.13l3.77-11a1 1 0 0 1 1.88 0l3.76 9.57a7.14 7.14 0 0 1-1.63 7.7 4.47 4.47 0 0 1-3.16 1.28zm.17-15.31l-2.89 8.41a4.07 4.07 0 0 0 .88 4.11 2.49 2.49 0 0 0 1.78.79 2.59 2.59 0 0 0 1.81-.72 5.15 5.15 0 0 0 1.17-5.55z"/>
      <path class="cls-10" d="M38.29 78.55a1.86 1.86 0 0 0-2.77-1c-.26.25-.18.87-.67 1.8C32.94 84 29 99.95 24.41 107.91L23.13 97c-.58-5.64-1.31-11.38-1.37-12.44 0-2-.11-4.1-5-5.14-1.54-.35-2.48-.58-3.45.72s-7 15.23-8.09 20.24C4 105.06 1.49 117.62.87 119.61c-1.57 5.11-1 6.94 1.41 7.61 5.7 1.62 3.78-4 5-8.25S12 95 14.5 87.77c.58 4.24 1.22 8.16 1.85 11.76 1.08 6.16 2.44 13 3.49 15.32 1.56 3.51 3.39 4 4.59 3.71 4.06-1.11 2.71-2.9 4.2-8.06s7.65-23.5 9.44-29.3a5.33 5.33 0 0 0 .22-2.65zM40.94 97.75c-1.12-.44-3.71-.11-1.42 1a2 2 0 0 1 .83.57l-.62.33c-2.06 1-4.55 6.24-5.65 8.9s.08 7.6 4.18 7.49 9.34-5 9.55-10.17-5.73-7.56-6.87-8.12zm1.57 9.16c-.77 1.89-3 3.46-3 2.71a23.2 23.2 0 0 1 3-5.76 5.39 5.39 0 0 1 0 3.04zM115.55 50.44c-.16-.72-3.75-2-5.27-2S107 52.63 103.85 62c-2.08 6.13-4.37 17.91-5.91 26.51a22.78 22.78 0 0 0-6.33 1.72 6.92 6.92 0 0 0 .15-3c-.71-4-3.11-5.57-8-3.76-3.63 1.33-4.55 3.44-6.58 5.94q.16-1-.07-1.13c-.89-.56-2.49-2-4.35-1.3-.68.35-1.67 2.16-2 4.26-.53 2.15-5.52 31.52-6.6 36-.78 3 1.07 6.67 2.59 6.64s1.36-1.26 1.68-4.06c.23-2.34 4.75-22.08 5.79-28.66a6.36 6.36 0 0 0 .64-1.1C81.12 89 84.85 87.61 85.3 87.9c1.24.73 1.33 3.06-.08 4.65-7.22 3.53-12.22 9.57-9.56 12.38s4.73.45 9.34-3.84a22.78 22.78 0 0 0 4.14-4.94c2.24-1.33 5.17-2.95 6.52-4 .51-.35 1.17-.73 1.83-1.1-.56 3.23-1 5.77-1.19 7-.94 4.53-.62 8.14 1 9.54s2.93 0 3.14-2.11-.19-6.43 4.56-24.89S113.41 55 114.76 52c.34-.76 1.13-.88.79-1.56zM153.56 84l1.79-1c3.33-2.09 3.79-3.72 1.73-3l-3.21 1.49a84.17 84.17 0 0 0 .7-10.88c-.31-2.21-3.36-2.22-4.49-2.47-.34-.11-.5.3-.39 1.35-1 1.88-3.7 6.62-5.89 8.13-4.82 3.38-.74-4.66 0-6.08.49-1.19 1.08-2.21-.51-2.23-1 0-1.62.11-3.45 1.86a18.72 18.72 0 0 0-3.17 4.57c-3.47 2.18-10.91 7-12 8.13-1.35 1.32-.3-.76.41-2.12a1.93 1.93 0 0 0-1.16-2.59c-.54-.13-8.65 6.35-9.25 6.48-.42-1.87 6.25-8 7-8.12.82 0 1.22-1 .71-1.36-2-1.44-5.21-.59-7.09.34s-7.81 6.66-7.51 10.78a4.37 4.37 0 0 0 6 3.83 39.44 39.44 0 0 0 5.46-3.9c-.41 3.52 3.47 3.53 5.12 2.45 1.5-1 7.84-6.29 11-9.26.63 2.61 4.56 4 6.8 2.73 2.49-1.33 4.58-4.4 7.77-8.24a64.29 64.29 0 0 1-.69 9c-13.36 7.1-20.83 14.7-21.36 19.63-.62 5.92 3.75 9.24 6.89 7.7 4.31-2 13.54-7.14 17.08-18.35a58.88 58.88 0 0 0 1.71-8.87zm-6.35 8.61c-2.69 8-12 13.71-14.42 14.44s-1.43-5.19 4.61-11.52a55.85 55.85 0 0 1 11.29-8.66 38.77 38.77 0 0 1-1.48 5.73zM163.57 91.17c.21-2.14-.19-6.43 4.56-24.89s8.38-25.63 9.74-28.61c.33-.77 1.13-.89.78-1.58-.16-.72-3.75-2-5.27-2s-3.24 4.16-6.43 13.58-6.79 31.55-7.54 36c-.94 4.53-.62 8.14 1 9.54s2.95.1 3.16-2.04zM177.38 59.29c1 1.3 3.47-.35 4.26-1.35s1.79-1.61.86-2.35-2.23-2.54-3.21-2.12a28.44 28.44 0 0 0-3.29 1.76c-.88.51.28 2.85 1.38 4.06zM211.65 60.44c.41-1.81.9-3.31 1.31-4.86 1.9-.87 3.77-1.55 5.1-2.11a9 9 0 0 0 5.34-5.53c.07-.53-.71-.6-4.52.77-1.11.44-2.66.86-4.37 1.44a118.55 118.55 0 0 1 6.94-18.33c.27-.76 1-.86.78-1.57s-3.74-1.94-5.33-2-3.24 4.16-6.43 13.58c-.85 2.67-1.82 6.25-2.68 10.25-1.62.43-2.87.78-3.35.89-2 .64-1.85.23-3.21 1.23-1.23.83 0 4.27 1.66 4.81a18.52 18.52 0 0 0-3.61 2.23c-1.24 1-2.72 2.27-4.13 3.61a8.69 8.69 0 0 1-.19-3.64c.42-2.32 1.38-3.68 2.89-4 .54-.12.72-.16 1-.54s0-1.71-1.08-2a8.05 8.05 0 0 0-6.86 3.34 7.85 7.85 0 0 0-.21 8.29c-1.76 1.73-10 9.12-11.62 10s.61-7.63 1.46-8.64 1.41-1.08 1.25-2.06-3-3.06-4.13-2.8c-.48.11-.9.21-2.08 2.57s-2.45 9.31-2 12.64c.48 3.51 3.31 5.08 5.45 3.9 1.68-.82 7.44-7.36 10.72-11.32a12.68 12.68 0 0 0-1.84 3.21c-.64 1.92-.4 4.09.19 4.46a21.4 21.4 0 0 0 2 1.44 5.2 5.2 0 0 0 6.38-1.51c1.85-2.2 1.76-5.67.25-8.94a6.16 6.16 0 0 1-.57-1.4 87.38 87.38 0 0 1 9.4-9.18c.22-.15.31-.27.32-.35l.68-.26c-1.61 8.55-3.13 17.21-3.56 19.78-.94 4.53-.63 8.13 1 9.6s2.91 0 3.12-2.17-.12-6.33 4.53-24.83zm-19.91 7.64v.05c-.22.24-.4.47-.61.7zm0 9.64A1.5 1.5 0 0 1 191 77c-.15-.66-.62-2.46 1.86-5.5l.25-.31c.55 1.59 1.13 2.73 1 3.76a3.18 3.18 0 0 1-2.39 2.77zM176.62 117.57c-1.12-.45-3.7-.11-1.42 1a2 2 0 0 1 .83.57l-.62.33c-2.06 1-4.55 6.24-5.65 8.9a5.59 5.59 0 0 0-.38 2c-.64.17-1.45.43-2.53.84-1.57.61-3.94 1.34-6.38 2.08a65.33 65.33 0 0 1 4.79-11.87c1.45-2.55 4.12-3.35 4.21-4.38.25-3.36-5.32-4.44-7-3.6-3.1 1.72-6.32 12.09-8.25 20.65l-.26 1.08c-.72.16-1.25.35-1.5.4-2.11.48-1.85.23-3.28 1.19s.46 5.35 2.57 4.87c.18 0 .47-.17.77-.24-2.19 9.63-4.77 22.85-4.19 26.77.68 5.24 4.72 6 6.52 4.1s-1.79-2-.86-7.41c1-5.82 2.43-16.1 5-25.94 2.62-1 5.3-2.09 7.13-3a9.37 9.37 0 0 0 3.85-2.84 4.15 4.15 0 0 0 4.06 2.76c4.11 0 9.34-5 9.55-10.17s-5.82-7.52-6.96-8.09zm1.57 9.16c-.78 1.89-3 3.46-3 2.71a23.19 23.19 0 0 1 3-5.76 5.41 5.41 0 0 1 0 3.05zM200.54 111.44c-1.07.05-1.38.06-1.76 1.73-1 4-6.72 11.49-8 13s.94-6.75 2-9.34.23-3.16-.38-3.34a7.84 7.84 0 0 0-3.64.19c-1.43.39-1.62.69-2.13 2.64s-3 10.45-2.59 11.5 2.2 5.21 5.34 3.67 4.27-4.65 7-7.94c0 2.1.05 5.25 1.68 6.28s2.51 1.27 3.32.39-.18-2.18.17-4.54c.2-2.2 2.68-10.25 3.33-11.86s-3.22-2.45-4.34-2.38zM262.8 103.18c-1.75.4-7.07 4.9-9.32 6.43.47-2.14.72-4.35 1-6.25 1.05-9.88 6.6-25.1 6.77-25.78s-.83-2-1.84-2.25c-2.52-.76-3.17 0-3.38 1a99.14 99.14 0 0 1-2.8 12L250 99.74a3 3 0 0 0-3.06-.06c-3.06 1.59-7.56 6.1-9.49 9.33a10.78 10.78 0 0 0-1.1 2.62 1.29 1.29 0 0 0-.63.38 48.3 48.3 0 0 1-6.7 6c-1.46.84-2-4.74-1.31-8.27s-.81-5-3.44-4.55-7.29 9.78-11.37 14.45c1-9 2.66-12.28 2.92-12.84.27-.76-.67-1.81-1.68-2.09-2.37-.67-3.88.25-4.09 1.25s-.8 5.7-1.53 10.56a26.69 26.69 0 0 1-1.95 7.61c-.62 1.73 1.72 5.89 3.27 5.73s2.9-.91 5.7-5.61 6.23-12.52 7.18-12.23c-1.2 3.64 1 12.52 4.13 12.32s5-3.1 7.68-6.95a16.2 16.2 0 0 0 1.59-2.73 1.52 1.52 0 0 0 .31.77c.4.35 1.16 2.34 3.65 2.09 2.66-.29 5.56-3.74 6.35-5l.4 1.18a8.51 8.51 0 0 0 .8 1.85 3.79 3.79 0 0 0 3.66 1.58c1.81-.16 4.26-2.75 6.38-5.7s7.95-8.7 5.13-8.25zm-14.63 3.45l-.51.56a19.73 19.73 0 0 1-5.38 4c.26-.25 3.8-5.62 5.41-6.62l1.24-.66z"/>
      <path class="cls-3" d="M97.34 236.11l47.63-16.36 13.23 4.62 3.09 9.35 4.41 2.39.51 4.06-1.65 12.34v10.58l-43.5 15.57-23.72-30.25v-12.3z"/>
      <path class="cls-4" d="M121.06 279.66a1 1 0 0 1-.79-.38L96.55 249a1 1 0 0 1-.21-.62v-12.27a1 1 0 0 1 .67-.95l47.63-16.36a1 1 0 0 1 .66 0l13.23 4.62a1 1 0 0 1 .62.63l3 9 4.06 2.2a1 1 0 0 1 .52.75l.51 4.07a1 1 0 0 1 0 .26l-1.64 12.27v10.51a1 1 0 0 1-.66.94l-43.55 15.55a1 1 0 0 1-.33.06zm-22.72-31.59l23.06 29.41 42.17-15.1v-9.87a1 1 0 0 1 0-.13l1.63-12.21-.43-3.43-4-2.15a1 1 0 0 1-.47-.57l-2.93-8.88L145 220.8l-46.63 16z"/>
      <path class="cls-3" d="M97.34 236.11l24.21 30.86-.49 11.69"/>
      <path class="cls-4" d="M121.06 279.66a1 1 0 0 1-1-1l.48-11.32-24-30.58a1 1 0 0 1 1.57-1.23l24.21 30.87a1 1 0 0 1 .21.66l-.5 11.69a1 1 0 0 1-.97.91z"/>
      <path class="cls-3" d="M164.57 252.51l-43.02 14.46"/>
      <path class="cls-4" d="M121.55 268a1 1 0 0 1-.32-1.95l43-14.46a1 1 0 0 1 .64 1.9l-43 14.46a1 1 0 0 1-.32.05z"/>
      <path class="cls-3" d="M247.39 218.96l.64 12.97-13.7 24.14-10.26-1.84-8.25 6.23-39.51-9.35-2.33-4.03v-11.62"/>
      <path class="cls-4" d="M215.82 261.46h-.23l-39.51-9.34a1 1 0 0 1-.63-.47l-2.33-4a1 1 0 0 1-.13-.5v-11.69a1 1 0 0 1 2 0v11.36l2 3.43 38.63 9.14 7.87-5.94a1 1 0 0 1 .78-.19l9.57 1.71L247 231.69l-.61-12.69a1 1 0 0 1 .95-1 1 1 0 0 1 1 .95l.65 13a1 1 0 0 1-.13.54l-13.7 24.13a1 1 0 0 1-1 .49l-9.84-1.75-7.9 6a1 1 0 0 1-.6.1z"/>
      <path class="cls-3" d="M193.35 208.89l54.04 10.07-13.83 25.12-10.43-2.45-7.62 6.78-39.35-8.64-2.18-4.31 4.86-4.4 14.51-22.17z"/>
      <path class="cls-4" d="M215.51 249.41h-.21l-39.35-8.65a1 1 0 0 1-.68-.53l-2.18-4.31a1 1 0 0 1 .22-1.19l4.76-4.31 14.45-22.06a1 1 0 0 1 1-.44l54 10.07a1 1 0 0 1 .69 1.47l-13.83 25.12a1 1 0 0 1-1.1.49l-9.92-2.33-7.23 6.43a1 1 0 0 1-.62.24zm-38.67-10.52l38.39 8.43 7.24-6.44a1 1 0 0 1 .89-.23l9.68 2.27 12.8-23.25-52-9.69-14.15 21.61a1 1 0 0 1-.17.19l-4.29 3.89zm2-7.84z"/>
      <ellipse class="cls-7" cx="137.56" cy="241.31" rx="10.14" ry="7.48"/>
      <ellipse class="cls-7" cx="209.6" cy="227.45" rx="10.73" ry="7.91"/>
      <ellipse class="cls-4" cx="104.1" cy="237.96" rx="1.38" ry="1.03"/>
      <ellipse class="cls-4" cx="240.81" cy="220.62" rx="1.46" ry="1.09"/>
      <ellipse class="cls-11" cx="137.56" cy="241.31" rx="8.23" ry="6.07"/>
      <ellipse class="cls-11" cx="209.6" cy="227.45" rx="8.66" ry="6.38"/>
      <path class="cls-4" d="M215.51 248.41l.31 12.05 8.25-6.23 10.26 1.84v-11.81l-11.2-2.63-7.62 6.78zM124.7 268.54c11.24 19.29 49.65-4.67 58.46-6.44s13.35-.24 20.61 7.31 24.55 1.2 24.55 1.2l1 8.35s-17.29 6.34-24.55-1.2-11.8-9.08-20.61-7.31-48.28 26.29-59.52 7z"/>
      <path class="cls-4" d="M139.36 285.82c-6.57 0-12.22-2.09-15.58-7.86a1 1 0 0 1-.14-.51l.06-8.92a1 1 0 0 1 1.86-.5c8.24 14.13 32.67 3.43 47.27-3 4.48-2 8-3.52 10.13-3.94 9.25-1.85 14.08-.15 21.53 7.6 6.72 7 23.32 1 23.48 1a1 1 0 0 1 1.34.82l1 8.35a1 1 0 0 1-.65 1.06c-.73.27-18 6.48-25.61-1.45-6.95-7.22-11.18-8.73-19.7-7-1.9.38-5.6 2-9.89 3.9-9.82 4.28-23.82 10.45-35.1 10.45zm-13.71-8.63c8.37 13.77 33.16 2.85 48-3.68 4.58-2 8.19-3.61 10.31-4 9.24-1.85 14.07-.15 21.53 7.6 5.91 6.14 19.42 2.28 22.74 1.21l-.75-6.32c-4.15 1.32-17.85 5-24.42-1.85-6.95-7.22-11.18-8.73-19.7-7-1.9.38-5.52 2-9.72 3.81-14.28 6.26-37.6 16.48-48 4.72z"/>
      <path class="cls-11" d="M138.54 258l-15.65 5.2a1 1 0 0 1-.87-.43l-3.23-4.15c-.25-.31-.26-.63 0-.7l15.2-5a1 1 0 0 1 .87.43l3.68 3.93c.22.3.23.61 0 .72z"/>
      <path class="cls-10" d="M121.28 259.65a.5.5 0 0 1-.15-1l10.5-3.41a.5.5 0 1 1 .31 1l-10.5 3.41zM123.15 261.52a.5.5 0 0 1-.15-1l6.18-2a.5.5 0 0 1 .31 1l-6.18 2z"/>
    </g>
  </g>
</svg>
