<svg xmlns="http://www.w3.org/2000/svg" viewBox="0 0 530.94 285.83"><defs><style>.cls-1{fill:#e7e8e9;}.cls-2{fill:#5f6cff;}.cls-3{fill:#606163;}.cls-4{fill:#373535;}.cls-5{fill:#f89734;}.cls-6{fill:#4c4c4d;}.cls-7{fill:#fff;}.cls-8{fill:#ffbc00;}.cls-9{fill:#ab8059;}.cls-10{fill:#d2d4d5;}.cls-11{fill:#f44336;}</style></defs><title>no-bookmarks</title><g id="Layer_2" data-name="Layer 2"><g id="Layer_1-2" data-name="Layer 1"><g id="Layer_2-2" data-name="Layer 2"><g id="Layer_1-2-2" data-name="Layer 1-2"><ellipse class="cls-1" cx="446.78" cy="252.89" rx="69.27" ry="13.7"/><path class="cls-2" d="M411.74,259.9c-11.13,0-20.16,1.88-20.16,4.19,0,1.21,2.45,2.29,6.37,3.06-.92.26-1.47.59-1.47.94,0,.88,3.41,1.59,7.63,1.59a18.31,18.31,0,0,0,7.56-1.37h.07c11.13,0,20.16-1.88,20.16-4.19S422.87,259.9,411.74,259.9Z"/><path class="cls-3" d="M498.27,148.59l21.31-8.8-7.77-30.39-15.15-2.11-9.34,24.83,11,16.47Z"/><path class="cls-4" d="M498.27,149.59a1,1,0,0,1-.83-.45l-11-16.47a1,1,0,0,1-.1-.91l9.34-24.83a1,1,0,0,1,1.07-.64l15.15,2.11a1,1,0,0,1,.83.74l7.78,30.39a1,1,0,0,1-.59,1.17l-21.31,8.8a1,1,0,0,1-.34.09ZM488.42,132l10.22,15.36,19.78-8.17L511,110.3l-13.69-1.9Z"/><path class="cls-5" d="M434,253.89a1,1,0,0,1-.81-1.58l6.88-9.63V216.84a1,1,0,1,1,2,0V243a1,1,0,0,1-.19.58l-7.07,9.9a1,1,0,0,1-.81.4Z"/><path class="cls-5" d="M449.6,246.47a1,1,0,0,1-.28,0L441,244l-7.94.69a1,1,0,0,1-.17-2L441,242a1,1,0,0,1,.37,0l8.48,2.47a1,1,0,1,1-.28,2Z"/><circle class="cls-6" cx="444.16" cy="164.01" r="63.83"/><path class="cls-4" d="M444.16,228.84A64.83,64.83,0,1,1,509,164,64.83,64.83,0,0,1,444.16,228.84Zm0-127.66A62.83,62.83,0,1,0,507,164,62.83,62.83,0,0,0,444.16,101.18Z"/><path class="cls-3" d="M419.92,201.29c-20.3,0-39.58-16.46-39.58-36.76l2.83-107.44a36.76,36.76,0,1,1,73.51-1.21q0,.61,0,1.21l2.83,107.44c0,20.3-19.29,36.76-39.59,36.76Z"/><path class="cls-4" d="M419.92,202.29c-21.62,0-40.58-17.64-40.58-37.76l2.83-107.47a37.76,37.76,0,0,1,75.51,0l2.83,107.42c0,20.17-19,37.81-40.59,37.81Zm0-181a35.8,35.8,0,0,0-35.76,35.76l-2.83,107.47c0,19,18,35.73,38.58,35.73s38.58-16.71,38.58-35.76L455.67,57.12a35.8,35.8,0,0,0-35.75-35.78Z"/><ellipse class="cls-7" cx="403.22" cy="76.15" rx="7.01" ry="21.94"/><path class="cls-4" d="M403.22,99.09c-5.2,0-8-11.82-8-22.95s2.81-22.94,8-22.94,8,11.82,8,22.94S408.42,99.09,403.22,99.09Zm0-43.89c-2.84,0-6,9-6,20.94s3.17,20.95,6,20.95,6-9,6-20.95S406.06,55.2,403.22,55.2Z"/><ellipse class="cls-7" cx="382.07" cy="71.61" rx="7.01" ry="21.94"/><path class="cls-4" d="M382.06,94.56c-5.2,0-8-11.82-8-22.95s2.81-22.94,8-22.94,8,11.82,8,22.94S387.27,94.56,382.06,94.56Zm0-43.89c-2.84,0-6,9-6,20.94s3.17,20.95,6,20.95,6-9,6-20.95S384.9,50.67,382.06,50.67Z"/><path class="cls-5" d="M450.66,260.25a1,1,0,0,1-.81-1.58l6.88-9.64V213.31a1,1,0,0,1,2,0v36a1,1,0,0,1-.19.58l-7.07,9.9A1,1,0,0,1,450.66,260.25Z"/><path class="cls-5" d="M466.57,255a1,1,0,0,1-.46-.11l-8.58-4.46-7.84.68a1,1,0,0,1-.17-2l8.13-.71a1,1,0,0,1,.55.11l8.84,4.59a1,1,0,0,1-.46,1.89Z"/><path class="cls-8" d="M389.28,99.62l-19.85,9.87,22,5.47,6.88-7.67Z"/><path class="cls-4" d="M391.42,116h-.24l-22-5.48a1,1,0,0,1-.2-1.87l19.86-9.86a1,1,0,0,1,1.09.13l9,7.67A1,1,0,0,1,399,108l0,0-6.87,7.67a1,1,0,0,1-.74.31Zm-19.13-6.79,18.79,4.68,5.79-6.46-7.74-6.58Z"/><path class="cls-3" d="M529.95,185.76l-52.84-29.43a30.24,30.24,0,1,0,52.84,29.43Z"/><path class="cls-4" d="M503.48,202.28a31.23,31.23,0,0,1-27.24-46.43,1,1,0,0,1,1.36-.39h0l52.82,29.43a1,1,0,0,1,.39,1.36h0a31.27,31.27,0,0,1-27.33,16Zm-26-44.58a29.24,29.24,0,0,0,51.06,28.44ZM379.55,45.6a1,1,0,0,1-.33-1.94l14-5a1,1,0,0,1,.79,1.84l-.12,0-14,5a1,1,0,0,1-.34.06Z"/><path class="cls-9" d="M450.87,13.39S434.79,2.42,420.58,1c-4.16-.4-11.36,12.88-11.36,12.88l-15.7,8.37,65.21,17.41L448.24,24.82Z"/><path class="cls-4" d="M458.73,40.66a1,1,0,0,1-.26,0l-65.2-17.44a1,1,0,0,1-.21-1.85l15.43-8.23C410,10.33,416.25-.44,420.68,0c14.29,1.42,30.09,12.1,30.74,12.55a1,1,0,0,1,.41,1.05l-2.53,11,10.23,14.48a1,1,0,0,1-.82,1.58Zm-62.5-18.72L456.32,38l-8.9-12.62a1,1,0,0,1-.16-.8l2.48-10.75c-3-1.92-17-10.61-29.26-11.83h-.11c-2.43,0-7.44,7.17-10.27,12.36a1,1,0,0,1-.41.4Z"/><ellipse class="cls-4" cx="401.23" cy="83.61" rx="3.66" ry="8.88"/><ellipse class="cls-4" cx="383.99" cy="82.43" rx="3.66" ry="8.88"/><path class="cls-4" d="M418.15,50.54a1,1,0,0,1-.5-.13L404.82,43a1,1,0,0,1,1-1.73l12.84,7.41a1,1,0,0,1-.5,1.87Z"/><path class="cls-2" d="M413.64,112l-3.76-9.57-3.77,11a5.07,5.07,0,0,0,1.1,5.12,3.51,3.51,0,0,0,5,.13l0,0A6.15,6.15,0,0,0,413.64,112Z"/><path class="cls-4" d="M409.78,120.7h-.09a4.48,4.48,0,0,1-3.21-1.42,6.07,6.07,0,0,1-1.32-6.13l3.77-11a1,1,0,0,1,1.88,0l3.76,9.57a7.14,7.14,0,0,1-1.63,7.7A4.47,4.47,0,0,1,409.78,120.7Zm.17-15.31-2.89,8.41a4.07,4.07,0,0,0,.88,4.11,2.49,2.49,0,0,0,1.78.79,2.59,2.59,0,0,0,1.81-.72,5.15,5.15,0,0,0,1.17-5.55Z"/><path class="cls-3" d="M146.76,236.12l47.63-16.36,13.23,4.62,3.09,9.35,4.41,2.39.51,4.06L214,252.52V263.1l-43.5,15.57-23.72-30.25Z"/><path class="cls-4" d="M170.48,279.67a1,1,0,0,1-.79-.38L146,249a1,1,0,0,1-.21-.62V236.12a1,1,0,0,1,.67-.95l47.63-16.36a1,1,0,0,1,.66,0l13.23,4.62a1,1,0,0,1,.62.63l3,9,4.06,2.2a1,1,0,0,1,.52.75l.51,4.07a1,1,0,0,1,0,.26L215,252.61v10.51a1,1,0,0,1-.66.94l-43.55,15.55a1,1,0,0,1-.33.06Zm-22.72-31.59,23.06,29.41L213,262.39v-9.87a1,1,0,0,1,0-.13l1.63-12.21-.43-3.43-4-2.15a1,1,0,0,1-.47-.57l-2.93-8.88-12.37-4.34-46.63,16Z"/><path class="cls-3" d="M146.76,236.12,171,267l-.49,11.69"/><path class="cls-4" d="M170.48,279.67a1,1,0,0,1-1-1l.48-11.32-24-30.58a1,1,0,0,1,1.57-1.23l24.21,30.87a1,1,0,0,1,.21.66l-.5,11.69A1,1,0,0,1,170.48,279.67Z"/><path class="cls-3" d="M214,252.52,171,267"/><path class="cls-4" d="M171,268a1,1,0,0,1-.32-2l43-14.46a1,1,0,1,1,.64,1.9h0l-43,14.46a1,1,0,0,1-.32,0Z"/><path class="cls-3" d="M296.81,219l.64,13-13.7,24.14-10.26-1.84-8.25,6.23-39.51-9.35-2.33-4V235.47"/><path class="cls-4" d="M265.24,261.47H265l-39.51-9.34a1,1,0,0,1-.63-.47l-2.33-4a1,1,0,0,1-.13-.5V235.47a1,1,0,0,1,2,0v11.36l2,3.43L265,259.4l7.87-5.94a1,1,0,0,1,.78-.19l9.57,1.71,13.16-23.28L295.81,219a1,1,0,0,1,1.95-.05l.65,13a1,1,0,0,1-.13.54l-13.7,24.13a1,1,0,0,1-1,.49l-9.84-1.75-7.9,6a1,1,0,0,1-.6.1Z"/><path class="cls-3" d="M242.77,208.9l54,10.07L283,244.09l-10.43-2.45-7.62,6.78-39.35-8.64-2.18-4.31,4.86-4.4Z"/><path class="cls-4" d="M264.93,249.42h-.21l-39.35-8.65a1,1,0,0,1-.68-.53l-2.18-4.31a1,1,0,0,1,.22-1.19l4.76-4.31,14.45-22.06a1,1,0,0,1,1-.44l54,10.07a1,1,0,0,1,.69,1.47L283.8,244.59a1,1,0,0,1-1.1.49l-9.92-2.33-7.23,6.43a1,1,0,0,1-.62.24ZM226.26,238.9l38.39,8.43,7.24-6.44a1,1,0,0,1,.89-.23l9.68,2.27,12.8-23.25-52-9.69L229.11,231.6a1,1,0,0,1-.17.19l-4.29,3.89Z"/><ellipse class="cls-7" cx="186.98" cy="241.32" rx="10.14" ry="7.48"/><ellipse class="cls-7" cx="259.02" cy="227.46" rx="10.73" ry="7.91"/><ellipse class="cls-4" cx="153.52" cy="237.97" rx="1.38" ry="1.03"/><ellipse class="cls-4" cx="290.23" cy="220.63" rx="1.46" ry="1.09"/><ellipse class="cls-10" cx="186.98" cy="241.32" rx="8.23" ry="6.07"/><ellipse class="cls-10" cx="259.02" cy="227.46" rx="8.66" ry="6.38"/><path class="cls-4" d="M264.93,248.42l.31,12,8.25-6.23,10.26,1.84V244.27l-11.2-2.63Zm-90.81,20.13c11.24,19.29,49.65-4.67,58.46-6.44s13.35-.24,20.61,7.31,24.55,1.2,24.55,1.2l1,8.35s-17.29,6.34-24.55-1.2-11.8-9.08-20.61-7.31-48.28,26.29-59.52,7Z"/><path class="cls-4" d="M188.78,285.83c-6.57,0-12.22-2.09-15.58-7.86a1,1,0,0,1-.14-.51l.06-8.92A1,1,0,0,1,175,268c8.24,14.13,32.67,3.43,47.27-3,4.48-2,8-3.52,10.13-3.94,9.25-1.85,14.08-.15,21.53,7.6,6.72,7,23.32,1,23.48,1a1,1,0,0,1,1.34.82l1,8.35a1,1,0,0,1-.65,1.06c-.73.27-18,6.48-25.61-1.45-6.95-7.22-11.18-8.73-19.7-7-1.9.38-5.6,2-9.89,3.9-9.82,4.28-23.82,10.45-35.1,10.45Zm-13.71-8.63c8.37,13.77,33.16,2.85,48-3.68,4.58-2,8.19-3.61,10.31-4,9.24-1.85,14.07-.15,21.53,7.6,5.91,6.14,19.42,2.28,22.74,1.21L276.9,272c-4.15,1.32-17.85,5-24.42-1.85-6.95-7.22-11.18-8.73-19.7-7-1.9.38-5.52,2-9.72,3.81-14.28,6.26-37.6,16.48-48,4.72Z"/><path class="cls-10" d="M188,258l-15.65,5.2a1,1,0,0,1-.87-.43l-3.23-4.15c-.25-.31-.26-.63,0-.7l15.2-5a1,1,0,0,1,.87.43l3.68,3.93c.22.3.23.61,0,.72Z"/><path class="cls-11" d="M170.7,259.66a.51.51,0,1,1-.15-1l10.5-3.41a.52.52,0,1,1,.31,1l-10.5,3.41Zm1.87,1.87a.51.51,0,1,1-.15-1l6.18-2a.52.52,0,1,1,.31,1l-6.18,2Z"/></g></g><path class="cls-11" d="M46.54,74.43c-3,6.06-13,25.22-15.6,30.56s-1.65,7.41-5.84,8.28c-1.23.27-2.9-.45-3.65-4.32-.5-2.6-.34-10,0-16.63.17-3.89.41-8.12.77-12.7-4,7.53-11.59,28.41-13.8,32.76S6.85,123,1.66,120.8c-2.16-.9-2.35-2.9.29-8.24,1-2.07,6.25-15.29,8.4-20.23,2.15-5.26,11.06-19.74,12.29-21s2.1-1,3.52-.5c4.57,1.49,4.27,3.7,3.78,5.88-.18,1.14-.72,7.32-1.38,13.39l-1.14,11.78C33.63,93.75,40.93,77,43.82,72.18c.68-1,.74-1.63,1-1.87a1.61,1.61,0,0,1,2.47,1.3A6.71,6.71,0,0,1,46.54,74.43Z"/><path class="cls-11" d="M50.63,101.55c-1.34,5.52-7.5,10.39-11.52,10.12s-4.09-5.56-2.43-8.32,5.22-8.18,7.45-9.07L44.8,94a1.62,1.62,0,0,0-.68-.68c-2-1.38.61-1.54,1.6-1S52,96,50.63,101.55Zm-5.37.67A6.64,6.64,0,0,0,45.93,99a30.37,30.37,0,0,0-4.18,5.92C41.62,105.69,44.09,104.18,45.26,102.22Z"/><path class="cls-11" d="M96.13,58.28c-.43.79-12.64,27-15.83,37.55,4.12-6.3,10.34-13,13.92-13.59,3.76-.61,5.56,2.18,4.9,6.42S95,102,86.44,104.73s-10.5-.86-7-1.09c6.11-.2,14-12.62,12.31-13.65-.93-.51-6.53,4.27-10.59,9.57s-7.06,12.94-8.86,13-3.1-5-2.12-7.06S83.27,74.84,86,69.16a123.72,123.72,0,0,0,5.34-12.53c.43-1.05,1.23-1.9,3.52-.9C95.75,56.12,96.56,57.49,96.13,58.28Z"/><path class="cls-11" d="M115.17,91.11c-1.34,5.52-7.5,10.39-11.52,10.12s-4.09-5.56-2.43-8.32,5.23-8.18,7.45-9.07l.68-.31c-.19-.36-.19-2.26.92-1.66S116.51,85.59,115.17,91.11Zm-5.37.67a6.64,6.64,0,0,0,.67-3.25,30.43,30.43,0,0,0-4.18,5.92C106.17,95.25,108.64,93.74,109.8,91.78Zm21.35-5c-1.28,6.17-7.5,12.22-11.51,11.82-4.32,0-4-7.15-2.44-10.09s5.23-7.27,7.45-8.15l.68-.37c-.12-.24-.13-2.6.92-1.85S132.43,80.59,131.15,86.76Zm-4.63.94a3.52,3.52,0,0,0-.32-3.36c-1.85,2.26-6.28,6.52-4.48,8.46C122.22,93.64,125.54,91.27,126.52,87.7Z"/><path class="cls-11" d="M152.18,77.2c-1,.17-5.55,3.19-9.49,6.58.44,1.5.75,3.42,1.5,5.46s2.54,3.39,4.95,2.28a30.05,30.05,0,0,0,5.36-3.82c1.66-1.32,1,1.87-2,5.1s-4.13,3.88-6,4.18c-3.64.59-7.67-5.77-7.68-9.24a11.64,11.64,0,0,1-1.79,2c-2.27,6.13-3.74,10-5.16,10.07-1.73.08-2.48-4.45-1.5-6.51s9.26-22,13.44-31.33a83.32,83.32,0,0,0,3.74-11.09c.43-1.05,1.91-1.88,4.32-.9.93.37,1.73,1.75,1.3,2.54-.43.53-9.46,18.43-13.38,29.48,5.48-5.15,12.63-10.82,15.47-11.08S153.35,77.2,152.18,77.2Z"/><path class="cls-11" d="M194.41,80c-2.4,2.62-9.42,9.06-10.9,10s-4.26,1.28-4.26-1.15a3.51,3.51,0,0,1-.5-3.13c.31-1.16.92-3.42,1.59-5.43l1.1-3.65c-2,2.61-7.51,7.83-9.29,10s-1.78,3-3.45,3.31A2.75,2.75,0,0,1,165.42,87a17.64,17.64,0,0,1,1.53-4.77c.43-1.05.92-2.11,1.47-3.25-2.58,3-7.81,9.52-9.29,11.2s-1.54,2.35-3.21,1.57-1.49-3.49-2-3.94.55-2.91,1.78-4.61,6.89-9.83,7.38-11.15,1.23-2.89,2-2.69a3.77,3.77,0,0,1,2,.52c.68.35,1.05.75.38,2.23-.43.79-1.41,2.78-2.46,4.72l-2,3.66c1.66-2,7.82-8.28,8.37-8.69.68-.57,1.36-1.14,3.33-.21s2,1.58,1.55,2.44L175,76.92l-1,2.13c4.25-3.9,7.64-6.8,8.56-7.41s4.57.37,4.39,2.43c0,1.83-2,7.14-3.18,10.28.06.51.25.61.5.31,1.29-1.32,10.17-7.67,12.08-9S196.81,77.38,194.41,80Z"/><path class="cls-11" d="M202.18,75.66c.62-.1,9.92-6.39,10.42-6.21a2,2,0,0,1,.56,2.86c-1,1.4-2.46,3.54-.86,2.24s12.7-7.43,15-8.58.38,2.23-2.76,4.84-12,8.88-13.8,9.9-5.62.71-4.45-3a46.7,46.7,0,0,1-6.16,3.75c-1.42.75-5.68-.06-5-4.56s7.69-10.09,9.66-10.93,5.31-1.51,7,.18c.43.39-.18,1.47-1,1.4C210,67.65,202.17,73.63,202.18,75.66Z"/><path class="cls-11" d="M239.89,70.55c-1.11.18-4-.34-3.65-2.16s-1-2.07-2.29-1.14c-.43.33-1.54,1-2.71,1.82a35.5,35.5,0,0,0-2.51,6.24c-1.35,3.76.14,5.35-4.11,8.46-1.73,1.26-3.08,1.61-3.77-.11C219.29,79.78,226,68,226.78,65.79s.42-3.21,1.78-4.55c2-1.83,2.77-2.61,3.7-1.25s3.52-.5,1.43,4c2.46-2.23,5-4.48,6.16-4.67,2-.33.63,3.63.94,6.53S241.06,70.36,239.89,70.55Z"/><path class="cls-11" d="M262,59.44c-1,.17-5.55,3.19-9.49,6.58.44,1.5.75,3.42,1.5,5.46s2.54,3.39,4.95,2.28a30,30,0,0,0,5.36-3.82c1.66-1.32,1,1.87-2,5.1s-4.13,3.88-6,4.18c-3.64.59-7.67-5.77-7.68-9.24a11.64,11.64,0,0,1-1.79,2c-2.27,6.13-3.74,10-5.16,10.07-1.73.08-2.48-4.45-1.5-6.51s9.26-22,13.44-31.33a83.29,83.29,0,0,0,3.74-11.09c.43-1.05,1.91-1.88,4.32-.9.93.38,1.73,1.75,1.3,2.54-.43.53-9.46,18.43-13.38,29.48,5.48-5.15,12.63-10.82,15.47-11.08S263.19,59.44,262,59.44Z"/><path class="cls-11" d="M283.86,56a108.61,108.61,0,0,0-11.15,9.08,6.52,6.52,0,0,0,.25,1.53c.75,3.61.08,7.33-2.2,9.53s-5,2.38-6.54,1.12c-.68-.41-1.18-1.32-1.67-1.7s-.25-2.78.79-4.78a23.49,23.49,0,0,1,5-5.8c-.19-.69-.5-1.3-.68-2-1.18-3.54.47-7,2-8.84,2.34-2.87,6.35-3.39,7.4-3a1.51,1.51,0,0,1,.63,2.19c-.31.38-.49.41-1,.5-1.54.25-2.77,1.63-3.69,4.07a10.47,10.47,0,0,0-.61,3.9c1.66-1.32,3.39-2.58,4.81-3.53C281.76,55.26,285.53,55,283.86,56ZM269,68.39l-.31.31c-3.08,3.05-3,5-3,5.73a1.31,1.31,0,0,0,.56.83,3.93,3.93,0,0,0,3-2.77C269.52,71.39,269.21,70.13,269,68.39Z"/><path class="cls-11" d="M265.77,118.95c2.16-.61,1.36,1.09-2.34,3.06l-2,1a75.86,75.86,0,0,1-3.62,9.3,38.26,38.26,0,0,1-20.63,18.27c-3.39,1.4-6.92-2.48-5-8.75,1.59-5.24,10.52-12.78,25.08-19.32a80.73,80.73,0,0,0,2.63-9.53c-3.94,3.85-6.65,7-9.36,8.2s-6.73-1-5.94-4.35c.55-2,3.75-6.57,6.27-8.62,2.16-1.72,2.77-1.76,3.76-1.72,1.54.14.74,1.19,0,2.42-1,1.47-6.7,9.73-1.28,6.5,2.46-1.45,6.09-6.29,7.51-8.23.12-1.13.37-1.57.67-1.42,1.05.35,4,.59,3.84,3a105.14,105.14,0,0,1-3.05,11.57Zm-9.68,6.74a66.29,66.29,0,0,0-12.88,8.37c-7.27,6.29-9.53,12.55-7,11.94S249,140,253.4,131.7A50.11,50.11,0,0,0,256.1,125.69Z"/><path class="cls-11" d="M289.28,113.58c-1.85,1.54-12.57,9.24-16.89,11s-6.24-1.61-5.75-4.31a32.07,32.07,0,0,1,6.26-12.41c3.14-3.65,5.73-4.53,7-4.54,1.73-.08,4.14,2.54,4.46,5.17s-3.57,5.43-6,7.07-4.5,3.54-6.11,1.05c-.49.8-1.54,3.2,1.67,2.48s10.42-4.5,14.73-7.89S291.06,112,289.28,113.58ZM275,112.74c1.11-.51,3.58-2.08,3.88-3.77A10.34,10.34,0,0,0,275,112.74Z"/><path class="cls-11" d="M313.81,76.59a155.83,155.83,0,0,0-10.75,19c1.79-.49,3.39-.81,4.57-1.2,4-1.17,4.75-1,4.57-.48a11.31,11.31,0,0,1-6.41,5.49c-1.42.49-3.39,1.07-5.43,1.86-.74,1.63-1.53,3.2-2.33,5.09-8.53,19.4-9.13,24-9.81,26.22s-2.21,3.7-3.51,2.07-.82-5.57,1.08-10.33c1-2.71,4.35-11.84,7.78-20.85a24.77,24.77,0,0,1-3,.81c-2.1.54-3-4.43-1.37-5.35s1.29-.54,3.39-1.07c.49-.08,1.79-.35,3.46-.69,1.72-4.21,3.43-8,4.85-10.74,5.16-9.81,7.74-14,9.22-14s4.57,1.75,4.76,2.51S314.24,75.8,313.81,76.59Z"/></g></g></svg>