<?xml version="1.0" encoding="UTF-8"?>
<svg width="36px" height="32px" viewBox="0 0 36 32" version="1.1" xmlns="http://www.w3.org/2000/svg" xmlns:xlink="http://www.w3.org/1999/xlink">
    <!-- Generator: Sketch 52.2 (67145) - http://www.bohemiancoding.com/sketch -->
    <title>stars</title>
    <desc>Created with Sketch.</desc>
    <defs>
        <linearGradient x1="101.976162%" y1="50%" x2="0%" y2="50%" id="linearGradient-1">
            <stop stop-color="#F54848" offset="0%"></stop>
            <stop stop-color="#7764E6" offset="100%"></stop>
        </linearGradient>
    </defs>
    <g id="Page-1" stroke="none" stroke-width="1" fill="none" fill-rule="evenodd">
        <g id="UI-Design---Assets" transform="translate(-122.000000, -1592.000000)" fill="">
            <g id="Membership" transform="translate(82.000000, 1581.000000)">
                <g id="stars" transform="translate(40.000000, 11.000000)">
                    <path d="M5.15790835,13.0486778 L5.83518332,14.8850154 C5.86064322,14.9541511 5.9264664,15 6.00005175,15 C6.07363709,15 6.13946027,14.9541511 6.16492018,14.8850154 L6.84219514,13.0486778 C7.39041114,11.5620547 8.56229139,10.3901644 10.0487982,9.84204716 L11.8851199,9.16476636 C11.9541515,9.13930623 12,9.07348248 12,8.9998965 C12,8.92631052 11.9541515,8.86048678 11.8851199,8.83502665 L10.0486947,8.15774585 C8.5621879,7.60952512 7.39030764,6.43773826 6.84219514,4.95121867 L6.16492018,3.11488107 C6.13946027,3.04584893 6.07363709,3 6.00005175,3 C5.9264664,3 5.86064322,3.04584893 5.83518332,3.11488107 L5.15790835,4.95121867 C4.60969236,6.43773826 3.4379156,7.60952512 1.95130534,8.15774585 L0.114880075,8.83502665 C0.0458485342,8.86048678 0,8.92631052 0,8.9998965 C0,9.07348248 0.0458485342,9.13930623 0.114880075,9.16476636 L1.95120184,9.84204716 C3.4378121,10.3901644 4.60969236,11.5619513 5.15790835,13.0486778 Z" id="Path"></path>
                    <path d="M23.8850154,18.8349735 L22.0487813,18.1577903 C20.5621582,17.6095649 19.3902679,16.4377679 18.8421507,14.9512355 L18.1648699,13.1148821 C18.1394097,13.0458493 18.073586,13 18,13 C17.926414,13 17.8605903,13.0458493 17.8351301,13.1148821 L17.1578493,14.951132 C16.6096286,16.4377679 15.4377383,17.6095649 13.9512187,18.1577903 L12.1148811,18.8349735 C12.0458489,18.8604338 12,18.9262581 12,18.9998448 C12,19.0734314 12.0458489,19.1392557 12.1148811,19.164716 L13.9513222,19.8421062 C15.4378418,20.3903316 16.6096286,21.5621286 17.1578493,23.048661 L17.8351301,24.8851179 C17.8605903,24.9541507 17.926414,25 18,25 C18.073586,25 18.1394097,24.9541507 18.1648699,24.8851179 L18.8421507,23.048661 C19.3903714,21.5621286 20.5621582,20.3902281 22.0486778,19.8421062 L23.8851189,19.164716 C23.9541511,19.1392557 24,19.0734314 24,18.9998448 C24,18.9262581 23.9540476,18.8604338 23.8850154,18.8349735 Z" id="Path"></path>
                    <path d="M35.9137679,10.8899986 L34.5364535,10.4385208 C33.4216043,10.0730339 32.5427226,9.29180573 32.1315499,8.30082869 L31.6236374,7.07665072 C31.6044493,7.03066029 31.5551086,7 31.4999429,7 C31.4447772,7 31.3954365,7.03066029 31.3762484,7.07665072 L30.8684501,8.30072717 C30.4572774,9.29180573 29.5783957,10.0730339 28.4634323,10.4385208 L27.0862321,10.8899986 C27.0344928,10.9069531 27,10.9508116 27,10.9998477 C27,11.0488839 27.0344928,11.0928438 27.0862321,11.1097983 L28.4635465,11.5611746 C29.5783957,11.926763 30.4572774,12.7079912 30.8684501,13.6989683 L31.3762484,14.9233493 C31.3954365,14.9693397 31.4447772,15 31.4999429,15 C31.5551086,15 31.6044493,14.9693397 31.6236374,14.9233493 L32.1315499,13.6989683 C32.5427226,12.7078897 33.4214901,11.926763 34.5364535,11.5612762 L35.9137679,11.1097983 C35.9655072,11.0928438 36,11.0488839 36,10.9998477 C36,10.9508116 35.9655072,10.9069531 35.9137679,10.8899986 Z" id="Path"></path>
                    <path d="M32.9424735,28.4036534 L32.0242332,28.0084602 C31.2809737,27.6886633 30.6951206,27.0051307 30.4210239,26.1380747 L30.0823054,25.0669905 C30.0696431,25.0267453 30.0366772,25 29.9998908,25 C29.9631045,25 29.9301386,25.0267453 29.9174763,25.0669905 L29.5787578,26.1380747 C29.3046611,27.0052581 28.718808,27.6887906 27.9756577,28.0084602 L27.0574173,28.4036534 C27.0229233,28.4184269 27,28.4568892 27,28.499809 C27,28.5427287 27.0229233,28.581191 27.0574173,28.5959646 L27.9755485,28.9911577 C28.7189171,29.3109546 29.3047702,29.9946146 29.5788669,30.8617979 L29.9175854,31.9330095 C29.9302478,31.9732547 29.9632136,32 30,32 C30.0367864,32 30.0697522,31.9732547 30.0824146,31.9330095 L30.4211331,30.8617979 C30.6952298,29.9946146 31.2810829,29.3109546 32.0244515,28.9911577 L32.9425827,28.5959646 C32.9770767,28.581191 33,28.5427287 33,28.499809 C33,28.4568892 32.9770767,28.4184269 32.9424735,28.4036534 Z" id="Path"></path>
                    <path d="M23.9424735,3.40378073 L23.0242332,3.00871495 C22.2809737,2.688918 21.6951206,2.00538544 21.4211331,1.13820206 L21.0824146,0.0671178793 C21.0697522,0.026745265 21.0367864,0 21,0 C20.9632136,0 20.9302478,0.026745265 20.9175854,0.0669905209 L20.5789761,1.13794735 C20.3048794,2.00513072 19.7189171,2.68879064 18.9756577,3.0085876 L18.0574173,3.40365337 C18.0229233,3.41842694 18,3.45688918 18,3.49980896 C18,3.54272874 18.0229233,3.58119098 18.0574173,3.59596456 L18.9755485,3.99115769 C19.7189171,4.31095464 20.3048794,4.99461456 20.5789761,5.8619253 L20.9175854,6.93300948 C20.9302478,6.97325474 20.9632136,7 21,7 C21.0367864,7 21.0697522,6.97325474 21.0824146,6.93300948 L21.4211331,5.86179794 C21.6952298,4.9944872 22.2810829,4.31095464 23.0244515,3.99128505 L23.9425827,3.59609192 C23.9770767,3.58131834 24,3.5428561 24,3.49993632 C24,3.45701654 23.9770767,3.4185543 23.9424735,3.40378073 Z" id="Path"></path>
                    <path d="M8.93297269,26.889956 L7.86175075,26.4386716 C6.99464823,26.0732469 6.31101018,25.2919463 5.9910611,24.3008563 L5.59608598,23.0766026 C5.58120227,23.0306642 5.54282863,23 5.49989875,23 C5.45696887,23 5.41859523,23.0306642 5.40371153,23.0766026 L5.0087364,24.3007406 C4.68898982,25.2918306 4.00535177,26.0731312 3.13804675,26.4386716 L2.06702731,26.889956 C2.02662867,26.9068503 2,26.9508216 2,26.9998843 C2,27.048947 2.02672992,27.0929183 2.06702731,27.1098125 L3.138148,27.5613284 C4.00525052,27.9267531 4.68888857,28.7080537 5.0087364,29.6991437 L5.40371153,30.9233974 C5.41859523,30.9694515 5.45696887,31 5.49989875,31 C5.54282863,31 5.58130352,30.9694515 5.59608598,30.9233974 L5.99116235,29.699028 C6.31090893,28.7080537 6.99444573,27.9268688 7.8616495,27.5613284 L8.93297269,27.1098125 C8.97327008,27.0929183 9,27.048947 9,26.9998843 C9,26.9508216 8.97337133,26.9068503 8.93297269,26.889956 Z" id="Path"></path>
                </g>
            </g>
        </g>
    </g>
</svg>