<?xml version="1.0" encoding="UTF-8"?>
<svg width="86px" height="86px" viewBox="0 0 86 86" version="1.1" xmlns="http://www.w3.org/2000/svg" xmlns:xlink="http://www.w3.org/1999/xlink">
    <!-- Generator: Sketch 52.2 (67145) - http://www.bohemiancoding.com/sketch -->
    <title>cooking_color_icon</title>
    <desc>Created with Sketch.</desc>
    <g id="cooking_color_icon" stroke="none" stroke-width="1" fill="none" fill-rule="evenodd">
        <g id="Group" transform="translate(-13.000000, -17.000000)">
            <path d="M63.1333083,23.1597838 L57.1116209,12.7299153 C55.0274569,10.8165191 53.1839157,10.3225437 51.5809972,11.2479892 L19.6215121,29.6998064 C17.2169847,31.088061 16.0150581,33.5496102 17.3889142,35.9291987 C18.0839237,37.1329906 41.0961196,76.9912831 41.6882503,78.0168836 C43.0586001,80.390399 46.1709135,81.3441336 48.5802306,79.9531138 L57.2404846,74.9531138 C59.2313106,73.8037099 61.9503786,74.511097 62.6429021,76.6791205 L66.5865493,89.0260963 C68.0927463,93.7417 73.5217663,95.9017457 77.7425988,93.464847 C81.9634313,91.0279482 82.8072868,85.2462561 79.4765527,81.5840494 L70.7555816,71.9952628 C69.2241944,70.3113599 69.9720905,67.6025177 71.9629165,66.4531138 L80.6231705,61.4531138 M75.2425119,89.1347701 C74.0467359,89.8251517 72.5178892,89.4153845 71.8275353,88.2196564 C71.1371814,87.0239284 71.5469097,85.4949244 72.7425119,84.8046431 C73.9384617,84.1141612 75.4673084,84.5239284 76.1576623,85.7196564 C76.8480162,86.9153845 76.4382879,88.4443885 75.2425119,89.1347701 Z" id="Shape" stroke="#1D1D1D" stroke-width="2" fill="#967151" stroke-linecap="round" stroke-linejoin="round" transform="translate(49.166726, 52.635502) rotate(-330.000000) translate(-49.166726, -52.635502) "></path>
            <path d="M78,78 L78,89.199999 C78,91.5614448 77.9320961,93.2827711 76.7944384,95.3502169 L76.3607327,96.1382651 C75.306991,98.0532289 75.9409191,100 78.1215558,100 L83,100 C84.0537417,100 85,99.0569137 85,97.999998 L85,78 L78,78 Z" id="Path" stroke="#1D1D1D" stroke-width="2" fill="#DC4B4B" stroke-linecap="round" stroke-linejoin="round"></path>
            <path d="M82.9378258,32 C76.8970571,32 72,36.9118072 72,42.9707711 L72,76.059012 C72,77.0135422 73.0483363,77.999998 74,77.999998 L85,77.999998 L85,34.0920723 C85,33.1373735 83.8894895,32 82.9378258,32 Z" id="Path" stroke="#1D1D1D" stroke-width="2" fill="#E8E2E4" stroke-linecap="round" stroke-linejoin="round"></path>
            <path d="M76,36 C74.18526,37.7629315 73,41.7240109 73,45.7782959 L73,75.2699888 C73,76.1207656 73.4838475,76.999998 73.9230769,76.999998 L76,76.9999998 C76,49.6666666 76,36 76,36 Z" id="Path-Copy" fill="#C8C8C8"></path>
            <path d="M48.7573593,37.7573593 L48.7573593,48.5996879" id="Line-6" stroke="#3F2712" stroke-width="2" stroke-linecap="round" stroke-linejoin="round" transform="translate(48.757359, 43.178524) rotate(-317.000000) translate(-48.757359, -43.178524) "></path>
            <path d="M57.2426407,46.2426407 L57.2426407,57.0849693" id="Line-6-Copy" stroke="#3F2712" stroke-width="2" stroke-linecap="round" stroke-linejoin="round" transform="translate(57.242641, 51.663805) rotate(-317.000000) translate(-57.242641, -51.663805) "></path>
            <path d="M53,39 L53,55.8423286" id="Line-6-Copy-2" stroke="#3F2712" stroke-width="2" stroke-linecap="round" stroke-linejoin="round" transform="translate(53.000000, 47.421164) rotate(-317.000000) translate(-53.000000, -47.421164) "></path>
            <path d="M21.8192628,22.0239845 C19.4147354,23.4122391 18.2357611,25.5389376 19.6096172,27.9185261 C20.3046267,29.122318 43.0174865,68.4621451 43.6096172,69.4877455 C44.979967,71.861261 47.5304272,71.842867 49.9397442,70.4518471 L21.8192628,22.0239845 Z" id="Shape-Copy" fill="#8A6647" transform="translate(34.482903, 46.714007) rotate(-330.000000) translate(-34.482903, -46.714007) "></path>
        </g>
    </g>
</svg>