<?xml version="1.0" encoding="UTF-8"?>
<svg width="86px" height="86px" viewBox="0 0 86 86" version="1.1" xmlns="http://www.w3.org/2000/svg" xmlns:xlink="http://www.w3.org/1999/xlink">
    <!-- Generator: Sketch 52.2 (67145) - http://www.bohemiancoding.com/sketch -->
    <title>Movies_gray_icon</title>
    <desc>Created with Sketch.</desc>
    <g id="Movies_gray_icon" stroke="none" stroke-width="1" fill="none" fill-rule="evenodd">
        <g id="popcorn" transform="translate(11.000000, 5.000000)">
            <path d="M4.7567623,36 C4.49971275,36 4.13702623,35.8552687 3.94981426,35.6788958 C-1.19117812,30.830691 1.09996734,25.0004232 5.39410443,23.6081904 C6.14295233,23.3650184 6.44988589,22.4913571 6.01501431,21.8350857 C4.72741866,19.8908819 4.56368169,17.3085712 5.81019628,15.152837 C6.65587775,13.6902893 8.07434558,12.6109574 9.7105427,12.183795 C10.5673748,11.9599596 11.4664616,11.9177707 12.340313,12.0578144 C13.0609908,12.1732478 13.8996299,12.7685797 14.28227,11.8439403 C14.4970648,11.3247827 14.232386,10.5864774 14.1337916,10.06732 C13.9594907,9.14268042 14.2212354,7.68423454 14.6402614,6.83225361 C15.1889861,5.71659229 16.0798566,4.76792856 17.1573524,4.14681475 C19.4608222,2.81903708 22.2496345,3.09326475 24.2309119,4.6231974 C24.8535823,5.10426771 25.7673408,4.86050978 26.0431704,4.1239624 C26.9463653,1.71509489 29.2721361,0 31.9999138,0 C34.7282783,0 37.0540492,1.71509489 37.9566573,4.1239624 C38.2330737,4.86050978 39.1462453,5.10426771 39.7695026,4.6231974 C41.75078,3.09326475 44.5395924,2.81903708 46.8430621,4.14681475 C48.2104722,4.9349263 49.2480606,6.22285877 49.7257738,7.72642342 C50.0491399,8.74481587 50.0168619,9.71223021 49.7609861,10.7183176 C49.6330482,11.2210684 48.9945322,12.3900517 49.8654492,12.6004101 C50.4300193,12.736352 51.1207669,12.3953254 51.6483641,12.237117 C54.1783662,11.4794752 56.9143602,12.9472964 58.1896314,15.152837 C59.436146,17.3085712 59.2729957,19.8908819 57.9848134,21.8350857 C57.5505285,22.4913571 57.8568753,23.3650184 58.6057231,23.6081904 C62.9004472,25.0004232 65.1910056,30.830691 60.0500133,35.6788958 C59.8633883,35.8552687 59.5001149,36 59.2436522,36 L4.7567623,36 Z" id="Path" stroke="#1D1D1D" stroke-width="2" stroke-linecap="round" stroke-linejoin="round"></path>
            <path d="M51.9329524,35.291951 L47,77 L53.6264229,77 C54.7196904,77 55.6649234,76.2214263 55.8959035,75.131423 L63.8713426,37.4425774 C64.6524127,33.6025928 61.7781212,30 57.9338281,30 C54.923022,30 52.3684163,32.2528692 51.9329524,35.291951 Z" id="Path" stroke="#1D1D1D" stroke-width="2" fill="#FFFFFF" stroke-linecap="round" stroke-linejoin="round"></path>
            <path d="M39.1228669,36.0575976 L37,77 L47.2231417,77 L51.9309286,37.4008575 C52.4995642,33.4991747 49.4848003,30 45.5547147,30 C42.1534426,30 39.3377889,32.6518515 39.1228669,36.0575976 Z" id="Path" stroke="#1D1D1D" stroke-width="2" fill="#FFFFFF" stroke-linecap="round" stroke-linejoin="round"></path>
            <path d="M31.9999687,30 L31.5324149,30 C27.7624729,30 24.7754522,33.2312279 25.0132796,37.051234 L27.0495691,77 L36.9509469,77 L38.9866578,37.051234 C39.2250638,33.2312279 36.2380431,30 32.4681011,30 L31.9999687,30 Z" id="Path" stroke="#1D1D1D" stroke-width="2" fill="#FFFFFF" stroke-linecap="round" stroke-linejoin="round"></path>
            <path d="M12.0675793,35.291951 L17,77 L10.3740935,77 C9.28024019,77 8.33499878,76.2214263 8.10459257,75.131423 L0.128505753,37.4425774 C-0.651995301,33.6025928 2.22174605,30 6.06664962,30 C9.07748273,30 11.6321114,32.2528692 12.0675793,35.291951 Z" id="Path" stroke="#1D1D1D" stroke-width="2" fill="#FFFFFF" stroke-linecap="round" stroke-linejoin="round"></path>
            <path d="M24.8771972,36.0575976 L27,77 L16.7771673,77 L12.068937,37.4008575 C11.5009043,33.4991747 14.5155771,30 18.4455438,30 C21.8467132,30 24.6622817,32.6518515 24.8771972,36.0575976 Z" id="Path" stroke="#1D1D1D" stroke-width="2" fill="#FFFFFF" stroke-linecap="round" stroke-linejoin="round"></path>
            <g id="Group" transform="translate(13.000000, 13.000000)" fill="#1D1D1D">
                <path d="M1.31778837,11.419653 C0.822621638,11.419653 0.361419231,11.104562 0.197555316,10.6065152 C-0.38877943,8.82837419 0.368569655,6.74710031 1.95894318,5.76595398 C2.8795602,5.19795327 4.00158074,5.04608791 5.03958399,5.27687546 C5.35658611,3.5065072 6.4678811,1.8431621 8.09162311,0.900281076 C10.1586916,-0.299695046 12.9455692,-0.300292903 15.1908022,0.899683219 C15.7664112,1.20700138 15.9839034,1.92447587 15.6776269,2.50144506 C15.3707545,3.07901194 14.6563081,3.29784174 14.0806989,2.99052342 C12.5385908,2.16662363 10.6514748,2.15048041 9.2738265,2.95046455 C7.87293943,3.76420016 7.05719515,5.48673679 7.37598491,6.95755949 C7.48800821,7.47174955 7.24787311,7.9978975 6.78726669,8.24961143 C6.32666027,8.50132536 5.75641401,8.41821802 5.38637962,8.04513128 C4.8387763,7.49327378 3.85618894,7.37668414 3.1953705,7.78385087 C2.53514804,8.19161562 2.19550299,9.12433245 2.43921323,9.86273332 C2.64359621,10.4839467 2.3075263,11.1541874 1.68901457,11.3592656 C1.56566972,11.4005203 1.44113321,11.419653 1.31778837,11.419653 Z" id="Path"></path>
                <path d="M31.5776615,7.86830357 C31.4620631,7.86830357 31.344677,7.8515625 31.2290784,7.81568878 C30.6063957,7.62256852 30.2566208,6.95950255 30.4490864,6.33470189 C30.6814751,5.57836408 30.6069915,4.77718439 30.2381488,4.07764668 C29.8699021,3.37870699 29.2525821,2.8651148 28.4988083,2.63133765 C27.7456304,2.39875638 26.9471662,2.47349327 26.25,2.8429927 C25.5528338,3.21249199 25.0415784,3.83250949 24.8091897,4.58824929 C24.6167241,5.21364796 23.954714,5.56401459 23.3326271,5.37089449 C22.7099444,5.17837209 22.3607653,4.51530612 22.5526351,3.88990745 C22.9709348,2.52969551 23.8921478,1.4140226 25.1470471,0.748565051 C26.4019465,0.0837053571 27.8391817,-0.0520169388 29.1947829,0.367705714 C30.5509798,0.787428214 31.6628708,1.71237245 32.3260725,2.97094224 C32.9892744,4.23011005 33.1233448,5.67283163 32.705045,7.03304372 C32.5489275,7.54185276 32.0817665,7.86830357 31.5776615,7.86830357 Z" id="Path"></path>
            </g>
        </g>
    </g>
</svg>