<?xml version="1.0" encoding="UTF-8"?>
<svg width="86px" height="86px" viewBox="0 0 86 86" version="1.1" xmlns="http://www.w3.org/2000/svg" xmlns:xlink="http://www.w3.org/1999/xlink">
    <!-- Generator: Sketch 52.2 (67145) - http://www.bohemiancoding.com/sketch -->
    <title>gaming_gray_icon</title>
    <desc>Created with Sketch.</desc>
    <g id="gaming_gray_icon" stroke="none" stroke-width="1" fill="none" fill-rule="evenodd">
        <g transform="translate(1.000000, 0.000000)" stroke="#1D1D1D" stroke-width="2">
            <path d="M48.0339143,79.9993034 C45.9619998,79.3331011 43.950695,79 42,79 C39.930741,79 37.8682454,79.3748237 35.8125131,80.1244711 C32.0365728,83.173956 27.2315341,85 22,85 C9.8497355,85 -3.55271368e-13,75.1502645 -3.55271368e-13,63 C-3.55271368e-13,51.1848719 9.31386576,41.5451137 21,41.0223227 L21,41 L62,41 C74.1502645,41 84,50.8497355 84,63 C84,75.1502645 74.1502645,85 62,85 C56.6972766,85 51.8327349,83.1239213 48.0339143,79.9993034 Z" id="Combined-Shape" stroke-linecap="round" stroke-linejoin="round"></path>
            <path d="M48,40 C48,36.6862915 45.3137085,34 42,34 C38.6862915,34 36,36.6862915 36,40" id="Oval"></path>
            <path d="M42,34 L42,31 C42,28.790861 40.209139,27 38,27 L31,27 C28.790861,27 27,25.209139 27,23 L27,23 C27,20.790861 28.790861,19 31,19 L53.5,19 C55.9852814,19 58,16.9852814 58,14.5 L58,14.5 C58,12.0147186 55.9852814,10 53.5,10 L46,10 C43.790861,10 42,8.209139 42,6 L42,0" id="Path-2" stroke-linecap="round" stroke-linejoin="round"></path>
            <path d="M24,66 L24,70 C24,71.6568542 22.6568542,73 21,73 C19.3431458,73 18,71.6568542 18,70 L18,66 L14,66 C12.3431458,66 11,64.6568542 11,63 C11,61.3431458 12.3431458,60 14,60 L18,60 L18,56 C18,54.3431458 19.3431458,53 21,53 C22.6568542,53 24,54.3431458 24,56 L24,60 L28,60 C29.6568542,60 31,61.3431458 31,63 C31,64.6568542 29.6568542,66 28,66 L24,66 Z" id="Combined-Shape" stroke-linecap="round" stroke-linejoin="round"></path>
            <circle id="Oval" cx="62" cy="55" r="4"></circle>
            <circle id="Oval-Copy-2" cx="62" cy="71" r="4"></circle>
            <circle id="Oval-Copy-3" cx="54" cy="63" r="4"></circle>
            <circle id="Oval-Copy-4" cx="70" cy="63" r="4"></circle>
        </g>
    </g>
</svg>