<?xml version="1.0" encoding="UTF-8"?>
<svg width="86px" height="86px" viewBox="0 0 86 86" version="1.1" xmlns="http://www.w3.org/2000/svg" xmlns:xlink="http://www.w3.org/1999/xlink">
    <!-- Generator: Sketch 52.2 (67145) - http://www.bohemiancoding.com/sketch -->
    <title>category-auto-vehicles-hover</title>
    <desc>Created with Sketch.</desc>
    <g id="category-auto-vehicles-hover" stroke="none" stroke-width="1" fill="none" fill-rule="evenodd">
        <g id="Group-2" transform="translate(7.000000, 9.000000)">
            <g id="1198131">
                <g id="Group" transform="translate(54.250000, 45.333333)">
                    <path d="M14.6741861,0.0812116665 L10.1949501,1.51320631 L2.57517307,1.51320631 C1.70539609,1.51320631 1,2.19047116 1,3.02432589 L1,18.1338614 C1,20.6326588 3.11964884,22.6666667 5.72494231,22.6666667 L12.0250577,22.6666667 C14.6297744,22.6666667 16.75,20.6326588 16.75,18.1338614 L16.75,1.51320631 C16.75,1.02683729 16.5071777,0.570347395 16.0947834,0.286493778 C15.6818124,0.00264016105 15.1494488,-0.079251341 14.6741861,0.0812116665 Z" id="Path-Copy-2" fill="#706F6F"></path>
                    <path d="M9.48144705,0.0812116665 L6.61913615,1.51320631 L1.96260576,1.51320631 C1.43107539,1.51320631 1,2.19047116 1,3.02432589 L1,18.1338614 C1,20.6326588 2.29534096,22.6666667 3.88746475,22.6666667 L10.75,22.6666667 L10.75,1.51320631 C10.75,1.02683729 10.6016086,0.570347395 10.3495898,0.286493778 C10.0972187,0.00264016105 9.77188539,-0.079251341 9.48144705,0.0812116665 Z" id="Path-Copy-3" fill="#5E5D5D"></path>
                    <path d="M14.6741861,0.0812116665 L10.1949501,1.51320631 L2.57517307,1.51320631 C1.70539609,1.51320631 0.75,2.19047116 0.75,3.02432589 L0.75,18.1338614 C0.75,20.6326588 3.11964884,22.6666667 5.72494231,22.6666667 L12.0250577,22.6666667 C14.6297744,22.6666667 16.75,20.6326588 16.75,18.1338614 L16.75,1.51320631 C16.75,1.02683729 16.5071777,0.570347395 16.0947834,0.286493778 C15.6818124,0.00264016105 15.1494488,-0.079251341 14.6741861,0.0812116665 Z" id="Path" stroke="#1D1D1D" stroke-width="2" stroke-linecap="round" stroke-linejoin="round"></path>
                </g>
                <g id="Group-Copy" transform="translate(9.250000, 56.833333) scale(-1, 1) translate(-9.250000, -56.833333) translate(0.750000, 45.333333)">
                    <path d="M16.0947834,0.286493778 C15.6818124,0.00264016105 15.1494488,-0.079251341 14.6741861,0.0812116665 L10.1949501,1.51320631 L2.57517307,1.51320631 C1.70539609,1.51320631 1,2.19047116 1,3.02432589 L1,18.1338614 C1,20.6326588 3.11964884,22.6666667 5.72494231,22.6666667 L12.0250577,22.6666667 C14.6297744,22.6666667 16.75,20.6326588 16.75,18.1338614 L16.75,1.51320631 C16.75,1.02683729 16.5071777,0.570347395 16.0947834,0.286493778 Z" id="Path-Copy-2" fill="#706F6F"></path>
                    <path d="M9.48144705,0.0812116665 L6.61913615,1.51320631 L1.96260576,1.51320631 C1.43107539,1.51320631 1,2.19047116 1,3.02432589 L1,18.1338614 C1,20.6326588 2.29534096,22.6666667 3.88746475,22.6666667 L10.75,22.6666667 L10.75,1.51320631 C10.75,1.02683729 10.6016086,0.570347395 10.3495898,0.286493778 C10.0972187,0.00264016105 9.77188539,-0.079251341 9.48144705,0.0812116665 Z" id="Path-Copy-3" fill="#5E5D5D"></path>
                    <path d="M14.6741861,0.0812116665 L10.1949501,1.51320631 L2.32517307,1.51320631 C1.45539609,1.51320631 0.75,2.19047116 0.75,3.02432589 L0.75,18.1338614 C0.75,20.6326588 3.11964884,22.6666667 5.72494231,22.6666667 L12.0250577,22.6666667 C14.6297744,22.6666667 16.75,20.6326588 16.75,18.1338614 L16.75,1.51320631 C16.75,1.02683729 16.5071777,0.570347395 16.0947834,0.286493778 C15.6818124,0.00264016105 15.1494488,-0.079251341 14.6741861,0.0812116665 Z" id="Path" stroke="#1D1D1D" stroke-width="2" stroke-linecap="round" stroke-linejoin="round"></path>
                </g>
                <path d="M9.75,19.1794872 L12.7055415,5.19027559 C13.0387259,3.61324408 14.2859031,2.39027129 15.8691607,2.08805387 C23.1617631,0.696017956 30.1637096,3.70910957e-16 36.875,1.33084427e-16 C43.5995059,1.33084427e-16 50.3240119,0.698761774 57.0485178,2.09628532 L57.0485176,2.09628631 C58.495402,2.39698571 59.6586137,3.47093774 60.0736311,4.88926598 L64,18.3076923" id="Path-2" stroke="#1D1D1D" stroke-width="2" fill="#C1DCFF" stroke-linecap="round" stroke-linejoin="round"></path>
                <path d="M65.7436924,23.1772406 C65.7436924,23.1772406 65.6152484,21.8771408 65.3618007,19.9272701 C65.3084735,19.5244459 65.095738,19.1584959 64.763733,18.9115495 C64.4345949,18.6640446 64.0182986,18.5573324 63.6048692,18.6064982 L62.6369513,18.7310888 C60.3134896,18.3746368 42.4385461,15.6923077 35.9997132,15.6923077 C29.5614537,15.6923077 11.6865104,18.3746368 9.36247531,18.7282952 L8.39513079,18.6064982 C7.98800885,18.5573324 7.56483155,18.6640446 7.23626705,18.9115495 C6.904262,19.1557025 6.69152645,19.5216524 6.63819926,19.9244766 C6.38475164,21.8743471 6.25630756,23.1772406 6.25,23.3202683 L6.25,27.8971565 C6.25,28.7396794 6.95128163,29.4229721 7.81541216,29.4229721 L9.58782582,29.4229721 L10.9599985,38.7935249 C11.0723871,39.5438619 11.7329566,40.1025641 12.5127957,40.1025641 L59.4866308,40.1025641 C60.2664699,40.1025641 60.9276129,39.5438619 61.0371344,38.7935249 L62.4087336,29.4229721 L64.1840143,29.4229721 C65.0487182,29.4229721 65.75,28.7396794 65.75,27.8971565 L65.75,23.3202683 C65.75,23.2716614 65.747133,23.2230542 65.7436924,23.1772406 Z" id="Path" stroke="#1D1D1D" stroke-width="2" fill="#00796B" stroke-linecap="round" stroke-linejoin="round"></path>
                <path d="M13.4282204,27.4836738 C13.3194209,26.7208533 12.6632053,26.1538462 11.8885065,26.1538462 L8.77717906,26.1538462 C8.6495816,26.1538462 8.52255388,26.1691707 8.40122226,26.2003872 L2.17913731,27.7498665 C1.48532605,27.9235443 1,28.5433359 1,29.253372 L1,38.5525173 C1,39.4078526 1.69665938,40.1025641 2.55566371,40.1025641 L13.4436004,40.1025641 C13.8947486,40.1025641 14.3242508,39.9073184 14.6198896,39.5690438 C14.9155283,39.2313368 15.0488221,38.7789797 14.9838841,38.3357037 L13.4282204,27.4836738 Z" id="Path" stroke="#1D1D1D" stroke-width="2" fill="#01564C" stroke-linecap="round" stroke-linejoin="round"></path>
                <path d="M69.8208793,27.7498665 L63.5988821,26.2003872 C63.4775524,26.1691707 63.3499567,26.1538462 63.222361,26.1538462 L60.1116473,26.1538462 C59.3369594,26.1538462 58.6807531,26.7208533 58.571955,27.4836738 L57.0163134,38.3322983 C56.9508067,38.7789797 57.0846682,39.2284989 57.3803027,39.5662058 C57.6759373,39.9073184 58.1048638,40.1025641 58.5560056,40.1025641 L69.4443583,40.1025641 C70.3027809,40.1025641 71,39.4078526 71,38.5525173 L71,29.253372 C71,28.5433359 70.5146808,27.9235443 69.8208793,27.7498665 Z" id="Path" stroke="#1D1D1D" stroke-width="2" fill="#01564C" stroke-linecap="round" stroke-linejoin="round"></path>
                <path d="M69.4780791,36.6153846 L2.52192089,36.6153846 C1.68154863,36.6153846 1,37.2992413 1,38.1412119 L1,45.7692308 C1,46.4257109 1.42018606,47.0112352 2.04099163,47.2185153 L6.60619691,48.7443425 C6.76111957,48.7935086 6.92272969,48.8208854 7.08712616,48.8208854 L16.549116,48.8208854 L17.7845969,53.7665547 C17.9551233,54.447059 18.5636687,54.9230769 19.2608211,54.9230769 L52.7391789,54.9230769 C53.4357739,54.9230769 54.0448765,54.447059 54.2148458,53.7665547 L55.450884,48.8208854 L64.9128738,48.8208854 C65.0772703,48.8208854 65.238323,48.7935086 65.3938031,48.741549 L69.9590084,47.2157217 C70.5798138,47.0084417 71,46.4257109 71,45.7692308 L71,38.1412119 C71,37.2992413 70.3178941,36.6153846 69.4780791,36.6153846 Z" id="Path" fill="#00796B"></path>
                <path d="M1,44.9875488 C1,45.6440289 1.42018606,47.0112352 2.04099163,47.2185153 L6.60619691,48.7443425 C6.76111957,48.7935086 6.92272969,48.8208854 7.08712616,48.8208854 L16.549116,48.8208854 L17.7845969,53.7665547 C17.9551233,54.447059 18.5636687,54.9230769 19.2608211,54.9230769 L52.7391789,54.9230769 C53.4357739,54.9230769 54.0448765,54.447059 54.2148458,53.7665547 L55.450884,48.8208854 L64.9128738,48.8208854 C65.0772703,48.8208854 65.238323,48.7935086 65.3938031,48.741549 L69.9590084,47.2157217 C70.5798138,47.0084417 71,45.6440289 71,44.9875488 L1,44.9875488 Z" id="Path-Copy-4" fill-opacity="0.5" fill="#01564C"></path>
                <path d="M2.52192089,35.9963379 C1.68154863,35.9963379 1,36.6801946 1,37.5221652 L1,45.7692308 C1,46.4257109 1.42018606,47.0112352 2.04099163,47.2185153 L6.60619691,48.7443425 C6.76111957,48.7935086 6.92272969,48.8208854 7.08712616,48.8208854 L16.549116,48.8208854 L17.7845969,53.8566614 C17.9551233,54.5371657 18.5636687,55.0131836 19.2608211,55.0131836 L52.7391789,55.0131836 C53.4357739,55.0131836 54.0448765,54.5371657 54.2148458,53.8566614 L55.450884,48.8208854 L64.9128738,48.8208854 C65.0772703,48.8208854 65.238323,48.7935086 65.3938031,48.741549 L69.9590084,47.2157217 C70.5798138,47.0084417 71,46.4257109 71,45.7692308 L71,37.5221652 C71,36.6801946 70.3178941,35.9963379 69.4780791,35.9963379 L2.52192089,35.9963379 Z" id="Path-Copy" stroke="#1D1D1D" stroke-width="2" stroke-linecap="round" stroke-linejoin="round"></path>
                <path d="M27.25,44.8977153 C27.25,46.5827225 25.8788569,47.9487179 24.1875,47.9487179 C22.4961431,47.9487179 21.125,46.5827225 21.125,44.8977153 C21.125,43.2121493 22.4961431,41.8461538 24.1875,41.8461538 C25.8788569,41.8461538 27.25,43.2121493 27.25,44.8977153 Z" id="Path" fill="#1D1D1D"></path>
                <path d="M51.75,44.8977153 C51.75,46.5827225 50.3789825,47.9487179 48.6877804,47.9487179 C46.9960175,47.9487179 45.625,46.5827225 45.625,44.8977153 C45.625,43.2121493 46.9960175,41.8461538 48.6877804,41.8461538 C50.3789825,41.8461538 51.75,43.2121493 51.75,44.8977153 Z" id="Path" fill="#1D1D1D"></path>
            </g>
            <rect id="Rectangle" stroke="#1D1D1D" stroke-width="2" fill="#01564C" x="3" y="17" width="7" height="6" rx="2"></rect>
            <rect id="Rectangle-Copy" stroke="#1D1D1D" stroke-width="2" fill="#01564C" x="64" y="17" width="7" height="6" rx="2"></rect>
            <circle id="Oval" stroke="#1D1D1D" stroke-width="2" fill="#FFCC76" stroke-linecap="round" stroke-linejoin="round" cx="22" cy="28" r="4"></circle>
            <circle id="Oval-Copy" stroke="#1D1D1D" stroke-width="2" fill="#FFCC76" stroke-linecap="round" stroke-linejoin="round" cx="51" cy="28" r="4"></circle>
            <path d="M34,26 L34,31" id="Line-10" stroke="#1D1D1D" stroke-width="2" stroke-linecap="round"></path>
            <path d="M30,26 L30,31" id="Line-10-Copy-3" stroke="#1D1D1D" stroke-width="2" stroke-linecap="round"></path>
            <path d="M37.9994852,26 L38,31" id="Line-10-Copy" stroke="#1D1D1D" stroke-width="2" stroke-linecap="round"></path>
            <path d="M42,26 L42,31" id="Line-10-Copy-2" stroke="#1D1D1D" stroke-width="2" stroke-linecap="round"></path>
        </g>
    </g>
</svg>