<?xml version="1.0" encoding="UTF-8"?>
<svg width="86px" height="86px" viewBox="0 0 86 86" version="1.1" xmlns="http://www.w3.org/2000/svg" xmlns:xlink="http://www.w3.org/1999/xlink">
    <!-- Generator: Sketch 52.2 (67145) - http://www.bohemiancoding.com/sketch -->
    <title>gaming_color_icon</title>
    <desc>Created with Sketch.</desc>
    <g id="gaming_color_icon" stroke="none" stroke-width="1" fill="none" fill-rule="evenodd">
        <g transform="translate(1.000000, 0.000000)">
            <path d="M21.5034859,41 C20.7094976,41 19.9155093,41.043 19.1258882,41.1274883 C9.93682183,42.1149766 1.16331011,50.8527109 0.142899955,60.0446328 C-1.21428754,71.8392305 7.24831402,82.500207 19.0429117,83.8573945 C23.8510171,84.4105156 28.7036343,83.3242617 32.8180289,80.7761758 C34.9018492,79.4205 37.2792789,78.5848555 39.7529546,78.3397891 C40.3490757,78.2867109 40.9539312,78.2610117 41.5673531,78.2610117 C42.1491968,78.2610117 42.7266734,78.281 43.298607,78.3226563 C45.8094039,78.5591563 48.2256343,79.4031992 50.3380093,80.7818867 C60.4414976,87.0173906 73.6863375,83.88175 79.9218414,73.7782617 C82.4569937,69.6709219 83.5361929,64.8298945 82.9844156,60.0360664 C81.9655171,50.8511992 73.1904937,42.1149766 64.0012593,41.1274883 C63.2144937,41.043 62.4233609,41 61.6308843,41 L21.5034859,41 Z" id="Path" fill="#D5DCE4"></path>
            <path d="M80.2689727,51 C63.0199258,70.3313555 24.1724492,77.525625 9,79.6623555 C16.0924805,85.6585039 26.2418242,86.3994141 34.1298047,81.4982539 C36.213625,80.1425781 38.5910547,79.3069336 41.0647305,79.0620352 C41.663707,79.014668 42.271418,78.9903125 42.8833281,78.9903125 C43.4651719,78.9903125 44.0426484,79.0103008 44.614582,79.051957 C47.1253789,79.288457 49.5416094,80.1325 51.6539844,81.5111875 C61.7574727,87.7466914 75.0023125,84.6110508 81.2378164,74.5075625 C83.7729688,70.4002227 84.852168,65.5591953 84.3003906,60.7653672 C83.8388125,57.2126602 82.4473594,53.8448867 80.2689727,51 Z" id="Path" fill="#BCC6D1"></path>
            <path d="M48.0339143,79.9993034 C45.9619998,79.3331011 43.950695,79 42,79 C39.930741,79 37.8682454,79.3748237 35.8125131,80.1244711 C32.0365728,83.173956 27.2315341,85 22,85 C9.8497355,85 -3.55271368e-13,75.1502645 -3.55271368e-13,63 C-3.55271368e-13,51.1848719 9.31386576,41.5451137 21,41.0223227 L21,41 L62,41 C74.1502645,41 84,50.8497355 84,63 C84,75.1502645 74.1502645,85 62,85 C56.6972766,85 51.8327349,83.1239213 48.0339143,79.9993034 Z" id="Combined-Shape" stroke="#1D1D1D" stroke-width="2"></path>
            <path d="M48,40 C48,36.6862915 45.3137085,34 42,34 C38.6862915,34 36,36.6862915 36,40" id="Oval" stroke="#1D1D1D" stroke-width="2" fill="#9BBEFF"></path>
            <path d="M42,34 L42,31 C42,28.790861 40.209139,27 38,27 L31,27 C28.790861,27 27,25.209139 27,23 L27,23 C27,20.790861 28.790861,19 31,19 L53.5,19 C55.9852814,19 58,16.9852814 58,14.5 L58,14.5 C58,12.0147186 55.9852814,10 53.5,10 L46,10 C43.790861,10 42,8.209139 42,6 L42,0" id="Path-2" stroke="#1D1D1D" stroke-width="2" stroke-linecap="round" stroke-linejoin="round"></path>
            <path d="M24,66 L24,70 C24,71.6568542 22.6568542,73 21,73 C19.3431458,73 18,71.6568542 18,70 L18,66 L14,66 C12.3431458,66 11,64.6568542 11,63 C11,61.3431458 12.3431458,60 14,60 L18,60 L18,56 C18,54.3431458 19.3431458,53 21,53 C22.6568542,53 24,54.3431458 24,56 L24,60 L28,60 C29.6568542,60 31,61.3431458 31,63 C31,64.6568542 29.6568542,66 28,66 L24,66 Z" id="Combined-Shape" stroke="#1D1D1D" stroke-width="2" fill="#383856" stroke-linecap="round" stroke-linejoin="round"></path>
            <circle id="Oval" stroke="#1D1D1D" stroke-width="2" fill="#FF6E37" cx="62" cy="55" r="4"></circle>
            <circle id="Oval-Copy-2" stroke="#1D1D1D" stroke-width="2" fill="#A5DC69" cx="62" cy="71" r="4"></circle>
            <circle id="Oval-Copy-3" stroke="#1D1D1D" stroke-width="2" fill="#6E87F5" cx="54" cy="63" r="4"></circle>
            <circle id="Oval-Copy-4" stroke="#1D1D1D" stroke-width="2" fill="#DC4B4B" cx="70" cy="63" r="4"></circle>
        </g>
    </g>
</svg>