<?xml version="1.0" encoding="UTF-8"?>
<svg width="86px" height="86px" viewBox="0 0 86 86" version="1.1" xmlns="http://www.w3.org/2000/svg" xmlns:xlink="http://www.w3.org/1999/xlink">
    <!-- Generator: Sketch 52.2 (67145) - http://www.bohemiancoding.com/sketch -->
    <title>category-anime-hover</title>
    <desc>Created with Sketch.</desc>
    <g id="category-anime-hover" stroke="none" stroke-width="1" fill="none" fill-rule="evenodd">
        <g id="Group-Copy" transform="translate(6.000000, 7.000000)">
            <path d="M14,26 L63,26 C64.1045695,26 65,26.8954305 65,28 L65,49 C65,61.7025492 54.7025492,72 42,72 L35,72 C22.2974508,72 12,61.7025492 12,49 L12,28 C12,26.8954305 12.8954305,26 14,26 Z" id="Rectangle" stroke="#1D1D1D" stroke-width="2" fill="#EAC6BB" stroke-linecap="round" stroke-linejoin="round"></path>
            <path d="M47,40 C43.687664,40 41,43.1344743 41,46.997555 C41,50.8655257 43.687664,54 47,54 C50.3175853,54 53,50.8655257 53,46.997555 C53,43.1344743 50.3175853,40 47,40 Z M48.3595801,45.9608802 C46.8425197,45.9608802 45.6194226,44.8166259 45.6194226,43.408313 C45.6194226,42.00489 46.8425197,40.8606357 48.3595801,40.8606357 C49.8713911,40.8606357 51.0944882,42.00489 51.0944882,43.408313 C51.0944882,44.8166259 49.8661417,45.9608802 48.3595801,45.9608802 Z" id="Shape" fill="#000000" fill-rule="nonzero"></path>
            <path d="M30,40 C26.687664,40 24,43.1344743 24,46.997555 C24,50.8655257 26.687664,54 30,54 C33.3175853,54 36,50.8655257 36,46.997555 C36,43.1344743 33.3175853,40 30,40 Z M31.3595801,45.9608802 C29.8425197,45.9608802 28.6194226,44.8166259 28.6194226,43.408313 C28.6194226,42.00489 29.8425197,40.8606357 31.3595801,40.8606357 C32.8713911,40.8606357 34.0944882,42.00489 34.0944882,43.408313 C34.0944882,44.8166259 32.8661417,45.9608802 31.3595801,45.9608802 Z" id="Shape-Copy" fill="#000000" fill-rule="nonzero"></path>
            <circle id="Oval" fill="#FFFFFF" cx="31.5" cy="43.5" r="2.5"></circle>
            <circle id="Oval-Copy" fill="#FFFFFF" cx="48.5" cy="43.5" r="2.5"></circle>
            <polygon id="Path-7" stroke="#1D1D1D" stroke-width="2" fill="#926EB2" stroke-linecap="round" stroke-linejoin="round" points="21.8427602 37.2340426 11.8208955 50 7.50584599 42.5531915 10.7457154 38.2978723 3.2238806 43.6170213 4.29850746 29.787234 9.67164179 27.6595745 0 29.787234 10.7457154 19.1489362 5.37313433 17.0212766 20.4179104 10.6382979 18.2686567 5.31914894 35.5205271 6.38297872 34.388613 0 42.9850746 4.25531915 51.5820896 0 51.5820896 4.25531915 64.4776119 5.31914894 58.0298507 10.6382979 68.7761194 15.9574468 65.7049816 19.1489362 72 27.6595745 67.4353168 27.6595745 72 37.2340426 65.7049816 46.8085106 58.0298507 37.2340426 56.9552239 45.2616399 41.6345053 30.8510638 28.0930413 41.4893617"></polygon>
            <polyline id="Path-9" stroke="#252525" stroke-width="2" stroke-linecap="round" stroke-linejoin="round" points="17 23 22.858492 18 28 21"></polyline>
            <path d="M32,61 C34.1662577,63 36.3327384,64 38.4994423,64 C40.6661461,64 42.8329987,63 45,61" id="Path-8" stroke="#242424" stroke-width="2" stroke-linejoin="round"></path>
            <path d="M65,36 L58,28" id="Path-10" stroke="#252525" stroke-width="2" stroke-linecap="round" stroke-linejoin="round"></path>
        </g>
    </g>
</svg>