<?xml version="1.0" encoding="UTF-8"?>
<svg width="18px" height="23px" viewBox="0 0 18 23" version="1.1" xmlns="http://www.w3.org/2000/svg" xmlns:xlink="http://www.w3.org/1999/xlink">
    <!-- Generator: Sketch 52.2 (67145) - http://www.bohemiancoding.com/sketch -->
    <title>bookmark</title>
    <desc>Created with Sketch.</desc>
    <g id="Page-1" stroke="none" stroke-width="1" fill="none" fill-rule="evenodd">
        <g id="UI-Design---Playlist-Details-Copy" transform="translate(-1454.000000, -396.000000)" stroke="#9EA0A3" stroke-width="2">
            <g id="Playlist-Info" transform="translate(148.000000, 131.000000)">
                <g id="bookmark" transform="translate(1307.000000, 266.000000)">
                    <path d="M1,0 L15,-2.22044605e-16 C15.5522847,-1.30455246e-15 16,0.44771525 16,1 L16,19.1957524 C16,19.7480371 15.5522847,20.1957524 15,20.1957524 C14.8125803,20.1957524 14.6289327,20.1430829 14.4700011,20.0437507 L8,16 L1.52999894,20.0437507 C1.06166241,20.336461 0.444712028,20.1940878 0.152001696,19.7257513 C0.0526694449,19.5668197 1.79930913e-15,19.3831721 1.77635684e-15,19.1957524 L2.66453526e-15,1 C2.59689988e-15,0.44771525 0.44771525,1.01453063e-16 1,0 Z" id="Rectangle" stroke-linecap="round" stroke-linejoin="round" transform="translate(8.000000, 10.097943) scale(-1, 1) translate(-8.000000, -10.097943) "></path>
                    <path d="M8,4 L8,12" id="Path-5"></path>
                    <path d="M8,4 L8,12" id="Path-5-Copy" transform="translate(8.000000, 8.000000) rotate(-270.000000) translate(-8.000000, -8.000000) "></path>
                </g>
            </g>
        </g>
    </g>
</svg>