<svg width="439px" height="366px" viewBox="0 0 439 366" version="1.1" xmlns="http://www.w3.org/2000/svg" xmlns:xlink="http://www.w3.org/1999/xlink">
    <!-- Generator: Sketch 47 (45396) - http://www.bohemiancoding.com/sketch -->
    <desc>Created with Sketch.</desc>
    <defs></defs>
    <g id="Page-1" stroke="none" stroke-width="1" fill="none" fill-rule="evenodd">
        <g id="reorder" fill-rule="nonzero" fill="#B0B2B4">
            <path d="M420.265,292.897 L18.274,292.897 C13.322,292.897 9.039,294.71 5.423,298.325 C1.807,301.938 0,306.224 0,311.172 L0,347.72 C0,352.669 1.807,356.95 5.424,360.568 C9.043,364.181 13.326,365.992 18.275,365.992 L420.266,365.992 C425.214,365.992 429.495,364.181 433.113,360.568 C436.727,356.951 438.534,352.67 438.534,347.72 L438.534,311.172 C438.534,306.224 436.734,301.939 433.113,298.325 C429.495,294.711 425.217,292.897 420.265,292.897 Z" id="Shape"></path>
            <path d="M433.112,5.968 C429.495,2.351 425.214,0.542 420.265,0.542 L18.274,0.542 C13.322,0.542 9.039,2.351 5.423,5.968 C1.807,9.583 0,13.866 0,18.813 L0,55.36 C0,60.309 1.807,64.589 5.424,68.207 C9.043,71.825 13.326,73.631 18.275,73.631 L420.266,73.631 C425.214,73.631 429.495,71.824 433.113,68.207 C436.727,64.59 438.534,60.309 438.534,55.36 L438.534,18.813 C438.533,13.866 436.729,9.583 433.112,5.968 Z" id="Shape"></path>
            <path d="M420.265,146.72 L18.274,146.72 C13.322,146.72 9.039,148.529 5.423,152.146 C1.807,155.761 0,160.044 0,164.992 L0,201.539 C0,206.487 1.807,210.775 5.424,214.386 C9.043,218 13.326,219.814 18.275,219.814 L420.266,219.814 C425.214,219.814 429.495,218.001 433.113,214.386 C436.727,210.776 438.534,206.488 438.534,201.539 L438.534,164.992 C438.534,160.044 436.727,155.761 433.113,152.145 C429.495,148.528 425.217,146.72 420.265,146.72 Z" id="Shape"></path>
        </g>
    </g>
</svg>
